<?xml version="1.0" standalone="no"?>
<!DOCTYPE svg PUBLIC "-//W3C//DTD SVG 1.1//EN" "http://www.w3.org/Graphics/SVG/1.1/DTD/svg11.dtd" >
<svg xmlns="http://www.w3.org/2000/svg">
<metadata>
This is a custom SVG webfont generated by Font Squirrel.
Designer    : Hoefler and Frere-Jones
Foundry     : Hoefler and Frere-Jones
Foundry URL : www.typography.com
</metadata>
<defs>
<font id="webfontoKrxME3u" horiz-adv-x="720" >
<font-face units-per-em="1000" ascent="800" descent="-200" />
<missing-glyph horiz-adv-x="184" />
<glyph unicode=" "  horiz-adv-x="184" />
<glyph unicode="&#x09;" horiz-adv-x="184" />
<glyph unicode="&#xa0;" horiz-adv-x="184" />
<glyph unicode="!" horiz-adv-x="279" d="M140 -16q-28 0 -47 19t-19 45t19 45t47 19q27 0 46 -19t19 -45t-19 -45t-46 -19zM140 684q28 0 44.5 -18.5t16.5 -54.5q0 -44 -12 -150q-20 -173 -26 -281h-47q-6 108 -26 281q-12 106 -12 150q0 73 62 73z" />
<glyph unicode="&#x22;" horiz-adv-x="392" d="M89 410l-33 16l20 88q23 101 31 119q14 29 40 29q21 0 37 -11.5t16 -30.5q0 -16 -6 -30q-30 -60 -58 -105zM253 410l-33 16l20 88q23 101 31 119q14 29 40 29q21 0 37 -11.5t16 -30.5q0 -16 -6 -30q-30 -60 -58 -105z" />
<glyph unicode="#" horiz-adv-x="663" d="M205 413h-133v59h144l38 191h70l-38 -191h156l38 191h70l-38 -191h124v-59h-135l-39 -196h133v-59h-144l-39 -198h-70l39 198h-156l-39 -198h-70l39 198h-124v59h135zM431 413h-156l-39 -196h156z" />
<glyph unicode="$" horiz-adv-x="562" d="M317 -80h-58v81q-91 6 -149 46t-58 92q0 27 18.5 48.5t46.5 21.5q27 0 44.5 -19t17.5 -43q0 -34 -32 -54q10 -13 40.5 -25t71.5 -16v228q-94 31 -140 66.5t-46 104.5q0 71 49 121.5t137 60.5v72h58v-70q83 -4 135 -43t52 -85q0 -32 -14.5 -50t-39.5 -18q-30 0 -46.5 16 t-16.5 42q0 32 27 49q-30 31 -97 37v-216q99 -32 144 -70t45 -109q0 -32 -9 -61t-29.5 -57t-59 -46.5t-91.5 -22.5v-81zM426 151q0 38 -24 63t-85 47v-209q52 5 80.5 32t28.5 67zM161 485q0 -37 20 -58t78 -42v196q-47 -8 -72.5 -35.5t-25.5 -60.5z" />
<glyph unicode="%" horiz-adv-x="808" d="M169 265q-61 0 -95 37.5t-34 99.5q0 85 60.5 155.5t140.5 70.5q67 0 97 -47q34 -16 88 -16q97 0 161 77h68l-439 -668h-76l391 576l-3 3q-48 -38 -120 -38q-26 0 -52 5q0 -2 0.5 -7t0.5 -8q0 -46 -19.5 -99t-64.5 -97t-104 -44zM580 -14q-61 0 -95 37.5t-34 99.5 q0 85 60.5 155.5t140.5 70.5q54 0 85 -32t31 -91q0 -46 -19.5 -99t-64.5 -97t-104 -44zM589 34q51 0 88 63.5t37 126.5q0 72 -53 72q-49 0 -87 -65t-38 -126q0 -71 53 -71zM178 313q51 0 88 63.5t37 126.5q0 17 -3 30q-28 13 -61 41q-45 -8 -79.5 -70.5t-34.5 -119.5 q0 -71 53 -71z" />
<glyph unicode="&#x26;" horiz-adv-x="730" d="M480 380h223v-61h-76q-49 -105 -121 -189q28 -47 44.5 -61.5t37.5 -14.5q18 0 31.5 12t27.5 44l44 -19q-38 -107 -133 -107q-42 0 -68 18.5t-55 69.5q-85 -88 -185 -88q-97 0 -147.5 49.5t-50.5 113.5q0 66 39.5 112.5t123.5 82.5q-63 68 -63 130q0 72 48 115t122 43 q67 0 107 -36t40 -88t-33 -88.5t-99 -72.5q81 -79 136 -167q55 67 84 141h-77v61zM275 55q68 0 129 64q-54 90 -153 188q-50 -26 -72.5 -57.5t-22.5 -77.5q0 -49 32.5 -83t86.5 -34zM238 499q0 -52 66 -122q82 51 82 118q0 34 -18.5 57.5t-54.5 23.5q-34 0 -54.5 -21 t-20.5 -56z" />
<glyph unicode="'" horiz-adv-x="228" d="M89 410l-33 16l20 88q23 101 31 119q14 29 40 29q21 0 37 -11.5t16 -30.5q0 -16 -6 -30q-30 -60 -58 -105z" />
<glyph unicode="(" horiz-adv-x="361" d="M349 -157q-122 56 -200.5 166t-78.5 273t78.5 273t200.5 166l29 -46q-209 -120 -209 -393t209 -393z" />
<glyph unicode=")" horiz-adv-x="361" d="M12 721q122 -56 200.5 -166t78.5 -273t-78.5 -273t-200.5 -166l-29 46q209 120 209 393t-209 393z" />
<glyph unicode="*" horiz-adv-x="437" d="M225 365q-4 10 -5 30.5t-1.5 50.5t-1.5 41l-13 5q-8 -9 -25.5 -32.5t-31.5 -40t-22 -22.5q-17 -13 -32 -13q-16 0 -29 17q-9 12 -9 24q0 18 24 35q8 6 28 14t48 17.5t39 14.5v13q-7 3 -38 14.5t-49.5 19t-27.5 13.5q-24 17 -24 36q0 11 9 23q12 17 29 17q14 0 32 -13 q9 -6 22 -21.5t32.5 -41t24.5 -32.5l12 5q1 13 1.5 41.5t2 49.5t5.5 31q12 36 37 36q7 0 15 -3q26 -9 26 -34q0 -10 -4 -23q-3 -10 -13.5 -27t-28.5 -42.5t-23 -33.5l9 -11q107 29 118 29q47 0 47 -39t-47 -39q-10 0 -29.5 5t-49.5 13.5t-39 11.5l-8 -11l23 -34l26.5 -42.5 t14.5 -27.5q4 -13 4 -23q0 -25 -26 -34q-8 -3 -15 -3q-25 0 -37 36z" />
<glyph unicode="+" horiz-adv-x="525" d="M230 67v183h-179v62h179v183h66v-183h178v-62h-178v-183h-66z" />
<glyph unicode="," horiz-adv-x="231" d="M35 -151l-19 34q106 47 118 114l-6 3q-11 -8 -27 -8q-20 0 -34.5 16t-14.5 39q0 27 17.5 46t44.5 19q33 0 53.5 -23t20.5 -59q0 -58 -35.5 -101t-117.5 -80z" />
<glyph unicode="-" horiz-adv-x="366" d="M55 211v77h256v-77h-256z" />
<glyph unicode="." horiz-adv-x="231" d="M116 -16q-28 0 -47 19t-19 45t19 45t47 19q27 0 46 -19t19 -45t-19 -45t-46 -19z" />
<glyph unicode="/" horiz-adv-x="430" d="M-48 -203l386 907h73l-386 -907h-73z" />
<glyph unicode="0" horiz-adv-x="568" d="M283 -16q-115 0 -179 93.5t-64 237.5t66.5 239.5t178.5 95.5q115 0 179 -93.5t64 -237.5t-66.5 -239.5t-178.5 -95.5zM285 45q70 0 100.5 68t30.5 203q0 273 -133 273q-70 0 -100.5 -68t-30.5 -203q0 -273 133 -273z" />
<glyph unicode="1" horiz-adv-x="474" d="M65 0v66h143v446q-32 -14 -79 -14q-42 0 -69 10v54h13q48 0 93 18q50 22 71 61h70v-575h143v-66h-385z" />
<glyph unicode="2" horiz-adv-x="569" d="M50 57q0 104 184 214q68 41 98.5 64.5t47.5 55t17 77.5q0 55 -32.5 88t-89.5 33q-87 0 -121 -61q50 -18 50 -66q0 -30 -18.5 -50t-49.5 -20q-32 0 -52.5 23t-20.5 57q0 71 65 124.5t161 53.5q101 0 158 -55.5t57 -133.5q0 -70 -47.5 -119.5t-149.5 -98.5 q-78 -38 -113 -67.5t-55 -65.5l2 -4q39 24 89 24q39 0 95.5 -26t72.5 -26q31 0 48 26t34 94l50 -5q-22 -209 -148 -209q-39 0 -76 22t-69 44t-58 22q-3 0 -7 -0.5t-8 -1.5h-3q9 -13 9 -30q0 -23 -16 -39.5t-40 -16.5q-29 0 -46.5 20.5t-17.5 52.5z" />
<glyph unicode="3" horiz-adv-x="546" d="M255 -16q-92 0 -154 41t-62 102q0 31 21 53.5t53 22.5q28 0 45 -19t17 -46q0 -32 -30 -58q36 -36 111 -36q68 0 100 33.5t32 91.5q0 61 -40 94.5t-136 33.5h-28v59h23q92 0 129 34t37 94q0 51 -29.5 78.5t-81.5 27.5q-75 0 -115 -38q40 -18 40 -60q0 -26 -16.5 -45.5 t-46.5 -19.5q-29 0 -49 21t-20 54q0 59 62 103.5t154 44.5q98 0 154.5 -46t56.5 -113q0 -54 -46 -99t-137 -61v-3q93 -4 145.5 -47.5t52.5 -107.5q0 -80 -67 -134.5t-175 -54.5z" />
<glyph unicode="4" horiz-adv-x="566" d="M320 249v289h-4l-210 -289h214zM416 64h98v-64h-294v64h99v119h-289v68l291 394h95v-396h131v-66h-131v-119z" />
<glyph unicode="5" horiz-adv-x="535" d="M171 540l-12 -175q53 42 134 42q97 0 148.5 -57t51.5 -140q0 -42 -14 -81t-42 -72t-75 -53t-107 -20q-81 0 -144 43.5t-63 105.5q0 34 20 57.5t50 23.5q29 0 45 -18.5t16 -45.5q0 -41 -34 -62q37 -45 110 -45q65 0 99 40t34 116q0 148 -124 148q-70 0 -129 -54l-46 12 l22 327l14 13q88 -37 184 -37q88 0 153 36l15 -38q-61 -92 -177 -92q-60 0 -129 26z" />
<glyph unicode="6" horiz-adv-x="554" d="M155 308q65 94 163 94q89 0 138.5 -54t49.5 -139q0 -92 -58 -158.5t-166 -66.5q-106 0 -169 85.5t-63 217.5q0 165 78.5 264t204.5 99q75 0 118 -35.5t43 -86.5q0 -33 -18.5 -54.5t-47.5 -21.5q-27 0 -43 16.5t-16 41.5q0 40 35 59q-26 22 -75 22q-81 0 -129 -71 q-45 -66 -45 -196v-16zM161 193q0 -59 36.5 -104t89.5 -45q114 0 114 158q0 61 -29 100.5t-85 39.5t-91 -41t-35 -108z" />
<glyph unicode="7" horiz-adv-x="523" d="M282 59q-6 -75 -61 -75q-25 0 -41.5 18t-16.5 51q0 77 55 189t142 209q34 40 74 76l-5 6q-53 -30 -108 -30q-42 0 -86 21.5t-59 21.5q-29 0 -43 -28.5t-25 -111.5h-62v229h68l4 -72h5q26 77 88 77q33 0 63 -22t56.5 -44t51.5 -22q10 0 28 3q-14 18 -14 38q0 23 16.5 40 t41.5 17q26 0 42 -18t16 -43t-15 -49t-47 -60q-76 -84 -117 -182.5t-51 -238.5z" />
<glyph unicode="8" horiz-adv-x="541" d="M66 465q0 76 59.5 130.5t153.5 54.5q89 0 145 -47t56 -114q0 -100 -109 -144q128 -49 128 -161q0 -84 -66 -142t-165 -58q-101 0 -160.5 49t-59.5 123q0 46 29 86t90 65q-101 48 -101 158zM234 284q-7 1 -19 5q-73 -34 -73 -118q0 -55 36 -91.5t101 -36.5q59 0 95 34 t36 78q0 50 -38.5 77t-137.5 52zM156 489q0 -52 38 -80t120 -46q1 -1 3 -1q79 38 79 124q0 43 -32 74t-89 31q-56 0 -87.5 -29.5t-31.5 -72.5z" />
<glyph unicode="9" horiz-adv-x="554" d="M399 318q-65 -94 -163 -94q-90 0 -139 54t-49 142q0 95 58 162.5t166 67.5q106 0 169 -85.5t63 -217.5q0 -168 -76 -265.5t-203 -97.5q-81 0 -127 36t-46 90q0 33 18.5 54.5t47.5 21.5q27 0 43 -16.5t16 -41.5q0 -40 -35 -59q32 -26 85 -26q81 0 128 68q44 64 44 191v16z M393 438q0 62 -36.5 107t-89.5 45q-114 0 -114 -163q0 -64 28.5 -103.5t85.5 -39.5q56 0 91 42t35 112z" />
<glyph unicode=":" horiz-adv-x="241" d="M121 -16q-28 0 -47 19t-19 45t19 45t47 19q27 0 46 -19t19 -45t-19 -45t-46 -19zM121 277q-28 0 -47 19t-19 45t19 45t47 19q27 0 46 -19t19 -45t-19 -45t-46 -19z" />
<glyph unicode=";" horiz-adv-x="241" d="M124 277q-28 0 -47 19t-19 45t19 45t47 19q27 0 46 -19t19 -45t-19 -45t-46 -19zM35 -151l-19 34q106 47 118 114l-6 3q-11 -8 -27 -8q-20 0 -34.5 16t-14.5 39q0 27 17.5 46t44.5 19q33 0 53.5 -23t20.5 -59q0 -58 -35.5 -101t-117.5 -80z" />
<glyph unicode="&#x3c;" horiz-adv-x="524" d="M447 61l-370 191v59l370 190v-69l-304 -151l304 -150v-70z" />
<glyph unicode="=" horiz-adv-x="525" d="M54 345v62h417v-62h-417zM54 155v62h417v-62h-417z" />
<glyph unicode="&#x3e;" horiz-adv-x="524" d="M77 501l370 -191v-59l-370 -190v69l304 151l-304 150v70z" />
<glyph unicode="?" horiz-adv-x="453" d="M208 -16q-28 0 -47 19t-19 45t19 45t47 19q27 0 46 -19t19 -45t-19 -45t-46 -19zM173 194q5 103 63 173q8 10 31 35t32.5 37.5t19 36.5t9.5 50q0 46 -28 74.5t-76 28.5q-39 0 -68.5 -15.5t-39.5 -42.5q17 -8 29.5 -26.5t12.5 -37.5q0 -29 -18 -49.5t-48 -20.5 q-31 0 -52.5 22.5t-21.5 55.5q0 66 58.5 117.5t144.5 51.5q101 0 155.5 -51.5t54.5 -121.5q0 -49 -27.5 -89.5t-94.5 -93.5q-55 -43 -72 -134h-64z" />
<glyph unicode="@" horiz-adv-x="906" d="M461 -146q-176 0 -290.5 104.5t-114.5 286.5q0 190 125 314.5t307 124.5q152 0 257 -96t105 -252q0 -127 -66.5 -201t-156.5 -74q-57 0 -87 29q-21 21 -21 53q0 13 3 28h-2q-26 -49 -64 -75.5t-75 -26.5q-56 0 -93 40t-37 112q0 50 21.5 100t56.5 85q71 71 156 71 q37 0 62.5 -21.5t28.5 -60.5l25 77h76l-80 -244q-14 -48 -14 -75q0 -13 3 -21q11 -24 55 -24q59 0 107 64t48 160q0 136 -88.5 222t-224.5 86q-161 0 -267 -114t-106 -281q0 -158 97 -252.5t259 -94.5q140 0 257 86l24 -37q-123 -93 -286 -93zM399 124q43 0 77.5 41t50 91 t15.5 92q0 83 -58 83q-45 0 -80 -40.5t-50.5 -91.5t-15.5 -97q0 -78 61 -78z" />
<glyph unicode="A" horiz-adv-x="672" d="M490 66l-57 165h-238l-60 -165h83v-66h-231v66h71l229 596h101l215 -596h91v-66h-308v66h104zM316 558l-99 -269h196l-93 269h-4z" />
<glyph unicode="B" horiz-adv-x="639" d="M30 0v66h111v526h-111v66h299q246 0 246 -159q0 -48 -39.5 -91t-129.5 -59v-5q97 -7 149 -50.5t52 -105.5q0 -188 -277 -188h-300zM244 375h79q144 0 144 117q0 51 -30.5 75.5t-111.5 24.5h-81v-217zM244 66h78q96 0 135.5 30t39.5 101q0 120 -177 120h-76v-251z" />
<glyph unicode="C" horiz-adv-x="676" d="M351 -16q-139 0 -226 99.5t-87 247.5q0 140 92 241.5t219 101.5q116 0 183 -77l18 74h66v-258h-60q-74 195 -201 195q-89 0 -143 -66.5t-54 -204.5q0 -135 54.5 -209t154.5 -74q85 0 138 59t65 150h71q-13 -130 -92.5 -204.5t-197.5 -74.5z" />
<glyph unicode="D" horiz-adv-x="722" d="M30 0v66h111v526h-111v66h282q180 0 276 -86.5t96 -232.5q0 -147 -92 -243t-271 -96h-291zM244 66h78q128 0 185 62.5t57 210.5q0 132 -60 192.5t-192 60.5h-68v-526z" />
<glyph unicode="E" horiz-adv-x="678" d="M30 0v66h111v526h-111v66h582v-214h-48q-29 96 -48.5 122t-74.5 26h-197v-226h69q55 0 71.5 16t30.5 85h53v-262h-53q-13 71 -29.5 88t-72.5 17h-69v-244h193q63 0 85 29.5t51 138.5h48v-234h-591z" />
<glyph unicode="F" horiz-adv-x="642" d="M30 0v66h111v526h-111v66h569v-219h-48q-32 98 -55.5 125.5t-80.5 27.5h-171v-237h57q56 0 74 17.5t28 84.5h53v-266h-53q-9 70 -27.5 89t-74.5 19h-57v-233h122v-66h-336z" />
<glyph unicode="G" horiz-adv-x="718" d="M533 82q-67 -98 -182 -98q-139 0 -226 99.5t-87 247.5q0 140 92 241.5t219 101.5q116 0 183 -77l18 74h66v-258h-60q-74 195 -201 195q-89 0 -143 -66.5t-54 -204.5q0 -135 54.5 -209t154.5 -74q91 0 134 79q21 39 21 107v25h-121v66h312v-66h-88v-272h-64z" />
<glyph unicode="H" horiz-adv-x="789" d="M30 0v66h111v526h-111v66h309v-66h-95v-222h301v222h-95v66h309v-66h-111v-526h111v-66h-309v66h95v246h-301v-246h95v-66h-309z" />
<glyph unicode="I" horiz-adv-x="405" d="M40 0v66h111v526h-111v66h325v-66h-111v-526h111v-66h-325z" />
<glyph unicode="J" horiz-adv-x="556" d="M230 -16q-90 0 -147 44.5t-57 114.5q0 38 22.5 63.5t54.5 25.5q29 0 50 -20t21 -55q0 -45 -43 -66q30 -43 102 -43q103 0 103 119v425h-110v66h318v-66h-105v-410q0 -93 -55 -145.5t-154 -52.5z" />
<glyph unicode="K" horiz-adv-x="724" d="M244 232v-166h95v-66h-309v66h111v526h-111v66h309v-66h-95v-279l267 279h-86v66h262v-66h-83l-207 -207l236 -319h83v-66h-292v66h84l-179 251z" />
<glyph unicode="L" horiz-adv-x="610" d="M30 658h325v-66h-111v-526h138q22 0 35.5 1.5t27 9t22 18t19.5 32.5t20 48t22 70h48v-245h-546v66h111v526h-111v66z" />
<glyph unicode="M" horiz-adv-x="949" d="M35 0v66h101v526h-101v66h272l167 -487h3l170 487h267v-66h-106v-526h106v-66h-297v66h88v518h-9l-211 -584h-52l-214 584h-9v-518h94v-66h-269z" />
<glyph unicode="N" horiz-adv-x="792" d="M591 -16l-372 541h-9v-459h104v-66h-279v66h101v526h-101v66h218l331 -480h9v414h-104v66h279v-66h-101v-608h-76z" />
<glyph unicode="O" d="M360 -16q-136 0 -229 98t-93 247q0 145 95 245t227 100q136 0 229 -97.5t93 -247.5q0 -146 -95 -245.5t-227 -99.5zM360 50q97 0 149.5 73.5t52.5 205.5t-52.5 205.5t-149.5 73.5t-149.5 -73.5t-52.5 -205.5t52.5 -205.5t149.5 -73.5z" />
<glyph unicode="P" horiz-adv-x="621" d="M30 0v66h111v526h-111v66h288q143 0 210 -53.5t67 -135.5q0 -37 -13 -70t-42 -63t-83.5 -48t-129.5 -18h-83v-204h122v-66h-336zM244 330h76q91 0 124 35.5t33 101.5q0 125 -158 125h-75v-262z" />
<glyph unicode="Q" d="M360 -16q-136 0 -229 98t-93 247q0 145 95 245t227 100q136 0 229 -97.5t93 -247.5q0 -86 -35 -158.5t-95 -119.5q25 -42 44.5 -57.5t42.5 -15.5q25 0 38.5 19t21.5 63h55q-6 -77 -38 -122t-91 -45q-53 0 -89 27t-63 85q-58 -21 -113 -21zM207 129q13 52 52.5 83.5 t95.5 31.5q50 0 86.5 -29.5t70.5 -88.5q50 71 50 203t-52.5 205.5t-149.5 73.5t-149.5 -73.5t-52.5 -205.5q0 -124 49 -200zM360 50q50 0 87 19q-50 110 -113 110q-34 0 -53.5 -20.5t-19.5 -52.5q0 -56 99 -56z" />
<glyph unicode="R" horiz-adv-x="685" d="M244 290v-224h108v-66h-322v66h111v526h-111v66h322q138 0 196.5 -49t58.5 -122q0 -58 -39.5 -101.5t-127.5 -58.5v-9q72 -16 102.5 -50.5t34.5 -90.5l6 -73q4 -45 30 -45q21 0 44 42l44 -21q-35 -91 -112 -91q-50 0 -83 27.5t-34 90.5l-2 80q-2 56 -23.5 79.5 t-88.5 23.5h-114zM244 350h106q77 0 108 32.5t31 96.5q0 57 -29 85t-98 28h-118v-242z" />
<glyph unicode="S" horiz-adv-x="585" d="M53 -13v238h60q56 -103 100 -141t112 -38q59 0 92 28.5t33 80.5q0 20 -5.5 35.5t-21 28.5t-26 21t-38 17.5t-39.5 12.5l-45 14q-39 11 -62.5 19t-56 24.5t-50.5 35.5t-31 50t-13 70q0 77 58 134t149 57q45 0 90 -18.5t72 -51.5l21 67h66v-228h-60q-44 94 -89.5 131.5 t-104.5 37.5q-48 0 -76 -27.5t-28 -72.5q0 -31 13.5 -53t40 -36.5t53 -23t64.5 -18.5q6 -1 9 -2q38 -9 61.5 -16.5t54.5 -22.5t48.5 -33.5t30.5 -48.5t13 -68q0 -87 -63.5 -146.5t-158.5 -59.5q-120 0 -183 72l-24 -69h-66z" />
<glyph unicode="T" horiz-adv-x="677" d="M171 0v66h116v536h-44q-65 0 -91.5 -32t-64.5 -146h-47v234h597v-234h-47q-38 114 -64.5 146t-91.5 32h-44v-536h116v-66h-335z" />
<glyph unicode="U" horiz-adv-x="751" d="M374 -16q-123 0 -190.5 59t-67.5 156v393h-96v66h297v-66h-98v-360q0 -93 46 -134.5t140 -41.5q72 0 119 47q24 24 32.5 58.5t8.5 94.5v336h-103v66h271v-66h-94v-393q0 -90 -71 -152.5t-194 -62.5z" />
<glyph unicode="V" horiz-adv-x="684" d="M300 -4l-222 596h-91v66h309v-66h-104l168 -481h9l179 481h-83v66h231v-66h-71l-232 -596h-93z" />
<glyph unicode="W" horiz-adv-x="992" d="M687 592h-117l127 -474h9l145 474h-83v66h231v-66h-71l-198 -596h-101l-118 425l-146 -425h-100l-187 596h-91v66h310v-66h-106l141 -474h9l138 409l-18 65h-91v66h317v-66z" />
<glyph unicode="X" horiz-adv-x="684" d="M410 592v66h254v-66h-83l-184 -248l191 -278h89v-66h-295v66h88l-144 217l-158 -217h93v-66h-254v66h83l196 264l-181 262h-90v66h295v-66h-85l133 -201l143 201h-91z" />
<glyph unicode="Y" horiz-adv-x="647" d="M349 334l149 258h-84v66h232v-66h-77l-193 -317v-209h101v-66h-303v66h99v208l-181 318h-82v66h289v-66h-90z" />
<glyph unicode="Z" horiz-adv-x="629" d="M42 0v51l413 541h-199q-34 0 -50.5 -3.5t-34.5 -22t-30.5 -51t-32.5 -95.5h-48v238h524v-51l-411 -541h220q22 0 35.5 1.5t27 9t22 18t19.5 32.5t20 48t22 70h48v-245h-545z" />
<glyph unicode="[" horiz-adv-x="343" d="M89 -156v877h265v-62h-171v-753h171v-62h-265z" />
<glyph unicode="\" horiz-adv-x="430" d="M405 -203l-386 907h73l386 -907h-73z" />
<glyph unicode="]" horiz-adv-x="343" d="M254 721v-877h-265v62h171v753h-171v62h265z" />
<glyph unicode="^" horiz-adv-x="333" d="M24 517l123 200h45l115 -200h-51l-90 106l-91 -106h-51z" />
<glyph unicode="_" horiz-adv-x="440" d="M-2 0v66h444v-66h-444z" />
<glyph unicode="`" horiz-adv-x="238" d="M176 533h-50l-66 81q-40 49 -40 74q0 17 12.5 30t29.5 13q21 0 36 -18t30 -56z" />
<glyph unicode="a" horiz-adv-x="491" d="M177 -5q-62 0 -97.5 32.5t-35.5 85.5q0 50 34 84q26 26 64 38.5t106 22.5q48 7 59 11t11 17v47q0 44 -21.5 62.5t-69.5 18.5q-42 0 -77 -19q29 -14 29 -49q0 -24 -15.5 -40t-42.5 -16q-28 0 -44.5 17.5t-16.5 40.5q0 53 54 85t134 32q164 0 164 -139v-232 q0 -18 6.5 -25.5t24.5 -7.5q20 0 36 36l35 -21q-34 -79 -103 -79q-34 0 -58 20.5t-24 59.5h-5q-18 -36 -60 -59t-87 -23zM220 59q36 0 67 27t31 65v79q-10 -4 -45 -10q-76 -12 -101.5 -28t-25.5 -59q0 -34 18.5 -54t55.5 -20z" />
<glyph unicode="b" horiz-adv-x="546" d="M296 54q48 0 76.5 46t28.5 130q0 82 -27.5 127.5t-77.5 45.5q-54 0 -90.5 -52.5t-36.5 -132.5q0 -76 37.5 -120t89.5 -44zM77 -6v621h-73v72h167v-322q25 47 66 74t87 27q74 0 119 -45q62 -62 62 -191q0 -120 -67 -187q-52 -52 -123 -52q-95 0 -152 94l-33 -91h-53z" />
<glyph unicode="c" horiz-adv-x="481" d="M257 -9q-103 0 -162 64.5t-59 166.5q0 106 67.5 175t169.5 69q72 0 124 -41t52 -88q0 -36 -17 -58.5t-48 -22.5q-29 0 -45.5 17.5t-16.5 43.5q0 19 12.5 36.5t26.5 23.5q-25 40 -92 40q-55 0 -92 -48.5t-37 -134.5t36.5 -133t105.5 -47q90 0 125 98h48q-18 -77 -70 -119 t-128 -42z" />
<glyph unicode="d" horiz-adv-x="551" d="M227 -9q-72 0 -121 49q-65 65 -65 182q0 56 18.5 108.5t50.5 84.5q51 51 125 51q91 0 140 -80v229h-76v72h170v-621h67v-66h-159v94q-51 -103 -150 -103zM260 54q48 0 82.5 48t34.5 128q0 74 -30 123.5t-87 49.5q-55 0 -85 -45.5t-30 -127.5t33 -129t82 -47z" />
<glyph unicode="e" horiz-adv-x="490" d="M456 223h-316q4 -169 140 -169q87 0 126 85h48q-19 -73 -70.5 -110.5t-128.5 -37.5q-102 0 -160.5 65.5t-58.5 167.5q0 103 64 172.5t161 69.5t147 -72q48 -69 48 -163v-8zM254 413q-102 0 -113 -143h219q-12 143 -106 143z" />
<glyph unicode="f" horiz-adv-x="341" d="M33 0v66h73v326h-90v61h90v21q0 110 58 164.5t136 54.5q60 0 94.5 -25.5t34.5 -64.5q0 -25 -16 -43.5t-39 -18.5q-28 0 -44.5 15.5t-16.5 46.5q0 17 8 33q-13 8 -35 8q-42 0 -64 -36.5t-22 -128.5v-26h132v-61h-132v-326h104v-66h-271z" />
<glyph unicode="g" horiz-adv-x="477" d="M423 321q0 -71 -52 -110.5t-134 -39.5q-11 0 -31 1.5t-29 1.5q-22 0 -35 -12t-13 -28q0 -40 67 -40h121q75 0 110.5 -30t35.5 -81q0 -64 -61.5 -107t-176.5 -43q-91 0 -146.5 29t-55.5 74q0 32 27 58t69 31v5q-73 24 -73 81q0 26 25 50.5t61 31.5q-82 39 -82 123 q0 70 52.5 110t134.5 40q37 0 72 -11q52 89 128 89q29 0 47 -16t18 -41q0 -21 -13.5 -35.5t-32.5 -14.5q-20 0 -31.5 11t-11.5 30q0 7 1 11h-4q-12 0 -28 -13q-20 -15 -33 -38q74 -43 74 -117zM240 217q85 0 85 102q0 45 -24.5 73t-67.5 28q-86 0 -86 -102q0 -101 93 -101z M231 -116q67 0 108.5 20.5t41.5 54.5q0 54 -70 54h-112q-88 0 -88 -62q0 -67 120 -67z" />
<glyph unicode="h" horiz-adv-x="570" d="M23 0v66h73v549h-73v72h167v-343q38 64 79 92t91 28q55 0 88.5 -38t33.5 -105v-255h73v-66h-234v66h67v221q0 55 -25 80q-20 20 -54 20q-45 0 -82 -41t-37 -106v-174h67v-66h-234z" />
<glyph unicode="i" horiz-adv-x="316" d="M164 554q-29 0 -47 17.5t-18 47.5t18 49t47 19t47 -18t18 -48t-18 -48.5t-47 -18.5zM40 0v66h83v326h-83v66h177v-392h83v-66h-260z" />
<glyph unicode="j" horiz-adv-x="291" d="M162 554q-29 0 -47 17.5t-18 47.5t18 49t47 19t47 -18t18 -48t-18 -48.5t-47 -18.5zM50 -167q-49 0 -80 21.5t-31 57.5q0 26 18 46.5t44 20.5q27 0 43 -17t16 -40q0 -17 -8 -33q8 -3 17 -3q52 0 52 88v418h-83v66h177v-430q0 -92 -40.5 -143.5t-124.5 -51.5z" />
<glyph unicode="k" horiz-adv-x="541" d="M436 392l-121 -121l158 -205h54v-66h-217v66h57l-112 150l-65 -65v-85h57v-66h-224v66h73v549h-73v72h167v-468l166 173h-75v66h224v-66h-69z" />
<glyph unicode="l" horiz-adv-x="298" d="M19 0v66h83v549h-83v72h177v-621h83v-66h-260z" />
<glyph unicode="m" horiz-adv-x="856" d="M483 347q75 117 168 117q55 0 86 -38t31 -105v-255h73v-66h-229v66h62v221q0 58 -24 82q-18 18 -50 18q-41 0 -78 -41t-37 -106v-174h62v-66h-218v66h62v221q0 58 -24 82q-18 18 -50 18q-42 0 -78.5 -41t-36.5 -106v-174h62v-66h-229v66h73v326h-73v66h165v-116 q74 122 168 122q106 0 115 -117z" />
<glyph unicode="n" horiz-adv-x="582" d="M35 0v66h73v326h-73v66h165v-116q74 122 172 122q55 0 88.5 -38t33.5 -105v-255h73v-66h-234v66h67v221q0 55 -25 80q-20 20 -54 20q-45 0 -82 -41t-37 -106v-174h67v-66h-234z" />
<glyph unicode="o" horiz-adv-x="529" d="M265 -9q-106 0 -167.5 65t-61.5 171q0 105 63.5 172t165.5 67q105 0 166.5 -65t61.5 -170q0 -106 -63.5 -173t-164.5 -67zM269 45q120 0 120 184q0 183 -129 183q-120 0 -120 -183q0 -92 33.5 -138t95.5 -46z" />
<glyph unicode="p" horiz-adv-x="557" d="M301 63q53 0 82 45.5t29 132.5q0 80 -29.5 121t-78.5 41q-46 0 -83 -51t-37 -127q0 -71 30.5 -116.5t86.5 -45.5zM19 -154v66h73v480h-73v66h165v-105q47 113 154 113q69 0 117 -48q61 -61 61 -182q0 -119 -67 -186q-50 -50 -116 -50q-98 0 -147 86v-174h96v-66h-263z " />
<glyph unicode="q" horiz-adv-x="538" d="M260 403q-55 0 -85 -45.5t-30 -127.5q0 -85 31 -126t84 -41q47 0 81.5 47t34.5 123q0 75 -32 122.5t-84 47.5zM374 96q-21 -46 -59.5 -71t-85.5 -25q-76 0 -127 51q-61 61 -61 179q0 51 18.5 101t49.5 81q54 54 123 54q93 0 150 -94l33 89h53v-549h73v-66h-263v66h96v184 z" />
<glyph unicode="r" horiz-adv-x="422" d="M35 0v66h73v326h-73v66h165v-106q16 54 54.5 83t80.5 29q37 0 58.5 -22.5t21.5 -55.5q0 -27 -17.5 -46t-42.5 -19q-27 0 -45 15.5t-18 43.5q0 5 2 17h-2q-31 0 -54 -29q-23 -31 -36 -80v-222h87v-66h-254z" />
<glyph unicode="s" horiz-adv-x="442" d="M45 -9v173h61q19 -55 59 -89.5t87 -34.5q39 0 58 17.5t19 46.5t-26 47t-95 37q-84 24 -119.5 56t-35.5 86q0 57 44.5 96.5t113.5 39.5q78 0 111 -53l10 53h59v-157h-60q-26 56 -52.5 82t-69.5 26q-28 0 -49.5 -15.5t-21.5 -42.5q0 -29 27 -47.5t90 -35.5 q83 -23 119.5 -54t36.5 -87t-45.5 -100t-118.5 -44q-85 0 -133 60l-11 -60h-58z" />
<glyph unicode="t" horiz-adv-x="362" d="M96 567l94 10v-124h150v-61h-150v-270q0 -35 12 -51t43 -16q40 0 70 79l45 -19q-37 -124 -143 -124q-59 0 -90 32.5t-31 89.5v279h-90v61h90v114z" />
<glyph unicode="u" horiz-adv-x="565" d="M211 -6q-55 0 -87 38t-32 105v255h-73v66h167v-287q0 -57 24 -81q19 -19 52 -19q45 0 82 41t37 106v174h-76v66h170v-392h73v-66h-165v116q-74 -122 -172 -122z" />
<glyph unicode="v" horiz-adv-x="513" d="M213 -6l-149 398h-64v66h242v-66h-78l108 -307h4l109 307h-65v66h193v-66h-58l-154 -398h-88z" />
<glyph unicode="w" horiz-adv-x="767" d="M519 392h-84l103 -310h4l97 310h-65v66h193v-66h-58l-138 -398h-92l-88 257l-104 -257h-88l-135 398h-64v66h235v-66h-75l98 -310h4l101 252l-20 58h-62v66h238v-66z" />
<glyph unicode="x" horiz-adv-x="505" d="M241 394h-71l95 -122l105 122h-66v64h187v-66h-49l-140 -155l137 -171h52v-66h-222v64h70l-95 123l-108 -123h64v-64h-186v66h52l141 156l-140 170h-53v66h227v-64z" />
<glyph unicode="y" horiz-adv-x="506" d="M74 -23q26 0 42.5 -17.5t16.5 -40.5q0 -17 -7 -31q31 7 52 30.5t44 83.5l-158 390h-64v66h242v-66h-78l107 -288l113 288h-64v66h193v-66h-59l-159 -381q-42 -101 -87 -139.5t-101 -38.5q-44 0 -70 21.5t-26 57.5q0 26 18.5 45.5t44.5 19.5z" />
<glyph unicode="z" horiz-adv-x="465" d="M39 0v53l285 351h-114q-52 0 -70.5 -19.5t-41.5 -93.5h-46v167h382v-53l-286 -351h137q50 0 67.5 21.5t37.5 102.5h46v-178h-397z" />
<glyph unicode="{" horiz-adv-x="388" d="M16 312h30q137 0 137 86q0 26 -8 71.5t-8 67.5q0 85 59 132.5t169 51.5v-60q-80 -6 -105 -33.5t-25 -87.5q0 -3 2 -39.5t2 -58.5q0 -76 -35 -113t-121 -44v-5q86 -7 121 -44t35 -113q0 -22 -2 -58.5t-2 -39.5q0 -60 25 -87.5t105 -33.5v-60q-110 4 -169 51.5t-59 132.5 q0 22 8 67.5t8 71.5q0 86 -137 86h-30v59z" />
<glyph unicode="|" horiz-adv-x="289" d="M113 -203v907h64v-907h-64z" />
<glyph unicode="}" horiz-adv-x="388" d="M372 253h-30q-137 0 -137 -86q0 -26 8 -71.5t8 -67.5q0 -85 -59 -132.5t-169 -51.5v60q80 6 105 33.5t25 87.5q0 3 -2 39.5t-2 58.5q0 76 35 113t121 44v5q-86 7 -121 44t-35 113q0 22 2 58.5t2 39.5q0 60 -25 87.5t-105 33.5v60q110 -4 169 -51.5t59 -132.5 q0 -22 -8 -67.5t-8 -71.5q0 -86 137 -86h30v-59z" />
<glyph unicode="~" horiz-adv-x="371" d="M35 249q9 68 31 96t67 28q29 0 71.5 -24t52.5 -24q25 0 35 57h48q-9 -68 -31 -96t-67 -28q-29 0 -71.5 24t-52.5 24q-25 0 -35 -57h-48z" />
<glyph unicode="&#xa1;" horiz-adv-x="279" d="M139 -16q-28 0 -44.5 18.5t-16.5 54.5q0 44 12 150q20 173 26 281h47q6 -108 26 -281q12 -106 12 -150q0 -73 -62 -73zM139 684q28 0 47 -19t19 -45t-19 -45t-47 -19q-27 0 -46 19t-19 45t19 45t46 19z" />
<glyph unicode="&#xa2;" horiz-adv-x="521" d="M287 -101l-57 4l7 92q-87 14 -134 75.5t-47 151.5q0 100 62 167.5t161 75.5l8 83l57 -4l-7 -81q65 -9 109.5 -47.5t44.5 -82.5q0 -34 -17.5 -53.5t-47.5 -19.5q-29 0 -45.5 17.5t-16.5 43.5q0 19 12.5 36.5t26.5 23.5q-17 26 -71 34l-33 -361h11q44 0 80 25t53 73h48 q-18 -75 -70 -117t-126 -44zM160 234q0 -133 84 -168l32 349q-53 -9 -84.5 -56t-31.5 -125z" />
<glyph unicode="&#xa3;" horiz-adv-x="611" d="M478 282h-171q2 -14 2 -21q0 -49 -31 -103q36 -10 90 -42t81 -32q34 0 52.5 20.5t28.5 80.5l51 -3q-5 -103 -37.5 -150t-102.5 -47q-33 0 -65 16t-72 44t-60 39q-18 -51 -54.5 -75.5t-76.5 -24.5q-37 0 -60 20.5t-23 52.5q0 46 45.5 79.5t131.5 33.5q9 0 15 -1q6 25 6 44 q0 29 -18 69h-152v63h119q-21 45 -21 92q0 94 63.5 153.5t156.5 59.5q77 0 127 -39.5t50 -91.5q0 -36 -21.5 -57.5t-50.5 -21.5q-31 0 -50 18.5t-19 48.5t26 54q-8 11 -28.5 19.5t-42.5 8.5q-51 0 -81 -28.5t-30 -77.5q0 -14 2 -28t6.5 -30t7.5 -25.5t10.5 -28.5t9.5 -26 h186v-63zM125 39q18 0 36.5 17t27.5 47q-20 5 -34 5q-29 0 -44 -13t-15 -30q0 -11 7.5 -18.5t21.5 -7.5z" />
<glyph unicode="&#xa5;" horiz-adv-x="658" d="M90 318h159l-141 250h-81v66h283v-66h-91l129 -246l136 246h-81v66h229v-66h-75l-150 -250h160v-57h-190v-69h190v-57h-190v-69h119v-66h-336v66h121v69h-191v57h191v69h-191v57z" />
<glyph unicode="&#xa7;" horiz-adv-x="525" d="M256 -118q-74 0 -131.5 36t-57.5 89q0 29 17 49.5t46 20.5q27 0 43 -17t16 -42q0 -33 -28 -51q33 -29 103 -29q101 0 101 65q0 31 -23 53.5t-101 49.5q-95 32 -130.5 64.5t-35.5 87.5q0 43 31 74.5t84 48.5v7q-99 43 -99 115q0 65 55 106.5t138 41.5q71 0 117 -35.5 t46 -79.5q0 -29 -15.5 -46t-40.5 -17q-26 0 -41.5 16.5t-15.5 38.5q0 26 22 45q-32 22 -77 22q-50 0 -76 -18.5t-26 -44.5q0 -29 26.5 -50.5t111.5 -52.5q82 -30 116 -62.5t34 -88.5q0 -36 -27 -70t-75 -53v-6q88 -37 88 -110q0 -64 -47 -110.5t-148 -46.5zM297 179 q84 19 84 76q0 28 -22 51t-85 46l-24 8q-87 -20 -87 -83q0 -28 25.5 -49t93.5 -44z" />
<glyph unicode="&#xa8;" horiz-adv-x="322" d="M252 556q-25 0 -42 17.5t-17 43.5t17 44t42 18t42 -18t17 -44t-17 -43.5t-42 -17.5zM70 556q-25 0 -42 17.5t-17 43.5t17 44t42 18t42 -18t17 -44t-17 -43.5t-42 -17.5z" />
<glyph unicode="&#xa9;" horiz-adv-x="787" d="M393 -32q-153 0 -257 104t-104 258q0 152 104.5 256t256.5 104q153 0 257.5 -104t104.5 -256q0 -154 -104.5 -258t-257.5 -104zM393 6q135 0 227 93.5t92 230.5q0 135 -92 228.5t-227 93.5q-134 0 -226 -93.5t-92 -228.5q0 -137 92 -230.5t226 -93.5zM397 141 q-78 0 -129.5 56.5t-51.5 138.5q0 77 55 132.5t127 55.5q60 0 98 -43l10 42h42v-140h-39q-40 99 -108 99q-48 0 -77.5 -35t-29.5 -108q0 -153 112 -153q93 0 107 112h45q-7 -73 -51 -115t-110 -42z" />
<glyph unicode="&#xaa;" horiz-adv-x="410" d="M148 316q-44 0 -70.5 23.5t-26.5 60.5q0 46 41 74q30 21 118 33q24 4 31.5 7.5t7.5 11.5v30q0 32 -15 43.5t-50 11.5q-33 0 -56 -11q20 -10 20 -35q0 -17 -11 -28.5t-30 -11.5q-20 0 -32 12t-12 29q0 38 39.5 62t96.5 24t89.5 -25t32.5 -75v-163q0 -26 22 -26q15 0 27 27 l29 -16q-24 -57 -79 -57q-25 0 -44 14.5t-19 42.5h-4q-13 -26 -43 -42t-62 -16zM179 365q25 0 47.5 19.5t22.5 46.5v50q-6 -3 -32 -7q-56 -9 -72 -19t-16 -41q0 -49 50 -49z" />
<glyph unicode="&#xab;" horiz-adv-x="500" d="M337 226l117 -172l-35 -24l-152 154q-27 27 -27 40t27 40l152 154l35 -24zM137 226l117 -172l-35 -24l-152 154q-27 27 -27 40t27 40l152 154l35 -24z" />
<glyph unicode="&#xad;" horiz-adv-x="366" d="M55 211v77h256v-77h-256z" />
<glyph unicode="&#xae;" horiz-adv-x="517" d="M258 248q-94 0 -157.5 63.5t-63.5 158.5t63.5 157.5t157.5 62.5q95 0 158.5 -62.5t63.5 -157.5t-63.5 -158.5t-158.5 -63.5zM258 278q85 0 136 53t51 139q0 85 -51 137.5t-136 52.5q-84 0 -135 -52.5t-51 -137.5q0 -86 51 -139t135 -53zM231 458v-74h35v-25h-115v25h36 v177h-36v26h118q47 0 68 -17.5t21 -42.5q0 -20 -15 -35.5t-48 -19.5v-3q47 -7 52 -49l2 -21q1 -17 10 -17t15 17l17 -7q-12 -38 -43 -38q-46 0 -46 47v22q0 19 -7.5 27t-28.5 8h-35zM231 482h34q44 0 44 42q0 37 -41 37h-37v-79z" />
<glyph unicode="&#xaf;" horiz-adv-x="321" d="M35 550v75h251v-75h-251z" />
<glyph unicode="&#xb0;" horiz-adv-x="402" d="M202 353q-76 0 -121 45t-45 114q0 68 47 115t119 47q74 0 119 -45t45 -114t-46 -115.5t-118 -46.5zM204 410q39 0 62 27t23 77q0 49 -25 76t-66 27q-39 0 -61.5 -26.5t-22.5 -76.5t25 -77t65 -27z" />
<glyph unicode="&#xb1;" horiz-adv-x="538" d="M240 159v163h-158v55h158v160h60v-160h157v-55h-157v-163h-60zM456 25h-374v57h374v-57z" />
<glyph unicode="&#xb2;" horiz-adv-x="569" d="M50 57q0 104 184 214q68 41 98.5 64.5t47.5 55t17 77.5q0 55 -32.5 88t-89.5 33q-87 0 -121 -61q50 -18 50 -66q0 -30 -18.5 -50t-49.5 -20q-32 0 -52.5 23t-20.5 57q0 71 65 124.5t161 53.5q101 0 158 -55.5t57 -133.5q0 -70 -47.5 -119.5t-149.5 -98.5 q-78 -38 -113 -67.5t-55 -65.5l2 -4q39 24 89 24q39 0 95.5 -26t72.5 -26q31 0 48 26t34 94l50 -5q-22 -209 -148 -209q-39 0 -76 22t-69 44t-58 22q-3 0 -7 -0.5t-8 -1.5h-3q9 -13 9 -30q0 -23 -16 -39.5t-40 -16.5q-29 0 -46.5 20.5t-17.5 52.5z" />
<glyph unicode="&#xb3;" horiz-adv-x="546" d="M255 -16q-92 0 -154 41t-62 102q0 31 21 53.5t53 22.5q28 0 45 -19t17 -46q0 -32 -30 -58q36 -36 111 -36q68 0 100 33.5t32 91.5q0 61 -40 94.5t-136 33.5h-28v59h23q92 0 129 34t37 94q0 51 -29.5 78.5t-81.5 27.5q-75 0 -115 -38q40 -18 40 -60q0 -26 -16.5 -45.5 t-46.5 -19.5q-29 0 -49 21t-20 54q0 59 62 103.5t154 44.5q98 0 154.5 -46t56.5 -113q0 -54 -46 -99t-137 -61v-3q93 -4 145.5 -47.5t52.5 -107.5q0 -80 -67 -134.5t-175 -54.5z" />
<glyph unicode="&#xb4;" horiz-adv-x="238" d="M49 533l48 124q15 39 30 56.5t36 17.5q17 0 29.5 -13t12.5 -30q0 -25 -40 -74l-66 -81h-50z" />
<glyph unicode="&#xb6;" horiz-adv-x="652" d="M312 -104v273q-116 1 -189.5 60t-73.5 162q0 101 74 161.5t210 60.5h286v-66h-96v-651h-69v651h-73v-651h-69z" />
<glyph unicode="&#xb7;" horiz-adv-x="231" d="M116 254q-28 0 -47 19t-19 45t19 45t47 19q27 0 46 -19t19 -45t-19 -45t-46 -19z" />
<glyph unicode="&#xb8;" horiz-adv-x="282" d="M112 -243q-58 0 -105 32l22 36q33 -21 70 -21q55 0 55 37q0 19 -19.5 31t-50.5 12q-18 0 -34 -4l-16 22l98 103h57l-69 -70l1 -4q48 -4 74.5 -26.5t26.5 -54.5q0 -43 -30.5 -68t-79.5 -25z" />
<glyph unicode="&#xb9;" horiz-adv-x="474" d="M65 0v66h143v446q-32 -14 -79 -14q-42 0 -69 10v54h13q48 0 93 18q50 22 71 61h70v-575h143v-66h-385z" />
<glyph unicode="&#xba;" horiz-adv-x="421" d="M211 312q-77 0 -122 46.5t-45 122.5q0 75 47 123t120 48q75 0 120.5 -46.5t45.5 -121.5t-46.5 -123.5t-119.5 -48.5zM214 355q85 0 85 128q0 63 -24 95t-68 32q-86 0 -86 -127q0 -63 24.5 -95.5t68.5 -32.5z" />
<glyph unicode="&#xbb;" horiz-adv-x="500" d="M163 222l-117 172l35 24l152 -154q27 -27 27 -40t-27 -40l-152 -154l-35 24zM363 222l-117 172l35 24l152 -154q27 -27 27 -40t-27 -40l-152 -154l-35 24z" />
<glyph unicode="&#xbf;" horiz-adv-x="441" d="M280 474q-5 -103 -63 -173q-8 -10 -31 -35t-32.5 -37.5t-19 -36.5t-9.5 -50q0 -46 28 -74.5t76 -28.5q39 0 68.5 15.5t39.5 42.5q-17 8 -29.5 26.5t-12.5 37.5q0 29 18 49.5t48 20.5q31 0 52.5 -22.5t21.5 -55.5q0 -66 -58.5 -117.5t-144.5 -51.5q-101 0 -155.5 51.5 t-54.5 121.5q0 49 27.5 89.5t94.5 93.5q55 43 72 134h64zM245 684q28 0 47 -19t19 -45t-19 -45t-47 -19q-27 0 -46 19t-19 45t19 45t46 19z" />
<glyph unicode="&#xc0;" horiz-adv-x="672" d="M371 741h-50l-66 81q-40 49 -40 74q0 17 12.5 30t29.5 13q21 0 36 -18t30 -56zM490 66l-57 165h-238l-60 -165h83v-66h-231v66h71l229 596h101l215 -596h91v-66h-308v66h104zM316 558l-99 -269h196l-93 269h-4z" />
<glyph unicode="&#xc1;" horiz-adv-x="672" d="M309 741l48 124q15 39 30 56.5t36 17.5q17 0 29.5 -13t12.5 -30q0 -25 -40 -74l-66 -81h-50zM490 66l-57 165h-238l-60 -165h83v-66h-231v66h71l229 596h101l215 -596h91v-66h-308v66h104zM316 558l-99 -269h196l-93 269h-4z" />
<glyph unicode="&#xc2;" horiz-adv-x="672" d="M208 742l111 183h41l111 -183h-49l-83 93l-82 -93h-49zM490 66l-57 165h-238l-60 -165h83v-66h-231v66h71l229 596h101l215 -596h91v-66h-308v66h104zM316 558l-99 -269h196l-93 269h-4z" />
<glyph unicode="&#xc3;" horiz-adv-x="672" d="M188 745q9 68 31 96t67 28q29 0 71.5 -24t52.5 -24q25 0 35 57h48q-9 -68 -31 -96t-67 -28q-29 0 -71.5 24t-52.5 24q-25 0 -35 -57h-48zM490 66l-57 165h-238l-60 -165h83v-66h-231v66h71l229 596h101l215 -596h91v-66h-308v66h104zM316 558l-99 -269h196l-93 269h-4z " />
<glyph unicode="&#xc4;" horiz-adv-x="672" d="M431 764q-25 0 -42 17.5t-17 43.5t17 44t42 18t42 -18t17 -44t-17 -43.5t-42 -17.5zM249 764q-25 0 -42 17.5t-17 43.5t17 44t42 18t42 -18t17 -44t-17 -43.5t-42 -17.5zM490 66l-57 165h-238l-60 -165h83v-66h-231v66h71l229 596h101l215 -596h91v-66h-308v66h104z M316 558l-99 -269h196l-93 269h-4z" />
<glyph unicode="&#xc5;" horiz-adv-x="672" d="M337 688q25 0 40.5 20.5t15.5 46.5q0 31 -14.5 49t-41.5 18q-26 0 -41 -18t-15 -49q0 -26 15.5 -46.5t40.5 -20.5zM413 289l-93 269h-4l-99 -269h196zM196 231l-61 -165h83v-66h-231v66h71l229 597q-55 24 -55 92q0 44 27.5 73t77.5 29t77.5 -29.5t27.5 -72.5 q0 -67 -55 -92l216 -597h91v-66h-308v66h104l-57 165h-237z" />
<glyph unicode="&#xc6;" horiz-adv-x="989" d="M452 299v294h-9l-176 -294h185zM232 241l-104 -175h89v-66h-250v66h81l318 526h-99v66h656v-214h-48q-29 96 -48.5 122t-74.5 26h-197v-226h69q55 0 71.5 16t30.5 85h53v-262h-53q-13 71 -29.5 88t-72.5 17h-69v-244h193q63 0 85 29.5t51 138.5h48v-234h-591v66h111v175 h-220z" />
<glyph unicode="&#xc7;" horiz-adv-x="676" d="M340 -243q-58 0 -105 32l22 36q33 -21 70 -21q55 0 55 37q0 19 -19.5 31t-50.5 12q-18 0 -34 -4l-16 22l78 83q-134 4 -218 102.5t-84 243.5q0 140 92 241.5t219 101.5q116 0 183 -77l18 74h66v-258h-60q-74 195 -201 195q-89 0 -143 -66.5t-54 -204.5q0 -135 54.5 -209 t154.5 -74q85 0 138 59t65 150h71q-11 -116 -76.5 -188t-164.5 -87l-52 -53l1 -4q48 -4 74.5 -26.5t26.5 -54.5q0 -43 -30.5 -68t-79.5 -25z" />
<glyph unicode="&#xc8;" horiz-adv-x="678" d="M396 741h-50l-66 81q-40 49 -40 74q0 17 12.5 30t29.5 13q21 0 36 -18t30 -56zM30 0v66h111v526h-111v66h582v-214h-48q-29 96 -48.5 122t-74.5 26h-197v-226h69q55 0 71.5 16t30.5 85h53v-262h-53q-13 71 -29.5 88t-72.5 17h-69v-244h193q63 0 85 29.5t51 138.5h48v-234 h-591z" />
<glyph unicode="&#xc9;" horiz-adv-x="678" d="M334 741l48 124q15 39 30 56.5t36 17.5q17 0 29.5 -13t12.5 -30q0 -25 -40 -74l-66 -81h-50zM30 0v66h111v526h-111v66h582v-214h-48q-29 96 -48.5 122t-74.5 26h-197v-226h69q55 0 71.5 16t30.5 85h53v-262h-53q-13 71 -29.5 88t-72.5 17h-69v-244h193q63 0 85 29.5 t51 138.5h48v-234h-591z" />
<glyph unicode="&#xca;" horiz-adv-x="678" d="M233 742l111 183h41l111 -183h-49l-83 93l-82 -93h-49zM30 0v66h111v526h-111v66h582v-214h-48q-29 96 -48.5 122t-74.5 26h-197v-226h69q55 0 71.5 16t30.5 85h53v-262h-53q-13 71 -29.5 88t-72.5 17h-69v-244h193q63 0 85 29.5t51 138.5h48v-234h-591z" />
<glyph unicode="&#xcb;" horiz-adv-x="678" d="M456 764q-25 0 -42 17.5t-17 43.5t17 44t42 18t42 -18t17 -44t-17 -43.5t-42 -17.5zM274 764q-25 0 -42 17.5t-17 43.5t17 44t42 18t42 -18t17 -44t-17 -43.5t-42 -17.5zM30 0v66h111v526h-111v66h582v-214h-48q-29 96 -48.5 122t-74.5 26h-197v-226h69q55 0 71.5 16 t30.5 85h53v-262h-53q-13 71 -29.5 88t-72.5 17h-69v-244h193q63 0 85 29.5t51 138.5h48v-234h-591z" />
<glyph unicode="&#xcc;" horiz-adv-x="405" d="M233 741h-50l-66 81q-40 49 -40 74q0 17 12.5 30t29.5 13q21 0 36 -18t30 -56zM40 0v66h111v526h-111v66h325v-66h-111v-526h111v-66h-325z" />
<glyph unicode="&#xcd;" horiz-adv-x="405" d="M171 741l48 124q15 39 30 56.5t36 17.5q17 0 29.5 -13t12.5 -30q0 -25 -40 -74l-66 -81h-50zM40 0v66h111v526h-111v66h325v-66h-111v-526h111v-66h-325z" />
<glyph unicode="&#xce;" horiz-adv-x="405" d="M70 742l111 183h41l111 -183h-49l-83 93l-82 -93h-49zM40 0v66h111v526h-111v66h325v-66h-111v-526h111v-66h-325z" />
<glyph unicode="&#xcf;" horiz-adv-x="405" d="M293 764q-25 0 -42 17.5t-17 43.5t17 44t42 18t42 -18t17 -44t-17 -43.5t-42 -17.5zM111 764q-25 0 -42 17.5t-17 43.5t17 44t42 18t42 -18t17 -44t-17 -43.5t-42 -17.5zM40 0v66h111v526h-111v66h325v-66h-111v-526h111v-66h-325z" />
<glyph unicode="&#xd0;" horiz-adv-x="722" d="M30 0v66h111v244h-111v66h111v216h-111v66h282q180 0 276 -86.5t96 -232.5q0 -147 -92 -243t-271 -96h-291zM244 66h78q128 0 185 62.5t57 210.5q0 132 -60 192.5t-192 60.5h-68v-216h136v-66h-136v-244z" />
<glyph unicode="&#xd1;" horiz-adv-x="792" d="M243 745q9 68 31 96t67 28q29 0 71.5 -24t52.5 -24q25 0 35 57h48q-9 -68 -31 -96t-67 -28q-29 0 -71.5 24t-52.5 24q-25 0 -35 -57h-48zM591 -16l-372 541h-9v-459h104v-66h-279v66h101v526h-101v66h218l331 -480h9v414h-104v66h279v-66h-101v-608h-76z" />
<glyph unicode="&#xd2;" d="M391 741h-50l-66 81q-40 49 -40 74q0 17 12.5 30t29.5 13q21 0 36 -18t30 -56zM360 -16q-136 0 -229 98t-93 247q0 145 95 245t227 100q136 0 229 -97.5t93 -247.5q0 -146 -95 -245.5t-227 -99.5zM360 50q97 0 149.5 73.5t52.5 205.5t-52.5 205.5t-149.5 73.5 t-149.5 -73.5t-52.5 -205.5t52.5 -205.5t149.5 -73.5z" />
<glyph unicode="&#xd3;" d="M329 741l48 124q15 39 30 56.5t36 17.5q17 0 29.5 -13t12.5 -30q0 -25 -40 -74l-66 -81h-50zM360 -16q-136 0 -229 98t-93 247q0 145 95 245t227 100q136 0 229 -97.5t93 -247.5q0 -146 -95 -245.5t-227 -99.5zM360 50q97 0 149.5 73.5t52.5 205.5t-52.5 205.5 t-149.5 73.5t-149.5 -73.5t-52.5 -205.5t52.5 -205.5t149.5 -73.5z" />
<glyph unicode="&#xd4;" d="M228 742l111 183h41l111 -183h-49l-83 93l-82 -93h-49zM360 -16q-136 0 -229 98t-93 247q0 145 95 245t227 100q136 0 229 -97.5t93 -247.5q0 -146 -95 -245.5t-227 -99.5zM360 50q97 0 149.5 73.5t52.5 205.5t-52.5 205.5t-149.5 73.5t-149.5 -73.5t-52.5 -205.5 t52.5 -205.5t149.5 -73.5z" />
<glyph unicode="&#xd5;" d="M208 745q9 68 31 96t67 28q29 0 71.5 -24t52.5 -24q25 0 35 57h48q-9 -68 -31 -96t-67 -28q-29 0 -71.5 24t-52.5 24q-25 0 -35 -57h-48zM360 -16q-136 0 -229 98t-93 247q0 145 95 245t227 100q136 0 229 -97.5t93 -247.5q0 -146 -95 -245.5t-227 -99.5zM360 50 q97 0 149.5 73.5t52.5 205.5t-52.5 205.5t-149.5 73.5t-149.5 -73.5t-52.5 -205.5t52.5 -205.5t149.5 -73.5z" />
<glyph unicode="&#xd6;" d="M451 764q-25 0 -42 17.5t-17 43.5t17 44t42 18t42 -18t17 -44t-17 -43.5t-42 -17.5zM269 764q-25 0 -42 17.5t-17 43.5t17 44t42 18t42 -18t17 -44t-17 -43.5t-42 -17.5zM360 -16q-136 0 -229 98t-93 247q0 145 95 245t227 100q136 0 229 -97.5t93 -247.5 q0 -146 -95 -245.5t-227 -99.5zM360 50q97 0 149.5 73.5t52.5 205.5t-52.5 205.5t-149.5 73.5t-149.5 -73.5t-52.5 -205.5t52.5 -205.5t149.5 -73.5z" />
<glyph unicode="&#xd7;" horiz-adv-x="520" d="M303 281l140 -144l-45 -45l-138 144l-138 -144l-45 45l140 144l-140 144l45 45l138 -144l138 144l45 -45z" />
<glyph unicode="&#xd8;" d="M129 -34h-81l85 113q-95 98 -95 250q0 145 95 245t227 100q99 0 179 -55l52 73h81l-86 -113q96 -99 96 -250q0 -146 -95 -245.5t-227 -99.5q-101 0 -179 55zM360 50q97 0 149.5 73.5t52.5 205.5q0 108 -35 176l-297 -405q50 -50 130 -50zM158 329q0 -107 35 -177l296 406 q-50 50 -129 50q-97 0 -149.5 -73.5t-52.5 -205.5z" />
<glyph unicode="&#xd9;" horiz-adv-x="751" d="M418 741h-50l-66 81q-40 49 -40 74q0 17 12.5 30t29.5 13q21 0 36 -18t30 -56zM374 -16q-123 0 -190.5 59t-67.5 156v393h-96v66h297v-66h-98v-360q0 -93 46 -134.5t140 -41.5q72 0 119 47q24 24 32.5 58.5t8.5 94.5v336h-103v66h271v-66h-94v-393q0 -90 -71 -152.5 t-194 -62.5z" />
<glyph unicode="&#xda;" horiz-adv-x="751" d="M356 741l48 124q15 39 30 56.5t36 17.5q17 0 29.5 -13t12.5 -30q0 -25 -40 -74l-66 -81h-50zM374 -16q-123 0 -190.5 59t-67.5 156v393h-96v66h297v-66h-98v-360q0 -93 46 -134.5t140 -41.5q72 0 119 47q24 24 32.5 58.5t8.5 94.5v336h-103v66h271v-66h-94v-393 q0 -90 -71 -152.5t-194 -62.5z" />
<glyph unicode="&#xdb;" horiz-adv-x="751" d="M255 742l111 183h41l111 -183h-49l-83 93l-82 -93h-49zM374 -16q-123 0 -190.5 59t-67.5 156v393h-96v66h297v-66h-98v-360q0 -93 46 -134.5t140 -41.5q72 0 119 47q24 24 32.5 58.5t8.5 94.5v336h-103v66h271v-66h-94v-393q0 -90 -71 -152.5t-194 -62.5z" />
<glyph unicode="&#xdc;" horiz-adv-x="751" d="M478 764q-25 0 -42 17.5t-17 43.5t17 44t42 18t42 -18t17 -44t-17 -43.5t-42 -17.5zM296 764q-25 0 -42 17.5t-17 43.5t17 44t42 18t42 -18t17 -44t-17 -43.5t-42 -17.5zM374 -16q-123 0 -190.5 59t-67.5 156v393h-96v66h297v-66h-98v-360q0 -93 46 -134.5t140 -41.5 q72 0 119 47q24 24 32.5 58.5t8.5 94.5v336h-103v66h271v-66h-94v-393q0 -90 -71 -152.5t-194 -62.5z" />
<glyph unicode="&#xdd;" horiz-adv-x="647" d="M314 741l48 124q15 39 30 56.5t36 17.5q17 0 29.5 -13t12.5 -30q0 -25 -40 -74l-66 -81h-50zM349 334l149 258h-84v66h232v-66h-77l-193 -317v-209h101v-66h-303v66h99v208l-181 318h-82v66h289v-66h-90z" />
<glyph unicode="&#xde;" horiz-adv-x="629" d="M30 0v66h111v526h-111v66h319v-66h-105v-65h74q144 0 210.5 -50t66.5 -131q0 -80 -62.5 -135.5t-205.5 -55.5h-83v-89h105v-66h-319zM244 218h76q92 0 124.5 32t32.5 97q0 117 -158 117h-75v-246z" />
<glyph unicode="&#xdf;" horiz-adv-x="566" d="M399 -9q-60 0 -101 27.5t-41 73.5q0 24 14.5 40.5t39.5 16.5q22 0 35.5 -15.5t13.5 -36.5q0 -24 -19 -40q21 -17 63 -17q30 0 50 19t20 47q0 46 -89 100q-60 36 -82.5 64t-22.5 70q0 43 54 96q35 35 47.5 57.5t12.5 51.5q0 41 -24.5 67.5t-66.5 26.5q-54 0 -78.5 -33.5 t-24.5 -102.5v-503h-167v66h73v326h-90v61h90v12q0 119 59 173.5t144 54.5q76 0 126.5 -41t50.5 -102q0 -39 -19 -66.5t-62 -59.5q-31 -22 -40 -35t-9 -28q0 -17 14 -29t73 -49q53 -33 80.5 -65.5t27.5 -76.5q0 -62 -42 -106t-110 -44z" />
<glyph unicode="&#xe0;" horiz-adv-x="491" d="M177 -5q-62 0 -97.5 32.5t-35.5 85.5q0 50 34 84q26 26 64 38.5t106 22.5q48 7 59 11t11 17v47q0 44 -21.5 62.5t-69.5 18.5q-42 0 -77 -19q29 -14 29 -49q0 -24 -15.5 -40t-42.5 -16q-28 0 -44.5 17.5t-16.5 40.5q0 53 54 85t134 32q164 0 164 -139v-232 q0 -18 6.5 -25.5t24.5 -7.5q20 0 36 36l35 -21q-34 -79 -103 -79q-34 0 -58 20.5t-24 59.5h-5q-18 -36 -60 -59t-87 -23zM220 59q36 0 67 27t31 65v79q-10 -4 -45 -10q-76 -12 -101.5 -28t-25.5 -59q0 -34 18.5 -54t55.5 -20zM281 533h-50l-66 81q-40 49 -40 74 q0 17 12.5 30t29.5 13q21 0 36 -18t30 -56z" />
<glyph unicode="&#xe1;" horiz-adv-x="491" d="M219 533l48 124q15 39 30 56.5t36 17.5q17 0 29.5 -13t12.5 -30q0 -25 -40 -74l-66 -81h-50zM177 -5q-62 0 -97.5 32.5t-35.5 85.5q0 50 34 84q26 26 64 38.5t106 22.5q48 7 59 11t11 17v47q0 44 -21.5 62.5t-69.5 18.5q-42 0 -77 -19q29 -14 29 -49q0 -24 -15.5 -40 t-42.5 -16q-28 0 -44.5 17.5t-16.5 40.5q0 53 54 85t134 32q164 0 164 -139v-232q0 -18 6.5 -25.5t24.5 -7.5q20 0 36 36l35 -21q-34 -79 -103 -79q-34 0 -58 20.5t-24 59.5h-5q-18 -36 -60 -59t-87 -23zM220 59q36 0 67 27t31 65v79q-10 -4 -45 -10q-76 -12 -101.5 -28 t-25.5 -59q0 -34 18.5 -54t55.5 -20z" />
<glyph unicode="&#xe2;" horiz-adv-x="491" d="M118 534l111 183h41l111 -183h-49l-83 93l-82 -93h-49zM177 -5q-62 0 -97.5 32.5t-35.5 85.5q0 50 34 84q26 26 64 38.5t106 22.5q48 7 59 11t11 17v47q0 44 -21.5 62.5t-69.5 18.5q-42 0 -77 -19q29 -14 29 -49q0 -24 -15.5 -40t-42.5 -16q-28 0 -44.5 17.5t-16.5 40.5 q0 53 54 85t134 32q164 0 164 -139v-232q0 -18 6.5 -25.5t24.5 -7.5q20 0 36 36l35 -21q-34 -79 -103 -79q-34 0 -58 20.5t-24 59.5h-5q-18 -36 -60 -59t-87 -23zM220 59q36 0 67 27t31 65v79q-10 -4 -45 -10q-76 -12 -101.5 -28t-25.5 -59q0 -34 18.5 -54t55.5 -20z" />
<glyph unicode="&#xe3;" horiz-adv-x="491" d="M98 537q9 68 31 96t67 28q29 0 71.5 -24t52.5 -24q25 0 35 57h48q-9 -68 -31 -96t-67 -28q-29 0 -71.5 24t-52.5 24q-25 0 -35 -57h-48zM177 -5q-62 0 -97.5 32.5t-35.5 85.5q0 50 34 84q26 26 64 38.5t106 22.5q48 7 59 11t11 17v47q0 44 -21.5 62.5t-69.5 18.5 q-42 0 -77 -19q29 -14 29 -49q0 -24 -15.5 -40t-42.5 -16q-28 0 -44.5 17.5t-16.5 40.5q0 53 54 85t134 32q164 0 164 -139v-232q0 -18 6.5 -25.5t24.5 -7.5q20 0 36 36l35 -21q-34 -79 -103 -79q-34 0 -58 20.5t-24 59.5h-5q-18 -36 -60 -59t-87 -23zM220 59q36 0 67 27 t31 65v79q-10 -4 -45 -10q-76 -12 -101.5 -28t-25.5 -59q0 -34 18.5 -54t55.5 -20z" />
<glyph unicode="&#xe4;" horiz-adv-x="491" d="M341 556q-25 0 -42 17.5t-17 43.5t17 44t42 18t42 -18t17 -44t-17 -43.5t-42 -17.5zM159 556q-25 0 -42 17.5t-17 43.5t17 44t42 18t42 -18t17 -44t-17 -43.5t-42 -17.5zM177 -5q-62 0 -97.5 32.5t-35.5 85.5q0 50 34 84q26 26 64 38.5t106 22.5q48 7 59 11t11 17v47 q0 44 -21.5 62.5t-69.5 18.5q-42 0 -77 -19q29 -14 29 -49q0 -24 -15.5 -40t-42.5 -16q-28 0 -44.5 17.5t-16.5 40.5q0 53 54 85t134 32q164 0 164 -139v-232q0 -18 6.5 -25.5t24.5 -7.5q20 0 36 36l35 -21q-34 -79 -103 -79q-34 0 -58 20.5t-24 59.5h-5q-18 -36 -60 -59 t-87 -23zM220 59q36 0 67 27t31 65v79q-10 -4 -45 -10q-76 -12 -101.5 -28t-25.5 -59q0 -34 18.5 -54t55.5 -20z" />
<glyph unicode="&#xe5;" horiz-adv-x="491" d="M177 -5q-62 0 -97.5 32.5t-35.5 85.5q0 50 34 84q26 26 64 38.5t106 22.5q48 7 59 11t11 17v47q0 44 -21.5 62.5t-69.5 18.5q-42 0 -77 -19q29 -14 29 -49q0 -24 -15.5 -40t-42.5 -16q-28 0 -44.5 17.5t-16.5 40.5q0 53 54 85t134 32q164 0 164 -139v-232 q0 -18 6.5 -25.5t24.5 -7.5q20 0 36 36l35 -21q-34 -79 -103 -79q-34 0 -58 20.5t-24 59.5h-5q-18 -36 -60 -59t-87 -23zM220 59q36 0 67 27t31 65v79q-10 -4 -45 -10q-76 -12 -101.5 -28t-25.5 -59q0 -34 18.5 -54t55.5 -20zM250 527q-50 0 -77.5 29t-27.5 73t27.5 73 t77.5 29t77.5 -29.5t27.5 -72.5t-27.5 -72.5t-77.5 -29.5zM250 562q26 0 41 19t15 48t-15 48t-41 19t-41 -19t-15 -48t15 -48t41 -19z" />
<glyph unicode="&#xe6;" horiz-adv-x="756" d="M722 223h-310q3 -169 136 -169q85 0 124 85h48q-19 -73 -70 -110.5t-127 -37.5q-131 0 -178 106q-29 -51 -76 -76.5t-92 -25.5q-62 0 -97.5 32.5t-35.5 85.5q0 50 34 84q26 26 64 38.5t106 22.5q48 7 59 11t11 17v47q0 44 -21.5 62.5t-69.5 18.5q-42 0 -77 -19 q29 -14 29 -49q0 -24 -15.5 -40t-42.5 -16q-28 0 -44.5 17.5t-16.5 40.5q0 53 54 85t134 32q105 0 137 -64q52 65 144 65q95 0 145 -72q48 -69 48 -163v-8zM522 413q-98 0 -109 -143h213q-12 143 -104 143zM220 59q36 0 67 27t31 65v79q-10 -4 -45 -10q-76 -12 -101.5 -28 t-25.5 -59q0 -34 18.5 -54t55.5 -20z" />
<glyph unicode="&#xe7;" horiz-adv-x="481" d="M242 -243q-58 0 -105 32l22 36q33 -21 70 -21q55 0 55 37q0 19 -19.5 31t-50.5 12q-18 0 -34 -4l-16 22l84 89q-99 3 -155.5 67t-56.5 164q0 106 67.5 175t169.5 69q72 0 124 -41t52 -88q0 -36 -17 -58.5t-48 -22.5q-29 0 -45.5 17.5t-16.5 43.5q0 19 12.5 36.5 t26.5 23.5q-25 40 -92 40q-55 0 -92 -48.5t-37 -134.5t36.5 -133t105.5 -47q90 0 125 98h48q-15 -63 -52 -102t-92 -52l-61 -63l1 -4q48 -4 74.5 -26.5t26.5 -54.5q0 -43 -30.5 -68t-79.5 -25z" />
<glyph unicode="&#xe8;" horiz-adv-x="490" d="M456 223h-316q4 -169 140 -169q87 0 126 85h48q-19 -73 -70.5 -110.5t-128.5 -37.5q-102 0 -160.5 65.5t-58.5 167.5q0 103 64 172.5t161 69.5t147 -72q48 -69 48 -163v-8zM254 413q-102 0 -113 -143h219q-12 143 -106 143zM286 533h-50l-66 81q-40 49 -40 74 q0 17 12.5 30t29.5 13q21 0 36 -18t30 -56z" />
<glyph unicode="&#xe9;" horiz-adv-x="490" d="M224 533l48 124q15 39 30 56.5t36 17.5q17 0 29.5 -13t12.5 -30q0 -25 -40 -74l-66 -81h-50zM456 223h-316q4 -169 140 -169q87 0 126 85h48q-19 -73 -70.5 -110.5t-128.5 -37.5q-102 0 -160.5 65.5t-58.5 167.5q0 103 64 172.5t161 69.5t147 -72q48 -69 48 -163v-8z M254 413q-102 0 -113 -143h219q-12 143 -106 143z" />
<glyph unicode="&#xea;" horiz-adv-x="490" d="M123 534l111 183h41l111 -183h-49l-83 93l-82 -93h-49zM456 223h-316q4 -169 140 -169q87 0 126 85h48q-19 -73 -70.5 -110.5t-128.5 -37.5q-102 0 -160.5 65.5t-58.5 167.5q0 103 64 172.5t161 69.5t147 -72q48 -69 48 -163v-8zM254 413q-102 0 -113 -143h219 q-12 143 -106 143z" />
<glyph unicode="&#xeb;" horiz-adv-x="490" d="M346 556q-25 0 -42 17.5t-17 43.5t17 44t42 18t42 -18t17 -44t-17 -43.5t-42 -17.5zM164 556q-25 0 -42 17.5t-17 43.5t17 44t42 18t42 -18t17 -44t-17 -43.5t-42 -17.5zM456 223h-316q4 -169 140 -169q87 0 126 85h48q-19 -73 -70.5 -110.5t-128.5 -37.5 q-102 0 -160.5 65.5t-58.5 167.5q0 103 64 172.5t161 69.5t147 -72q48 -69 48 -163v-8zM254 413q-102 0 -113 -143h219q-12 143 -106 143z" />
<glyph unicode="&#xec;" horiz-adv-x="316" d="M186 533h-50l-66 81q-40 49 -40 74q0 17 12.5 30t29.5 13q21 0 36 -18t30 -56zM40 0v66h83v326h-83v66h177v-392h83v-66h-260z" />
<glyph unicode="&#xed;" horiz-adv-x="316" d="M124 533l48 124q15 39 30 56.5t36 17.5q17 0 29.5 -13t12.5 -30q0 -25 -40 -74l-66 -81h-50zM40 0v66h83v326h-83v66h177v-392h83v-66h-260z" />
<glyph unicode="&#xee;" horiz-adv-x="316" d="M23 534l111 183h41l111 -183h-49l-83 93l-82 -93h-49zM40 0v66h83v326h-83v66h177v-392h83v-66h-260z" />
<glyph unicode="&#xef;" horiz-adv-x="316" d="M246 556q-25 0 -42 17.5t-17 43.5t17 44t42 18t42 -18t17 -44t-17 -43.5t-42 -17.5zM64 556q-25 0 -42 17.5t-17 43.5t17 44t42 18t42 -18t17 -44t-17 -43.5t-42 -17.5zM40 0v66h83v326h-83v66h177v-392h83v-66h-260z" />
<glyph unicode="&#xf0;" horiz-adv-x="535" d="M454 630l-85 -37q124 -149 124 -298q0 -139 -63.5 -221.5t-177.5 -82.5q-97 0 -156.5 65.5t-59.5 164.5q0 105 62 175t157 70q92 0 131 -82q-12 76 -87 178l-111 -49l-21 49l98 43l-67 74l81 10q36 -36 53 -55l101 45zM269 45q56 0 88 47.5t32 136.5q0 183 -129 183 q-120 0 -120 -183q0 -92 33.5 -138t95.5 -46z" />
<glyph unicode="&#xf1;" horiz-adv-x="582" d="M153 537q9 68 31 96t67 28q29 0 71.5 -24t52.5 -24q25 0 35 57h48q-9 -68 -31 -96t-67 -28q-29 0 -71.5 24t-52.5 24q-25 0 -35 -57h-48zM35 0v66h73v326h-73v66h165v-116q74 122 172 122q55 0 88.5 -38t33.5 -105v-255h73v-66h-234v66h67v221q0 55 -25 80q-20 20 -54 20 q-45 0 -82 -41t-37 -106v-174h67v-66h-234z" />
<glyph unicode="&#xf2;" horiz-adv-x="529" d="M265 -9q-106 0 -167.5 65t-61.5 171q0 105 63.5 172t165.5 67q105 0 166.5 -65t61.5 -170q0 -106 -63.5 -173t-164.5 -67zM269 45q120 0 120 184q0 183 -129 183q-120 0 -120 -183q0 -92 33.5 -138t95.5 -46zM295 533h-50l-66 81q-40 49 -40 74q0 17 12.5 30t29.5 13 q21 0 36 -18t30 -56z" />
<glyph unicode="&#xf3;" horiz-adv-x="529" d="M233 533l48 124q15 39 30 56.5t36 17.5q17 0 29.5 -13t12.5 -30q0 -25 -40 -74l-66 -81h-50zM265 -9q-106 0 -167.5 65t-61.5 171q0 105 63.5 172t165.5 67q105 0 166.5 -65t61.5 -170q0 -106 -63.5 -173t-164.5 -67zM269 45q120 0 120 184q0 183 -129 183 q-120 0 -120 -183q0 -92 33.5 -138t95.5 -46z" />
<glyph unicode="&#xf4;" horiz-adv-x="529" d="M132 534l111 183h41l111 -183h-49l-83 93l-82 -93h-49zM265 -9q-106 0 -167.5 65t-61.5 171q0 105 63.5 172t165.5 67q105 0 166.5 -65t61.5 -170q0 -106 -63.5 -173t-164.5 -67zM269 45q120 0 120 184q0 183 -129 183q-120 0 -120 -183q0 -92 33.5 -138t95.5 -46z" />
<glyph unicode="&#xf5;" horiz-adv-x="529" d="M112 537q9 68 31 96t67 28q29 0 71.5 -24t52.5 -24q25 0 35 57h48q-9 -68 -31 -96t-67 -28q-29 0 -71.5 24t-52.5 24q-25 0 -35 -57h-48zM265 -9q-106 0 -167.5 65t-61.5 171q0 105 63.5 172t165.5 67q105 0 166.5 -65t61.5 -170q0 -106 -63.5 -173t-164.5 -67zM269 45 q120 0 120 184q0 183 -129 183q-120 0 -120 -183q0 -92 33.5 -138t95.5 -46z" />
<glyph unicode="&#xf6;" horiz-adv-x="529" d="M355 556q-25 0 -42 17.5t-17 43.5t17 44t42 18t42 -18t17 -44t-17 -43.5t-42 -17.5zM173 556q-25 0 -42 17.5t-17 43.5t17 44t42 18t42 -18t17 -44t-17 -43.5t-42 -17.5zM265 -9q-106 0 -167.5 65t-61.5 171q0 105 63.5 172t165.5 67q105 0 166.5 -65t61.5 -170 q0 -106 -63.5 -173t-164.5 -67zM269 45q120 0 120 184q0 183 -129 183q-120 0 -120 -183q0 -92 33.5 -138t95.5 -46z" />
<glyph unicode="&#xf7;" horiz-adv-x="520" d="M260 496q26 0 44 -18t18 -44t-18 -44t-44 -18t-44 18t-18 44t18 44t44 18zM475 250h-430v62h430v-62zM260 190q26 0 44 -18t18 -44t-18 -44t-44 -18t-44 18t-18 44t18 44t44 18z" />
<glyph unicode="&#xf8;" horiz-adv-x="529" d="M93 -27h-63l66 84q-60 63 -60 170q0 105 63.5 172t165.5 67q74 0 130 -35l41 53h63l-67 -84q61 -66 61 -169q0 -106 -63.5 -173t-164.5 -67q-78 0 -131 35zM140 229q0 -59 14 -101l195 246q-32 38 -89 38q-120 0 -120 -183zM269 45q120 0 120 184q0 61 -15 100l-194 -247 q33 -37 89 -37z" />
<glyph unicode="&#xf9;" horiz-adv-x="565" d="M211 -6q-55 0 -87 38t-32 105v255h-73v66h167v-287q0 -57 24 -81q19 -19 52 -19q45 0 82 41t37 106v174h-76v66h170v-392h73v-66h-165v116q-74 -122 -172 -122zM306 533h-50l-66 81q-40 49 -40 74q0 17 12.5 30t29.5 13q21 0 36 -18t30 -56z" />
<glyph unicode="&#xfa;" horiz-adv-x="565" d="M244 533l48 124q15 39 30 56.5t36 17.5q17 0 29.5 -13t12.5 -30q0 -25 -40 -74l-66 -81h-50zM211 -6q-55 0 -87 38t-32 105v255h-73v66h167v-287q0 -57 24 -81q19 -19 52 -19q45 0 82 41t37 106v174h-76v66h170v-392h73v-66h-165v116q-74 -122 -172 -122z" />
<glyph unicode="&#xfb;" horiz-adv-x="565" d="M143 534l111 183h41l111 -183h-49l-83 93l-82 -93h-49zM211 -6q-55 0 -87 38t-32 105v255h-73v66h167v-287q0 -57 24 -81q19 -19 52 -19q45 0 82 41t37 106v174h-76v66h170v-392h73v-66h-165v116q-74 -122 -172 -122z" />
<glyph unicode="&#xfc;" horiz-adv-x="565" d="M366 556q-25 0 -42 17.5t-17 43.5t17 44t42 18t42 -18t17 -44t-17 -43.5t-42 -17.5zM184 556q-25 0 -42 17.5t-17 43.5t17 44t42 18t42 -18t17 -44t-17 -43.5t-42 -17.5zM211 -6q-55 0 -87 38t-32 105v255h-73v66h167v-287q0 -57 24 -81q19 -19 52 -19q45 0 82 41t37 106 v174h-76v66h170v-392h73v-66h-165v116q-74 -122 -172 -122z" />
<glyph unicode="&#xfd;" horiz-adv-x="506" d="M239 533l48 124q15 39 30 56.5t36 17.5q17 0 29.5 -13t12.5 -30q0 -25 -40 -74l-66 -81h-50zM74 -23q26 0 42.5 -17.5t16.5 -40.5q0 -17 -7 -31q31 7 52 30.5t44 83.5l-158 390h-64v66h242v-66h-78l107 -288l113 288h-64v66h193v-66h-59l-159 -381q-42 -101 -87 -139.5 t-101 -38.5q-44 0 -70 21.5t-26 57.5q0 26 18.5 45.5t44.5 19.5z" />
<glyph unicode="&#xfe;" horiz-adv-x="546" d="M4 -154v66h73v703h-73v72h167v-322q25 47 66 74t87 27q74 0 119 -45q62 -62 62 -191q0 -110 -67 -180q-50 -50 -119 -50q-100 0 -148 84v-172h96v-66h-263zM296 53q48 0 76.5 46.5t28.5 130.5q0 82 -27.5 127.5t-77.5 45.5q-54 0 -90.5 -51.5t-36.5 -131.5 q0 -76 37.5 -121.5t89.5 -45.5z" />
<glyph unicode="&#xff;" horiz-adv-x="506" d="M361 556q-25 0 -42 17.5t-17 43.5t17 44t42 18t42 -18t17 -44t-17 -43.5t-42 -17.5zM179 556q-25 0 -42 17.5t-17 43.5t17 44t42 18t42 -18t17 -44t-17 -43.5t-42 -17.5zM74 -23q26 0 42.5 -17.5t16.5 -40.5q0 -17 -7 -31q31 7 52 30.5t44 83.5l-158 390h-64v66h242v-66 h-78l107 -288l113 288h-64v66h193v-66h-59l-159 -381q-42 -101 -87 -139.5t-101 -38.5q-44 0 -70 21.5t-26 57.5q0 26 18.5 45.5t44.5 19.5z" />
<glyph unicode="&#x152;" horiz-adv-x="1015" d="M410 0q-180 0 -276 86.5t-96 232.5q0 147 92 243t271 96h548v-214h-48q-29 96 -48.5 122t-74.5 26h-197v-226h69q55 0 71.5 16t30.5 85h53v-262h-53q-13 71 -29.5 88t-72.5 17h-69v-244h193q63 0 85 29.5t51 138.5h48v-234h-548zM410 66h68v526h-78q-128 0 -185 -62.5 t-57 -210.5q0 -132 60 -192.5t192 -60.5z" />
<glyph unicode="&#x153;" horiz-adv-x="840" d="M806 223h-316q4 -169 140 -169q87 0 126 85h48q-19 -73 -70.5 -110.5t-128.5 -37.5q-112 0 -168 88q-63 -88 -172 -88q-106 0 -167.5 65t-61.5 171q0 105 63.5 172t165.5 67q118 0 177 -89q62 89 169 89q97 0 147 -72q48 -69 48 -163v-8zM269 45q120 0 120 184 q0 183 -129 183q-120 0 -120 -183q0 -92 33.5 -138t95.5 -46zM604 413q-102 0 -113 -143h219q-12 143 -106 143z" />
<glyph unicode="&#x178;" horiz-adv-x="647" d="M436 764q-25 0 -42 17.5t-17 43.5t17 44t42 18t42 -18t17 -44t-17 -43.5t-42 -17.5zM254 764q-25 0 -42 17.5t-17 43.5t17 44t42 18t42 -18t17 -44t-17 -43.5t-42 -17.5zM349 334l149 258h-84v66h232v-66h-77l-193 -317v-209h101v-66h-303v66h99v208l-181 318h-82v66h289 v-66h-90z" />
<glyph unicode="&#x2c6;" horiz-adv-x="299" d="M18 534l111 183h41l111 -183h-49l-83 93l-82 -93h-49z" />
<glyph unicode="&#x2dc;" horiz-adv-x="331" d="M13 537q9 68 31 96t67 28q29 0 71.5 -24t52.5 -24q25 0 35 57h48q-9 -68 -31 -96t-67 -28q-29 0 -71.5 24t-52.5 24q-25 0 -35 -57h-48z" />
<glyph unicode="&#x2000;" horiz-adv-x="469" />
<glyph unicode="&#x2001;" horiz-adv-x="939" />
<glyph unicode="&#x2002;" horiz-adv-x="469" />
<glyph unicode="&#x2003;" horiz-adv-x="939" />
<glyph unicode="&#x2004;" horiz-adv-x="313" />
<glyph unicode="&#x2005;" horiz-adv-x="234" />
<glyph unicode="&#x2006;" horiz-adv-x="156" />
<glyph unicode="&#x2007;" horiz-adv-x="156" />
<glyph unicode="&#x2008;" horiz-adv-x="117" />
<glyph unicode="&#x2009;" horiz-adv-x="187" />
<glyph unicode="&#x200a;" horiz-adv-x="52" />
<glyph unicode="&#x2010;" horiz-adv-x="366" d="M55 211v77h256v-77h-256z" />
<glyph unicode="&#x2011;" horiz-adv-x="366" d="M55 211v77h256v-77h-256z" />
<glyph unicode="&#x2013;" horiz-adv-x="540" d="M55 212v69h430v-69h-430z" />
<glyph unicode="&#x2014;" horiz-adv-x="790" d="M55 212v69h680v-69h-680z" />
<glyph unicode="&#x2018;" horiz-adv-x="231" d="M121 420q-33 0 -53.5 23t-20.5 59q0 58 35.5 101t117.5 80l19 -34q-106 -47 -118 -114l6 -3q11 8 27 8q20 0 34.5 -16t14.5 -39q0 -27 -17.5 -46t-44.5 -19z" />
<glyph unicode="&#x2019;" horiz-adv-x="231" d="M35 411l-19 34q106 47 118 114l-6 3q-11 -8 -27 -8q-20 0 -34.5 16t-14.5 39q0 27 17.5 46t44.5 19q33 0 53.5 -23t20.5 -59q0 -58 -35.5 -101t-117.5 -80z" />
<glyph unicode="&#x201a;" horiz-adv-x="231" d="M35 -151l-19 34q106 47 118 114l-6 3q-11 -8 -27 -8q-20 0 -34.5 16t-14.5 39q0 27 17.5 46t44.5 19q33 0 53.5 -23t20.5 -59q0 -58 -35.5 -101t-117.5 -80z" />
<glyph unicode="&#x201c;" horiz-adv-x="420" d="M120 420q-33 0 -53.5 23t-20.5 59q0 58 35.5 101t117.5 80l19 -34q-106 -47 -118 -114l6 -3q11 8 27 8q20 0 34.5 -16t14.5 -39q0 -27 -17.5 -46t-44.5 -19zM312 420q-33 0 -53.5 23t-20.5 59q0 58 35.5 101t117.5 80l19 -34q-106 -47 -118 -114l6 -3q11 8 27 8 q20 0 34.5 -16t14.5 -39q0 -27 -17.5 -46t-44.5 -19z" />
<glyph unicode="&#x201d;" horiz-adv-x="420" d="M35 411l-19 34q106 47 118 114l-6 3q-11 -8 -27 -8q-20 0 -34.5 16t-14.5 39q0 27 17.5 46t44.5 19q33 0 53.5 -23t20.5 -59q0 -58 -35.5 -101t-117.5 -80zM227 411l-19 34q106 47 118 114l-6 3q-11 -8 -27 -8q-20 0 -34.5 16t-14.5 39q0 27 17.5 46t44.5 19 q33 0 53.5 -23t20.5 -59q0 -58 -35.5 -101t-117.5 -80z" />
<glyph unicode="&#x201e;" horiz-adv-x="420" d="M35 -151l-19 34q106 47 118 114l-6 3q-11 -8 -27 -8q-20 0 -34.5 16t-14.5 39q0 27 17.5 46t44.5 19q33 0 53.5 -23t20.5 -59q0 -58 -35.5 -101t-117.5 -80zM227 -151l-19 34q106 47 118 114l-6 3q-11 -8 -27 -8q-20 0 -34.5 16t-14.5 39q0 27 17.5 46t44.5 19 q33 0 53.5 -23t20.5 -59q0 -58 -35.5 -101t-117.5 -80z" />
<glyph unicode="&#x2022;" horiz-adv-x="490" d="M245 179q-58 0 -98.5 40.5t-40.5 98.5t40.5 99t98.5 41t98.5 -41t40.5 -99t-40.5 -98.5t-98.5 -40.5z" />
<glyph unicode="&#x2026;" horiz-adv-x="673" d="M116 -16q-28 0 -47 19t-19 45t19 45t47 19q27 0 46 -19t19 -45t-19 -45t-46 -19zM337 -16q-28 0 -47 19t-19 45t19 45t47 19q27 0 46 -19t19 -45t-19 -45t-46 -19zM558 -16q-28 0 -47 19t-19 45t19 45t47 19q27 0 46 -19t19 -45t-19 -45t-46 -19z" />
<glyph unicode="&#x202f;" horiz-adv-x="187" />
<glyph unicode="&#x2039;" horiz-adv-x="300" d="M137 226l117 -172l-35 -24l-152 154q-27 27 -27 40t27 40l152 154l35 -24z" />
<glyph unicode="&#x203a;" horiz-adv-x="300" d="M163 222l-117 172l35 24l152 -154q27 -27 27 -40t-27 -40l-152 -154l-35 24z" />
<glyph unicode="&#x205f;" horiz-adv-x="234" />
<glyph unicode="&#x20ac;" horiz-adv-x="649" d="M31 351v57h96q28 106 104 174t175 68q84 0 144.5 -42t60.5 -99q0 -31 -18.5 -54t-51.5 -23q-32 0 -50.5 18.5t-18.5 49.5t24 55q-10 15 -35.5 24.5t-51.5 9.5q-64 0 -111.5 -42t-64.5 -139h186v-57h-192q-1 -13 -1 -39q0 -27 1 -40h192v-56h-183q18 -74 63 -114.5 t108 -40.5t102.5 39.5t47.5 108.5h60q-3 -94 -65.5 -159.5t-164.5 -65.5q-106 0 -174 64.5t-89 167.5h-93v56h85q-1 11 -1 35q0 14 2 44h-86z" />
<glyph unicode="&#x2122;" horiz-adv-x="831" d="M369 361v35h42v227h-42v35h142l67 -213h7l67 213h140v-35h-45v-227h45v-35h-139v35h33v210h-14l-80 -245h-42l-83 245h-16v-210h35v-35h-117zM100 361v35h55v230h-13q-29 0 -42 -14.5t-31 -67.5h-26v114h286v-114h-27q-15 50 -28.5 66t-43.5 16h-13v-230h55v-35h-172z " />
</font>
</defs>
</svg>
