<?xml version="1.0" standalone="no"?>
<!DOCTYPE svg PUBLIC "-//W3C//DTD SVG 1.1//EN" "http://www.w3.org/Graphics/SVG/1.1/DTD/svg11.dtd" >
<svg xmlns="http://www.w3.org/2000/svg">
<metadata>
This is a custom SVG webfont generated by Font Squirrel.
Designer    : Hoefler and Frere-Jones
Foundry     : Hoefler and Frere-Jones
Foundry URL : www.typography.com
</metadata>
<defs>
<font id="webfontJktoIeK6" horiz-adv-x="520" >
<font-face units-per-em="1000" ascent="800" descent="-200" />
<missing-glyph horiz-adv-x="174" />
<glyph unicode=" "  horiz-adv-x="174" />
<glyph unicode="&#x09;" horiz-adv-x="174" />
<glyph unicode="&#xa0;" horiz-adv-x="174" />
<glyph unicode="!" horiz-adv-x="266" d="M86 -15q-21 0 -35.5 15.5t-14.5 39.5t16 43.5t40 19.5q22 0 36.5 -15.5t14.5 -39.5t-16 -43.5t-41 -19.5zM108 189q19 93 42 247t33 191q13 51 54 51q23 0 35.5 -12.5t12.5 -33.5q0 -6 -1.5 -14t-4.5 -20t-7 -22l-10 -30l-12 -36l-15 -43l-18 -50q-38 -108 -77 -235z" />
<glyph unicode="&#x22;" horiz-adv-x="381" d="M291 412l-24 13l71 143q23 48 38 68t34 20q18 0 31.5 -11.5t13.5 -27.5q0 -4 -1 -9t-4 -10l-5 -10q-3 -5 -8.5 -12t-9 -12t-11.5 -14l-13 -14l-14 -16l-16 -18zM132 412l-24 13l71 143q23 48 38 68t34 20q18 0 31.5 -11.5t13.5 -27.5q0 -4 -1 -9t-4 -10l-5 -10 q-3 -5 -8.5 -12t-9 -12t-11.5 -14l-13 -14l-14 -16l-16 -18z" />
<glyph unicode="#" horiz-adv-x="653" d="M96 414l13 50h147l55 197l56 -7l-53 -190h156l55 197l57 -7l-53 -190h133l-13 -50h-134l-57 -203h146l-12 -51h-148l-56 -203l-57 6l55 197h-157l-56 -203l-57 6l55 197h-132l12 51h134l57 203h-146zM300 414l-57 -203h157l56 203h-156z" />
<glyph unicode="$" horiz-adv-x="526" d="M363 700l47 -9l-17 -67q65 -13 104.5 -50t39.5 -76q0 -31 -17 -52.5t-43 -21.5q-22 0 -34.5 13t-12.5 31q0 20 12 36t29 22q-23 41 -88 56l-58 -233q73 -36 106.5 -71t33.5 -88q0 -76 -58.5 -133t-157.5 -57h-11l-21 -85l-47 8l20 82q-71 14 -117.5 52t-46.5 84 q0 31 18.5 53.5t46.5 22.5q22 0 36 -14.5t14 -34.5q0 -21 -13 -38.5t-32 -24.5q9 -17 38.5 -34t66.5 -24l60 240q-74 36 -108 69.5t-34 85.5q0 77 62.5 132t156.5 55h7zM392 161q0 32 -21.5 56t-65.5 48l-56 -223h4q62 0 100.5 34t38.5 85zM196 469q0 -30 21 -52.5t64 -45.5 l54 216q-64 -1 -101.5 -37t-37.5 -81z" />
<glyph unicode="%" horiz-adv-x="770" d="M177 267q-57 0 -89 33.5t-32 90.5q0 87 63 157.5t140 70.5q64 0 91 -45q43 -20 99 -20q117 0 216 83l29 -26l-554 -637l-41 30l493 547l-3 3q-27 -17 -70 -29.5t-81 -12.5q-40 0 -73 8q0 -2 0.5 -5.5t0.5 -5.5q0 -79 -56 -160.5t-133 -81.5zM553 -14q-57 0 -89 33.5 t-32 91.5q0 87 63 157.5t140 70.5q49 0 78 -28.5t29 -81.5q0 -79 -56 -161t-133 -82zM559 29q50 0 93.5 65.5t43.5 132.5q0 66 -55 66q-51 0 -94.5 -65t-43.5 -130q0 -69 56 -69zM184 309q49 0 92.5 66t43.5 133q0 16 -5 31q-29 15 -50 35q-51 -1 -94 -66t-43 -129 q0 -70 56 -70z" />
<glyph unicode="&#x26;" horiz-adv-x="672" d="M593 383q30 0 46.5 -16t16.5 -42q0 -29 -15.5 -50.5t-38.5 -21.5q-28 0 -38 23q-4 10 -4 20q0 15 8 31q-18 -8 -36.5 -28t-31 -38.5t-34.5 -54.5l-34 -53q24 -60 39.5 -84.5t33.5 -24.5q17 0 34 17t42 69l34 -16q-30 -73 -61 -100.5t-67 -27.5q-40 0 -63.5 22.5 t-48.5 81.5q-45 -52 -89 -79t-99 -27q-73 0 -118 40.5t-45 105.5q0 144 211 209q-46 66 -46 124q0 74 50 117.5t119 43.5q60 0 98.5 -34t38.5 -88q0 -110 -161 -169q57 -87 79 -139l32 52q21 34 34 52.5t32.5 41t39.5 33t42 10.5zM207 45q80 0 149 83q-32 84 -99 180 q-145 -53 -145 -165q0 -45 26 -71.5t69 -26.5zM264 485q0 -46 49 -122q113 48 113 139q0 33 -19.5 55.5t-56.5 22.5q-36 0 -61 -25.5t-25 -69.5z" />
<glyph unicode="'" horiz-adv-x="224" d="M132 412l-24 13l71 143q23 48 38 68t34 20q18 0 31.5 -11.5t13.5 -27.5q0 -4 -1 -9t-4 -10l-5 -10q-3 -5 -8.5 -12t-9 -12t-11.5 -14l-13 -14l-14 -16l-16 -18z" />
<glyph unicode="(" horiz-adv-x="361" d="M248 -157q-176 132 -176 343q0 176 103.5 325.5t288.5 212.5l15 -39q-156 -65 -241.5 -208.5t-85.5 -299.5q0 -186 128 -300z" />
<glyph unicode=")" horiz-adv-x="361" d="M143 724q176 -132 176 -343q0 -176 -103.5 -325.5t-288.5 -212.5l-15 39q156 65 241.5 208.5t85.5 299.5q0 186 -128 300z" />
<glyph unicode="*" horiz-adv-x="408" d="M321 393q-4 11 -7 31.5t-5.5 46.5t-4.5 37l-12 2q-4 -5 -20.5 -29.5t-28.5 -40t-21 -22.5q-15 -13 -27.5 -13t-24.5 13q-9 11 -9 22q0 15 18 30q8 7 25.5 16t44.5 21t33 15l-1 12q-9 3 -35.5 10t-45.5 13.5t-28 12.5q-21 16 -21 33q0 9 5 18q11 17 26 17q12 0 27 -10 q8 -6 22 -20t32.5 -34.5t24.5 -26.5l12 4v38q-1 13 -1 24.5t1 22.5q0 20 2 30q8 32 32 32q6 0 12 -2q24 -7 24 -29q0 -8 -3 -18q-2 -10 -11 -27.5t-23.5 -42.5t-17.5 -31l8 -10q6 2 34 12t46.5 16t29.5 6h6q20 0 28 -10t8 -24q0 -15 -8 -23q-9 -9 -30 -11q-10 0 -30.5 3.5 t-46.5 8.5l-36 7l-7 -11l17 -21l20 -27q9 -11 18 -24.5t12 -21.5q4 -11 4 -20q0 -20 -21 -29q-8 -4 -16 -4q-19 0 -30 28z" />
<glyph unicode="+" horiz-adv-x="524" d="M198 67l46 186h-182l12 49h182l46 186h53l-46 -186h181l-12 -49h-182l-46 -186h-52z" />
<glyph unicode="," horiz-adv-x="214" d="M-48 -136l-10 33q104 37 125 98l-3 3q-7 -5 -17 -5q-17 0 -29 11.5t-12 33.5q0 24 16.5 43.5t41.5 19.5q28 0 43 -19t15 -48q0 -50 -41 -96.5t-129 -73.5z" />
<glyph unicode="-" horiz-adv-x="364" d="M52 210l16 65h254l-17 -65h-253z" />
<glyph unicode="." horiz-adv-x="214" d="M61 -15q-21 0 -35.5 15.5t-14.5 39.5t16 43.5t40 19.5q22 0 36.5 -15.5t14.5 -39.5t-16 -43.5t-41 -19.5z" />
<glyph unicode="/" horiz-adv-x="418" d="M-139 -190l602 902l48 -24l-602 -902z" />
<glyph unicode="0" horiz-adv-x="552" d="M243 -16q-87 0 -136.5 64.5t-49.5 177.5q0 107 38 203t106 155t147 59q87 0 136 -64.5t49 -177.5q0 -107 -38 -202.5t-105.5 -155t-146.5 -59.5zM347 594q-47 0 -87.5 -40.5t-64.5 -102t-38 -127.5t-14 -126q0 -165 101 -165q47 0 87.5 40.5t64.5 102.5t38 128t14 123 q0 167 -101 167z" />
<glyph unicode="1" horiz-adv-x="446" d="M-1 0l12 52h145l117 469q-36 -16 -92 -16q-36 0 -60 8l11 42h5q56 0 109 20q54 21 85 60h52l-145 -583h141l-10 -52h-370z" />
<glyph unicode="2" horiz-adv-x="542" d="M199 541q35 -18 35 -59q0 -23 -15 -41.5t-43 -19.5q-27 0 -44 18.5t-17 48.5q0 59 61.5 107t152.5 48q89 0 142.5 -47t53.5 -120q0 -81 -55.5 -130.5t-151.5 -81.5q-63 -22 -106 -44t-66.5 -44.5t-34.5 -39.5t-20 -41l2 -2q43 23 85 23q40 0 90 -27.5t71 -27.5 q35 0 61.5 31t55.5 108l36 -7q-26 -111 -68 -159.5t-102 -48.5q-29 0 -55 13.5t-43 29t-38.5 29t-41.5 13.5q-18 0 -33 -6q7 -12 7 -26q0 -24 -12.5 -38.5t-33.5 -14.5q-23 0 -36.5 18.5t-13.5 50.5q0 69 63 131t174 111q94 43 139 86.5t45 102.5q0 52 -34 80.5t-88 28.5 q-84 0 -122 -53z" />
<glyph unicode="3" horiz-adv-x="512" d="M97 88q11 -21 42.5 -38t77.5 -17q68 0 108.5 45t40.5 110q0 50 -35.5 80t-110.5 30h-18l12 49h21q99 0 146 47q41 40 41 104q0 47 -28.5 72t-80.5 25q-73 0 -106 -38q24 -19 24 -49q0 -25 -15.5 -42.5t-40.5 -17.5t-39.5 15.5t-14.5 40.5q0 57 61.5 98t139.5 41 q88 0 137 -42t49 -104q0 -70 -51.5 -117t-141.5 -59v-2q67 -14 102 -51.5t35 -88.5q0 -81 -64.5 -138t-162.5 -57q-85 0 -144.5 41.5t-59.5 103.5q0 32 19 54.5t47 22.5q24 0 38.5 -15.5t14.5 -36.5q0 -45 -43 -66z" />
<glyph unicode="4" horiz-adv-x="548" d="M324 233l79 315h-3l-303 -315h227zM358 51h98l-13 -51h-277l13 51h99l32 129h-293l13 54l391 404h84l-102 -405h129l-12 -53h-130z" />
<glyph unicode="5" horiz-adv-x="509" d="M222 549l-57 -186q52 30 119 30q81 0 128 -43t47 -116q0 -96 -67 -173t-181 -77q-77 0 -131.5 42.5t-54.5 100.5q0 37 20.5 62.5t49.5 25.5q24 0 38.5 -15t14.5 -37q0 -25 -15.5 -43t-40.5 -23q10 -27 41 -46t72 -19q80 0 124 62.5t44 144.5q0 56 -30 82t-80 26 q-69 0 -127 -44l-37 17l95 308l15 10q75 -36 162 -36q78 0 151 33l12 -25q-73 -87 -178 -87q-69 0 -134 26z" />
<glyph unicode="6" horiz-adv-x="521" d="M247 33q63 0 101 61t38 135q0 54 -29 85t-78 31q-61 0 -102 -52t-41 -129q0 -58 29 -94.5t82 -36.5zM526 529q0 -33 -19 -56.5t-48 -23.5q-25 0 -39 14.5t-14 35.5q0 45 46 62q-6 15 -27 24.5t-49 9.5q-79 0 -135 -70t-86 -202q60 72 150 72q75 0 121 -47t46 -123 q0 -58 -25.5 -112.5t-78 -91.5t-118.5 -37q-89 0 -141 60.5t-52 166.5q0 107 38 205t112 162.5t167 64.5q67 0 109.5 -32.5t42.5 -81.5z" />
<glyph unicode="7" horiz-adv-x="519" d="M215 45q-11 -35 -22.5 -49t-30.5 -14h-2q-17 0 -30 13q-14 14 -14 35q0 64 93 198t205 226q72 61 95 86l-3 3q-50 -30 -96 -30q-39 0 -86 21.5t-67 21.5q-34 0 -60.5 -33.5t-56.5 -121.5h-49l56 228h53l-16 -78h3q27 43 52.5 63t59.5 20q38 0 82.5 -40.5t75.5 -40.5 q22 0 38 11q-5 12 -5 28q0 22 13.5 37t34.5 15t33.5 -13.5t12.5 -31.5q0 -30 -22.5 -58t-82.5 -78q-95 -80 -157.5 -177.5t-106.5 -240.5z" />
<glyph unicode="8" horiz-adv-x="524" d="M516 491q0 -59 -38 -102.5t-108 -65.5q99 -58 99 -145q0 -81 -64.5 -137.5t-163.5 -56.5q-93 0 -148.5 47t-55.5 117q0 58 41 105t125 68q-83 56 -83 137q0 74 58.5 129.5t152.5 55.5q83 0 134 -43t51 -109zM250 294q-6 2 -9 4q-62 -16 -96 -55.5t-34 -93.5 q0 -50 36 -83.5t99 -33.5q64 0 103.5 35.5t39.5 89.5q0 42 -33 71.5t-106 65.5zM199 481q0 -42 33.5 -74t97.5 -63q58 21 87.5 60t29.5 86t-31 76.5t-87 29.5q-57 0 -93.5 -33.5t-36.5 -81.5z" />
<glyph unicode="9" horiz-adv-x="522" d="M317 594q-65 0 -103 -60.5t-38 -139.5q0 -56 28.5 -88t77.5 -32q62 0 103.5 53t41.5 132q0 61 -29 98t-81 37zM30 105q0 32 19 55t48 23q24 0 38.5 -14.5t14.5 -35.5q0 -44 -47 -63q26 -37 87 -37q158 0 217 263q-61 -71 -150 -71q-76 0 -121.5 48t-45.5 126q0 94 62 169 t161 75q89 0 141 -60.5t52 -166.5q0 -109 -36 -206.5t-109 -161.5t-166 -64q-76 0 -120.5 36t-44.5 85z" />
<glyph unicode=":" horiz-adv-x="218" d="M139 279q-21 0 -35.5 15.5t-14.5 39.5t16 43.5t40 19.5q22 0 36.5 -15.5t14.5 -39.5t-16 -43.5t-41 -19.5zM63 -15q-21 0 -35.5 15.5t-14.5 39.5t16 43.5t40 19.5q22 0 36.5 -15.5t14.5 -39.5t-16 -43.5t-41 -19.5z" />
<glyph unicode=";" horiz-adv-x="218" d="M139 279q-21 0 -35.5 15.5t-14.5 39.5t16 43.5t40 19.5q22 0 36.5 -15.5t14.5 -39.5t-16 -43.5t-41 -19.5zM-46 -136l-10 33q104 37 125 98l-3 3q-7 -5 -17 -5q-17 0 -29 11.5t-12 33.5q0 24 16.5 43.5t41.5 19.5q28 0 43 -19t15 -48q0 -50 -41 -96.5t-129 -73.5z" />
<glyph unicode="&#x3c;" horiz-adv-x="523" d="M394 76l-309 183l11 44l392 179l1 -51l-343 -155l265 -151z" />
<glyph unicode="=" horiz-adv-x="526" d="M87 344l12 49h411l-12 -49h-411zM42 163l12 48h411l-12 -48h-411z" />
<glyph unicode="&#x3e;" horiz-adv-x="523" d="M150 482l309 -184l-10 -43l-393 -179l-2 49l344 154l-265 152z" />
<glyph unicode="?" horiz-adv-x="419" d="M340 254q-52 -77 -130 -77q-44 0 -72 25t-28 66q0 43 32 73t102 64q78 38 110 67t32 76q0 36 -24.5 61t-77.5 25q-59 0 -93 -32q23 -20 23 -48q0 -26 -16 -44.5t-41 -18.5q-23 0 -38.5 16t-15.5 42q0 51 53.5 90t133.5 39q87 0 133.5 -42.5t46.5 -101.5 q0 -63 -42.5 -101.5t-133.5 -79.5q-64 -29 -89 -46.5t-25 -45.5q1 -18 13 -29t31 -11q44 0 88 53zM155 -15q-22 0 -36.5 15.5t-14.5 39.5t16.5 43.5t40.5 19.5q22 0 36.5 -15.5t14.5 -39.5t-16.5 -43.5t-40.5 -19.5z" />
<glyph unicode="@" horiz-adv-x="896" d="M634 -50l16 -33q-106 -63 -237 -63q-158 0 -258 92.5t-100 249.5q0 200 140 341t333 141q142 0 234.5 -82t92.5 -221q0 -135 -68 -227t-164 -92q-53 0 -81 30q-21 24 -21 62q0 10 1 21l-5 1q-62 -99 -139 -99q-51 0 -84.5 36.5t-33.5 101.5q0 100 68 182t154 82 q36 0 62 -21t32 -61l24 77h65l-78 -249q-12 -37 -12 -63q0 -59 61 -59q65 0 119 78t54 198q0 122 -78.5 194t-206.5 72q-114 0 -212 -60.5t-154.5 -162.5t-56.5 -220q0 -137 86.5 -219.5t230.5 -82.5q115 0 216 56zM396 120q41 0 78 39.5t56.5 90.5t19.5 94q0 37 -15.5 63 t-50.5 26q-62 0 -106.5 -76t-44.5 -155q0 -39 16.5 -60.5t46.5 -21.5z" />
<glyph unicode="A" horiz-adv-x="664" d="M358 52h103l-20 183h-235l-109 -183h88l-13 -52h-226l13 52h70l374 605h73l70 -605h84l-12 -52h-273zM234 282h202l-29 284h-3z" />
<glyph unicode="B" horiz-adv-x="618" d="M-22 0l12 52h110l136 549h-111l13 51h266q116 0 166.5 -38.5t50.5 -98.5q0 -26 -9 -52t-30.5 -52t-64 -44.5t-101.5 -23.5v-4q157 -29 157 -141q0 -73 -48 -121q-77 -77 -268 -77h-279zM263 367h88q85 0 132.5 42.5t47.5 104.5q0 43 -29.5 65t-97.5 22h-83zM185 52h84 q215 0 215 158q0 50 -39 79.5t-116 29.5h-77z" />
<glyph unicode="C" horiz-adv-x="659" d="M322 -15q-124 0 -188.5 74.5t-64.5 190.5q0 166 106.5 292t255.5 126q121 0 178 -81l38 78h53l-60 -244h-46q-9 193 -166 193q-83 0 -146.5 -58.5t-93 -140t-29.5 -166.5q0 -99 46 -153.5t128 -54.5q81 0 136 56t100 154l48 -20q-98 -246 -295 -246z" />
<glyph unicode="D" horiz-adv-x="690" d="M-22 0l12 52h110l136 549h-110l12 51h248q146 0 222 -68t76 -181q0 -76 -31 -152.5t-89 -132.5q-118 -118 -331 -118h-255zM184 52h48q167 0 248 81q51 51 81 129.5t30 158.5q0 180 -212 180h-58z" />
<glyph unicode="E" horiz-adv-x="645" d="M138 652h547l-50 -204h-40q2 33 2 58q0 52 -7 70q-11 25 -60 25h-209l-60 -243h86q45 0 62.5 16.5t45.5 83.5h41l-62 -249h-40q4 34 4 56q0 23 -4 31q-9 17 -53 17h-91l-65 -261h206q55 0 80 29t75 143h41l-55 -224h-554l12 52h110l136 549h-111z" />
<glyph unicode="F" horiz-adv-x="622" d="M258 346h79q46 0 64.5 17.5t44.5 84.5h41l-63 -255h-41q5 38 5 61q0 22 -4 30q-9 17 -54 17h-83l-62 -249h121l-12 -52h-316l12 52h110l136 549h-111l13 51h548l-53 -208h-39q1 21 1 38q0 44 -4 66q-5 32 -19.5 42.5t-48.5 10.5h-202z" />
<glyph unicode="G" horiz-adv-x="697" d="M318 41q73 0 125 55.5t75 144.5l7 28h-123l14 52h296l-13 -52h-90l-70 -276h-48l-2 92q-75 -101 -189 -101q-109 0 -170 76t-61 190q0 109 47.5 205t131.5 154.5t183 58.5q121 0 178 -81l38 78h53l-60 -244h-46q-9 193 -166 193q-83 0 -146.5 -58t-93 -141t-29.5 -171 q0 -99 43 -151t116 -52z" />
<glyph unicode="H" horiz-adv-x="761" d="M-22 0l12 52h110l136 549h-111l13 51h290l-13 -51h-94l-59 -240h305l59 240h-96l13 51h290l-13 -51h-109l-136 -549h111l-12 -52h-290l12 52h94l66 262h-305l-66 -262h95l-12 -52h-290z" />
<glyph unicode="I" horiz-adv-x="384" d="M-15 0l12 52h110l136 549h-111l12 51h306l-13 -51h-109l-137 -549h112l-12 -52h-306z" />
<glyph unicode="J" horiz-adv-x="526" d="M502 601l-107 -430q-22 -90 -77 -138.5t-140 -48.5q-80 0 -126 41t-46 96q0 39 22 66t58 27q27 0 42 -16.5t15 -40.5q0 -25 -16.5 -43t-46.5 -25q7 -24 34.5 -39.5t63.5 -15.5q53 0 84.5 36t50.5 111l104 420h-107l13 51h290l-12 -51h-99z" />
<glyph unicode="K" horiz-adv-x="704" d="M690 601l-277 -224l155 -325h86l-12 -52h-274l13 52h91l-124 273l-120 -98l-43 -175h95l-12 -52h-290l12 52h110l136 549h-111l13 51h290l-13 -51h-94l-74 -300l360 300h-88l13 51h250l-12 -51h-80z" />
<glyph unicode="L" horiz-adv-x="592" d="M138 652h298l-12 -51h-103l-136 -549h178q54 0 78.5 30t73.5 144h42l-57 -226h-522l12 52h110l136 549h-111z" />
<glyph unicode="M" horiz-adv-x="913" d="M-19 0l12 52h102l137 549h-104l12 51h235l54 -511h3l310 511h242l-13 -51h-107l-136 -549h109l-12 -52h-278l12 52h84l136 545h-8l-370 -598h-36l-70 598h-6l-136 -545h92l-12 -52h-252z" />
<glyph unicode="N" horiz-adv-x="751" d="M522 -16l-239 568h-5l-125 -500h97l-12 -52h-257l12 52h102l136 549h-103l12 51h190l217 -509h5l113 458h-98l13 51h255l-13 -51h-98l-154 -617h-48z" />
<glyph unicode="O" horiz-adv-x="696" d="M70 263q0 103 45.5 195.5t127 150.5t178.5 58q114 0 185.5 -77t71.5 -201q0 -103 -45.5 -196t-127 -151t-178.5 -58q-114 0 -185.5 77.5t-71.5 201.5zM417 615q-64 0 -115.5 -38t-81.5 -96t-45.5 -120.5t-15.5 -119.5q0 -102 46.5 -153t125.5 -51q64 0 116 37.5t81.5 96 t45 120.5t15.5 119q0 103 -46.5 154t-125.5 51z" />
<glyph unicode="P" horiz-adv-x="598" d="M239 270l-54 -218h121l-12 -52h-316l12 52h110l136 549h-111l13 51h263q118 0 173 -43.5t55 -113.5q0 -97 -77.5 -161t-227.5 -64h-85zM251 319h83q101 0 151 50t50 129q0 49 -32.5 76t-111.5 27h-70z" />
<glyph unicode="Q" horiz-adv-x="696" d="M327 -16q-114 0 -185.5 77.5t-71.5 201.5q0 103 45.5 195.5t127 150.5t178.5 58q114 0 185.5 -77t71.5 -201q0 -107 -50 -203.5t-133 -150.5q14 -39 28 -56.5t38 -17.5q26 0 43.5 20.5t40.5 71.5l42 -15q-50 -144 -138 -144q-47 0 -73.5 27.5t-44.5 80.5 q-54 -18 -104 -18zM192 111q4 54 38 89t91 35q64 0 98 -37t56 -102q54 55 84 144t30 170q0 103 -46.5 154t-125.5 51q-64 0 -115.5 -38t-81.5 -96t-45.5 -120.5t-15.5 -119.5q0 -86 33 -130zM337 35q43 0 79 18q-17 64 -40.5 97t-66.5 33q-31 0 -52 -21.5t-21 -52.5 t27 -52.5t74 -21.5z" />
<glyph unicode="R" horiz-adv-x="667" d="M-22 0l12 52h110l136 549h-111l13 51h294q114 0 162 -41.5t48 -104.5q0 -71 -49.5 -124t-149.5 -64l-2 -5q57 -15 78.5 -41.5t21.5 -71.5q0 -19 -6 -60t-6 -56q0 -42 42 -42q27 0 62 16l13 -32q-54 -37 -115 -37q-42 0 -67 21t-25 64q0 23 10 77.5t10 79.5q0 31 -21 46.5 t-76 15.5h-117l-60 -241h109l-12 -52h-304zM256 341h105q97 0 143 46q21 20 33.5 54.5t12.5 69.5q0 90 -123 90h-106z" />
<glyph unicode="S" horiz-adv-x="561" d="M-4 -13l57 233h44q35 -188 191 -188q61 0 101 36.5t40 88.5q0 44 -34 72.5t-108 63.5q-39 18 -62.5 32t-50 35.5t-39 49t-12.5 61.5q0 79 62.5 137.5t156.5 58.5q55 0 100 -21.5t70 -55.5l40 74h49l-55 -221h-43q-18 99 -59.5 138t-107.5 39q-54 0 -92 -34.5t-38 -85.5 q0 -17 4 -31t16 -27l19 -20q8 -8 29 -20l32 -17q9 -5 36 -18q42 -20 66 -33.5t52 -35.5t40.5 -49.5t12.5 -62.5q0 -84 -67 -143t-163 -59q-126 0 -193 86l-45 -83h-49z" />
<glyph unicode="T" horiz-adv-x="656" d="M115 0l13 52h113l138 553h-83q-53 0 -79 -30t-83 -149h-40l57 226h564l-57 -226h-37q1 29 1 53q0 71 -9 95q-12 31 -66 31h-83l-139 -553h115l-12 -52h-313z" />
<glyph unicode="U" horiz-adv-x="722" d="M336 -16q-108 0 -166.5 48t-58.5 124q0 38 13 93l87 352h-96l13 51h278l-12 -51h-98l-84 -339q-15 -59 -15 -101q0 -57 40 -88t113 -31q83 0 134 51q43 43 65 127l94 381h-99l12 51h249l-13 -51h-90l-101 -405q-22 -87 -75 -140q-70 -72 -190 -72z" />
<glyph unicode="V" horiz-adv-x="665" d="M254 601l58 -507h3l307 507h-88l13 51h225l-12 -51h-70l-379 -605h-66l-76 605h-85l13 51h272l-12 -51h-103z" />
<glyph unicode="W" horiz-adv-x="959" d="M568 -4l-26 462l-264 -462h-69l-43 605h-82l13 51h269l-13 -51h-102l28 -500h3l255 447l-3 53h-83l13 51h270l-13 -51h-105l23 -500h3l275 500h-88l13 51h224l-13 -51h-69l-347 -605h-69z" />
<glyph unicode="X" horiz-adv-x="656" d="M383 601h-92l85 -220l203 220h-87l12 51h238l-13 -51h-77l-250 -266l116 -283h87l-13 -52h-269l13 52h93l-92 234l-218 -234h86l-13 -52h-236l12 52h78l266 281l-111 268h-87l13 51h269z" />
<glyph unicode="Y" horiz-adv-x="638" d="M364 327l221 274h-81l12 51h221l-12 -51h-75l-276 -332l-56 -217h103l-13 -52h-286l12 52h99l59 230l-96 319h-81l13 51h263l-13 -51h-91z" />
<glyph unicode="Z" horiz-adv-x="586" d="M-17 0l9 37l533 564h-228q-32 0 -49 -10t-39 -44.5t-61 -117.5h-37l55 223h484l-9 -36l-530 -564h248q44 0 68 29t81 150h37l-57 -231h-505z" />
<glyph unicode="[" horiz-adv-x="338" d="M-4 -152l217 872h249l-12 -49h-171l-193 -774h171l-12 -49h-249z" />
<glyph unicode="\" horiz-adv-x="418" d="M352 -198l-51 -9l-161 901l52 9z" />
<glyph unicode="]" horiz-adv-x="338" d="M371 719l-217 -872h-249l12 49h171l193 774h-171l12 49h249z" />
<glyph unicode="^" horiz-adv-x="333" d="M100 512l165 197h40l68 -197h-38l-64 116l-128 -116h-43z" />
<glyph unicode="_" horiz-adv-x="440" d="M-55 0l13 54h444l-13 -54h-444z" />
<glyph unicode="`" horiz-adv-x="238" d="M231 641l18 -114h-35l-40 81q-29 60 -29 77q0 16 10.5 27t25.5 11q23 0 33 -19.5t17 -62.5z" />
<glyph unicode="a" d="M465 452l-79 -290q-15 -56 -15 -82q0 -30 24 -30q34 0 76 111l34 -11q-30 -88 -61.5 -123.5t-69.5 -35.5q-30 0 -49.5 21t-19.5 60q0 11 2 25l-7 3q-64 -109 -148 -109q-53 0 -86 41.5t-33 109.5q0 71 27 136t71 109q71 71 143 71q77 0 93 -87l22 81h76zM180 49 q41 0 81 47t62.5 108.5t22.5 109.5q0 40 -17 69.5t-52 29.5q-64 0 -114.5 -89.5t-50.5 -175.5q0 -48 18 -73.5t50 -25.5z" />
<glyph unicode="b" horiz-adv-x="475" d="M299 402q-42 0 -83 -45.5t-65 -107t-24 -111.5q0 -100 75 -100q45 0 84 47t58.5 108t19.5 113q0 96 -65 96zM264 687l-96 -336l7 -3q66 110 148 110q55 0 88 -42.5t33 -111.5q0 -123 -80 -218t-173 -95q-65 0 -103 38.5t-38 105.5q0 53 28 153l96 345h-93l14 54h169z" />
<glyph unicode="c" horiz-adv-x="433" d="M287 458q54 0 90 -28t36 -71q0 -27 -15 -48.5t-39 -21.5q-20 0 -33 12.5t-13 31.5q0 34 33 61q-21 24 -61 24q-51 0 -92.5 -43.5t-61.5 -99.5t-20 -106q0 -63 27 -95.5t70 -32.5q75 0 134 105l32 -19q-72 -136 -181 -136q-73 0 -117.5 50t-44.5 129q0 108 78 198t178 90z " />
<glyph unicode="d" d="M180 49q41 0 81.5 48t63.5 111t23 113q0 92 -71 92q-46 0 -85 -45t-59.5 -105.5t-20.5 -114.5q0 -48 18 -73.5t50 -25.5zM471 161l34 -11q-30 -88 -61.5 -123.5t-69.5 -35.5q-30 0 -49.5 21t-19.5 60q0 11 2 25l-7 3q-64 -109 -148 -109q-53 0 -86 41.5t-33 109.5 q0 72 26.5 136.5t70.5 108.5q71 71 144 71q77 0 95 -79l69 254h-94l14 54h170l-142 -525q-15 -56 -15 -82q0 -30 24 -30q34 0 76 111z" />
<glyph unicode="e" horiz-adv-x="435" d="M414 366q0 -69 -76 -117.5t-225 -64.5q-2 -10 -2 -29q0 -59 25.5 -88t68.5 -29q79 0 148 101l31 -20q-84 -128 -200 -128q-68 0 -110.5 45.5t-42.5 122.5q0 113 86 206t186 93q52 0 81.5 -26t29.5 -66zM288 418q-56 0 -102.5 -60t-65.5 -137q222 30 222 143 q0 24 -14.5 39t-39.5 15z" />
<glyph unicode="f" horiz-adv-x="323" d="M-24 -163q-33 0 -50.5 16t-17.5 39t14.5 39.5t36.5 16.5q19 0 29.5 -11.5t10.5 -27.5q0 -23 -13 -38q26 0 42.5 33t39.5 143l74 351h-98l12 44h95q25 124 79.5 186.5t127.5 63.5h4q44 0 70 -21q26 -22 26 -53q0 -29 -16 -50t-40 -21q-19 0 -30.5 11.5t-11.5 32.5 q0 33 24 54q-10 8 -29 8q-49 0 -74.5 -42.5t-45.5 -134.5l-8 -34h127l-12 -44h-124l-68 -323q-50 -238 -174 -238z" />
<glyph unicode="g" horiz-adv-x="481" d="M66 -106q21 -15 67 -15q58 0 97 39q44 46 73 174l-7 3q-57 -74 -133 -74q-57 0 -92 41t-35 104t25 124t69 105q61 63 135 63q38 0 65.5 -22t37.5 -63l20 79h76l-87 -363q-30 -130 -89 -191t-155 -61q-57 0 -100.5 20.5t-43.5 65.5q0 25 15.5 45t40.5 20q21 0 33 -13 t12 -32q0 -30 -24 -49zM193 75q62 0 109 75t47 164q0 41 -22.5 70t-57.5 29q-63 0 -108 -78.5t-45 -159.5q0 -100 77 -100z" />
<glyph unicode="h" horiz-adv-x="527" d="M377 -9q-32 0 -52.5 23t-19.5 65q0 48 35.5 142.5t35.5 133.5q0 41 -35 41q-51 0 -119.5 -99t-121.5 -297h-81l168 633h-94l14 54h170l-122 -434l6 -3q49 99 104 153.5t106 54.5q37 0 60 -27.5t23 -72.5q0 -44 -37.5 -147t-37.5 -136q0 -25 20 -25q33 0 75 111l34 -11 q-53 -159 -131 -159z" />
<glyph unicode="i" horiz-adv-x="318" d="M293 609q0 -25 -17.5 -47t-45.5 -22q-19 0 -32 13t-13 35q0 26 17 48t44 22q21 0 34 -13.5t13 -35.5zM240 362q0 -44 -42 -149.5t-42 -136.5q0 -26 23 -26q34 0 77 111l34 -11q-54 -159 -134 -159q-34 0 -55 23q-20 21 -20 59q0 49 44 159q43 108 43 147q0 28 -19 28 q-22 0 -43 -28.5t-50 -84.5l-34 15q34 73 68 111t75 38q34 0 54.5 -25.5t20.5 -70.5z" />
<glyph unicode="j" horiz-adv-x="278" d="M293 609q0 -25 -18 -47t-45 -22q-19 0 -32 13t-13 35q0 26 17 48t44 22q21 0 34 -13.5t13 -35.5zM239 371q0 -30 -13 -82l-61 -230q-59 -222 -179 -222q-37 0 -55 15.5t-18 39.5q0 23 14.5 39.5t36.5 16.5q20 0 30 -11.5t10 -27.5q0 -22 -13 -40q26 0 45.5 30.5 t45.5 131.5l74 282q11 42 11 64q0 30 -20 30q-34 0 -91 -113l-34 15q34 74 68 111.5t76 37.5q32 0 52.5 -24t20.5 -63z" />
<glyph unicode="k" horiz-adv-x="486" d="M328 83q0 -33 22 -33q34 0 74 111l34 -11q-52 -159 -129 -159q-32 0 -53 24q-21 23 -21 65q0 20 5 53q4 33 4 42q0 29 -17.5 40.5t-69.5 11.5h-23l-61 -227h-74l168 633h-94l14 54h170l-114 -426h14q37 0 61.5 21.5t57.5 75.5q30 52 56 76t62 24q30 0 46 -15.5t16 -43.5 t-15.5 -47.5t-37.5 -19.5q-26 0 -37 22q-4 9 -4 20q0 14 7 29q-26 -2 -65 -70q-37 -64 -80 -83q92 -7 92 -80q0 -16 -4 -45.5t-4 -41.5z" />
<glyph unicode="l" horiz-adv-x="268" d="M39 76q0 33 25 127l117 430h-94l14 54h170l-142 -525q-15 -56 -15 -82q0 -30 23 -30q20 0 38 27t39 84l34 -11q-30 -89 -61.5 -124t-70.5 -35q-37 0 -57 22.5t-20 62.5z" />
<glyph unicode="m" horiz-adv-x="822" d="M672 -9q-32 0 -52.5 23t-19.5 65q0 48 35.5 142.5t35.5 133.5q0 41 -35 41q-49 0 -113.5 -98t-118.5 -298h-80l44 163q42 155 42 183q0 50 -38 50q-49 0 -112.5 -98t-118.5 -298h-81l84 315q10 37 11 58t-3.5 27.5t-15.5 6.5q-19 0 -38.5 -28t-47.5 -85l-34 15 q32 74 64.5 110.5t72.5 36.5q63 0 63 -82q0 -49 -22 -117l7 -3q98 204 201 204q37 0 58 -25t21 -67t-24 -109l7 -3q98 204 202 204q37 0 60 -27.5t23 -72.5q0 -44 -37.5 -147t-37.5 -136q0 -25 20 -25q33 0 75 111l34 -11q-30 -88 -62.5 -123.5t-68.5 -35.5z" />
<glyph unicode="n" horiz-adv-x="559" d="M410 75q0 -25 21 -25q34 0 74 111l35 -11q-30 -88 -62.5 -123.5t-68.5 -35.5q-32 0 -52.5 23t-20.5 65q1 48 36 142.5t35 133.5q0 41 -35 41q-49 0 -112.5 -98t-118.5 -298h-81l84 315q10 37 11 58t-3.5 27.5t-15.5 6.5q-19 0 -38.5 -28t-47.5 -85l-34 15 q32 74 64.5 110.5t72.5 36.5q63 0 63 -82q0 -49 -22 -117l7 -3q98 204 201 204q37 0 60 -27.5t23 -72.5q0 -44 -37.5 -147t-37.5 -136z" />
<glyph unicode="o" horiz-adv-x="473" d="M274 458q77 0 121.5 -51.5t44.5 -133.5q0 -113 -71.5 -197.5t-168.5 -84.5q-78 0 -122 51.5t-44 133.5q0 113 71.5 197.5t168.5 84.5zM361 306q0 56 -23.5 84t-63.5 28q-48 0 -86.5 -46.5t-57 -108t-18.5 -119.5q0 -56 23.5 -84t63.5 -28q48 0 86.5 46.5t57 108 t18.5 119.5z" />
<glyph unicode="p" horiz-adv-x="523" d="M346 402q-62 0 -117 -93.5t-55 -171.5q0 -40 20 -66.5t59 -26.5q45 0 82.5 45.5t56.5 105.5t19 112q0 95 -65 95zM143 311q10 36 10 57q0 30 -20 30q-19 0 -36 -22.5t-47 -81.5l-34 15q34 77 66.5 112t71.5 35q31 0 47 -21t16 -57q0 -15 -2 -27l7 -3q66 110 148 110 q54 0 87.5 -42t33.5 -111q0 -120 -72 -213t-159 -93q-37 0 -66.5 19t-39.5 51l-45 -167h100l-15 -52h-248l14 52h74z" />
<glyph unicode="q" horiz-adv-x="479" d="M467 452l-148 -550h89l-14 -52h-248l14 52h84l53 190l-7 3q-59 -95 -137 -95q-55 0 -87.5 42.5t-32.5 111.5q0 67 26 128t70 105q71 71 146 71q37 0 62.5 -22t32.5 -61l21 77h76zM178 56q42 0 82.5 45.5t64.5 106.5t24 110q0 43 -18 69t-54 26q-67 0 -116 -88t-49 -172 q0 -97 66 -97z" />
<glyph unicode="r" horiz-adv-x="423" d="M60 0l84 315q10 37 11 58t-3.5 27.5t-15.5 6.5q-19 0 -38.5 -28t-47.5 -85l-34 15q32 74 64.5 110.5t72.5 36.5q63 0 63 -82q0 -49 -22 -117l8 -3q50 105 89 154.5t81 49.5q25 0 41 -16t16 -42q0 -29 -16 -50t-39 -21q-21 0 -32 15q-10 14 -10 35v7q-37 -17 -92 -118.5 t-99 -267.5h-81z" />
<glyph unicode="s" horiz-adv-x="414" d="M353 137q0 -68 -49.5 -107t-120.5 -39q-62 0 -114 29t-52 77q0 25 15 44t39 19q19 0 31 -13t12 -32q0 -33 -25 -52q30 -33 94 -33q44 0 70.5 22t26.5 60q0 27 -20.5 45t-74.5 42q-25 11 -39 19t-32 22t-26.5 33t-8.5 42q0 67 50 105t117 38q62 0 105.5 -26t43.5 -68 q0 -25 -13.5 -43t-36.5 -18q-20 0 -32 12t-12 31q0 31 25 49q-9 10 -32 17.5t-48 7.5q-42 0 -68 -21t-26 -57q0 -27 20.5 -45.5t70.5 -40.5q55 -24 82.5 -49.5t27.5 -69.5z" />
<glyph unicode="t" horiz-adv-x="352" d="M351 398h-136l-65 -236q-13 -51 -13 -71q0 -39 37 -39q49 0 103 117l35 -11q-63 -167 -160 -167q-45 0 -69 24t-24 63q0 26 18 98l61 222h-91l11 44h91l34 125l80 10l-37 -135h137z" />
<glyph unicode="u" horiz-adv-x="555" d="M414 -9q-70 0 -70 85q0 45 22 115l-7 3q-97 -203 -199 -203q-38 0 -60.5 27t-22.5 73q0 44 36.5 148t36.5 135q0 26 -19 26q-17 0 -34 -23.5t-46 -81.5l-34 15q35 76 66 112t72 36q32 0 51.5 -23t18.5 -65q0 -46 -35 -141t-35 -132q0 -43 35 -43q49 0 112 97.5t118 300.5 h81l-77 -290q-15 -57 -15 -82q0 -30 24 -30q20 0 37.5 27.5t38.5 83.5l34 -11q-53 -159 -129 -159z" />
<glyph unicode="v" horiz-adv-x="469" d="M157 458q34 0 53.5 -23t18.5 -63q0 -47 -39 -144t-39 -124q0 -28 18.5 -41.5t45.5 -13.5q50 0 93.5 51.5t66.5 119.5t25 130q-12 -6 -21 -6q-22 0 -35 13.5t-13 36.5q0 27 16 47t41 20q59 0 59 -92q0 -53 -19 -118t-51 -124t-82 -99t-105 -40q-54 0 -85.5 29.5 t-31.5 76.5q0 41 40.5 145t40.5 134q0 26 -20 26q-19 0 -35.5 -23.5t-45.5 -81.5l-34 16q35 76 66 112t72 36z" />
<glyph unicode="w" horiz-adv-x="693" d="M159 458q34 0 53 -22.5t19 -63.5q-1 -49 -42.5 -145.5t-41.5 -130.5q0 -47 41 -47q105 0 205 403h73l-51 -212q-19 -76 -19 -121q0 -70 52 -70q44 0 84.5 50t63.5 118.5t25 131.5q-15 -5 -21 -5q-22 0 -34.5 13.5t-12.5 36.5q0 27 15.5 47t40.5 20q28 0 43.5 -22.5 t15.5 -64.5q0 -74 -29 -161.5t-86.5 -156t-125.5 -68.5q-51 0 -75 33q-23 32 -23 83q0 29 3 50l-7 2q-61 -168 -159 -168q-44 0 -71 28t-27 74q0 45 44 147.5t44 136.5q0 25 -21 25q-18 0 -34.5 -23.5t-45.5 -81.5l-34 16q35 76 66 112t72 36z" />
<glyph unicode="x" horiz-adv-x="515" d="M290 148q0 -102 50 -102q26 0 47 27.5t43 84.5l35 -15q-53 -153 -141 -153q-95 0 -95 146v9h-6q-32 -78 -72.5 -117.5t-83.5 -39.5q-29 0 -45.5 16.5t-16.5 43.5t14.5 46t35.5 19q22 0 33 -17q8 -13 8 -33q0 -8 -1 -16q50 16 88.5 99t38.5 155q0 101 -50 101 q-26 0 -47 -27.5t-43 -84.5l-35 15q53 153 141 153q95 0 95 -146v-9h6q32 78 72.5 117.5t83.5 39.5q29 0 46 -16.5t17 -43.5t-15 -46t-36 -19q-22 0 -33 17q-8 13 -8 33q0 8 1 16q-50 -16 -88.5 -98.5t-38.5 -154.5z" />
<glyph unicode="y" d="M156 458q32 0 51.5 -23t18.5 -63q0 -47 -31.5 -130.5t-31.5 -114.5q0 -43 40 -43q54 0 115 86.5t107 281.5h76l-81 -344q-34 -143 -97.5 -207t-158.5 -64q-52 0 -90.5 19.5t-38.5 61.5q0 23 16 42.5t40 19.5q22 0 34 -14q11 -12 11 -30q0 -28 -22 -45q20 -12 52 -12 q69 0 114.5 60.5t75.5 196.5l8 38l-6 3q-90 -156 -183 -156q-41 0 -65.5 26.5t-24.5 71.5q0 39 33 131.5t33 123.5q0 25 -18 25q-19 0 -37.5 -26t-43.5 -79l-34 16q34 75 66 111.5t72 36.5z" />
<glyph unicode="z" horiz-adv-x="428" d="M101 113q29 -5 79 -25.5t75 -20.5q36 0 55.5 22t50.5 91l35 -15q-33 -90 -68.5 -132t-94.5 -42q-64 0 -123 72l-26 32l-9 -2q-9 -102 -58 -102q-16 0 -27.5 10t-11.5 26q0 51 76 78q50 65 127.5 129t143.5 102q-29 5 -78.5 25.5t-73.5 20.5q-35 0 -54 -22t-51 -92l-35 16 q34 91 69 132.5t93 41.5q64 0 121 -73l26 -31l9 2q10 102 58 102q17 0 28 -10t11 -26q0 -52 -76 -78q-50 -65 -127 -129t-144 -102z" />
<glyph unicode="{" horiz-adv-x="388" d="M289 -153q-169 29 -169 138q0 40 25.5 116t25.5 98q0 61 -110 61h-35l12 48h30q84 0 125 40q24 25 35 69t12 85t14.5 88t42.5 76q56 56 170 56q16 0 33 -1l-12 -45q-88 0 -124 -36q-22 -22 -33.5 -65t-14.5 -84t-16.5 -86t-39.5 -70q-41 -41 -117 -50l-1 -3 q99 -18 99 -94q0 -29 -22.5 -101.5t-22.5 -102.5q0 -70 105 -91z" />
<glyph unicode="|" horiz-adv-x="277" d="M5 -199l226 902l53 -8l-226 -901z" />
<glyph unicode="}" horiz-adv-x="388" d="M111 721q169 -29 169 -138q0 -40 -25.5 -116t-25.5 -98q0 -61 110 -61h35l-12 -48h-30q-84 0 -125 -40q-24 -25 -35 -69t-12 -85t-14.5 -88t-42.5 -76q-56 -56 -170 -56q-16 0 -33 1l12 45q88 0 124 36q22 22 33.5 65t14.5 84t16.5 86t39.5 70q41 41 117 50l1 3 q-99 18 -99 94q0 29 22.5 101.5t22.5 102.5q0 70 -105 91z" />
<glyph unicode="~" horiz-adv-x="371" d="M144 317q-17 0 -29.5 -15.5t-29.5 -49.5h-40q24 65 50 94t61 29q33 0 69 -30t50 -30q17 0 30 15.5t30 49.5h39q-24 -65 -50 -94t-62 -29q-32 0 -68 30t-50 30z" />
<glyph unicode="&#xa1;" horiz-adv-x="266" d="M213 474q-19 -93 -42 -247t-33 -191q-13 -51 -54 -51q-23 0 -35.5 12.5t-12.5 33.5q0 6 1.5 14t4.5 20l6 23l10 30l12 34l16 44l18 50q38 108 77 235zM235 678q21 0 35.5 -15.5t14.5 -39.5t-16 -43.5t-40 -19.5q-22 0 -36.5 15.5t-14.5 39.5t16 43.5t41 19.5z" />
<glyph unicode="&#xa2;" horiz-adv-x="454" d="M298 543l43 -8l-19 -79q55 -5 88 -34t33 -69q0 -27 -15 -48.5t-39 -21.5q-20 0 -33 12.5t-13 31.5q0 34 32 61q-18 26 -64 29l-95 -376h6q84 0 144 105l32 -19q-36 -66 -80 -101t-111 -35h-4l-23 -95l-43 8l23 92q-59 13 -91.5 59t-32.5 115q0 105 70 191t171 96z M116 169q0 -94 59 -120l91 364q-47 -12 -82.5 -55t-51.5 -93t-16 -96z" />
<glyph unicode="&#xa3;" horiz-adv-x="583" d="M470 285h-175q0 -79 -54 -152q18 -7 64 -30q76 -40 102 -40q29 0 48 22.5t40 77.5l38 -9q-25 -92 -57.5 -130.5t-83.5 -38.5q-29 0 -58.5 11.5t-45.5 21.5t-45 32q-6 4 -18 13t-18 13q-28 -48 -53.5 -69t-60.5 -21t-58 20.5t-23 55.5q0 38 32 66t86 28q35 0 72 -10 q19 45 19 88q0 26 -6 51h-147l13 51h123q-8 34 -8 70q0 105 68.5 171t161.5 66q81 0 125 -37.5t44 -88.5q0 -34 -19 -59t-50 -25q-24 0 -39 14.5t-15 38.5q0 21 13 38.5t36 25.5q-23 45 -94 45q-66 0 -105 -45.5t-39 -128.5q0 -35 8 -85h191zM99 30q38 0 76 64 q-30 15 -58 15q-26 0 -40.5 -13.5t-14.5 -31.5q0 -34 37 -34z" />
<glyph unicode="&#xa5;" horiz-adv-x="655" d="M120 312h161l-82 266h-81l13 51h262l-13 -51h-88l74 -257l207 257h-82l14 51h217l-13 -51h-72l-222 -266h154l-12 -50h-183l-17 -67h185l-12 -50h-185l-23 -93h120l-13 -52h-319l13 52h120l23 93h-185l12 50h185l17 67h-187z" />
<glyph unicode="&#xa7;" horiz-adv-x="496" d="M457 271q0 -53 -39.5 -89.5t-107.5 -48.5q74 -50 74 -110q0 -59 -51 -99q-52 -42 -126 -42q-72 0 -130 33t-58 87q0 29 17 49.5t42 20.5q22 0 34.5 -13.5t12.5 -31.5q0 -40 -33 -59q12 -15 42.5 -29t74.5 -14q47 0 73 23t26 56q0 30 -25 54q-24 24 -80 57 q-69 40 -97.5 70t-28.5 73q0 52 39.5 88t108.5 48q-65 46 -65 107t51.5 102t124.5 41q70 0 119.5 -30.5t49.5 -80.5q0 -28 -17 -48.5t-41 -20.5q-21 0 -33.5 14t-12.5 32q0 33 32 56q-27 35 -99 35q-45 0 -71.5 -23t-26.5 -58q0 -29 23.5 -54t75.5 -56q66 -39 94 -68.5 t28 -70.5zM298 348l-35 21q-52 -8 -79.5 -34t-27.5 -63q0 -48 79 -93l37 -21q52 8 79 34t27 63q0 48 -80 93z" />
<glyph unicode="&#xa8;" horiz-adv-x="322" d="M222 615q0 -25 -16.5 -45t-40.5 -20q-19 0 -30.5 13t-11.5 35q0 25 16 44.5t40 19.5q19 0 31 -13t12 -34zM396 615q0 -25 -16.5 -45t-41.5 -20q-19 0 -30.5 13t-11.5 35q0 25 16 44.5t40 19.5q20 0 32 -13t12 -34z" />
<glyph unicode="&#xa9;" horiz-adv-x="787" d="M426 -32q-151 0 -255 104.5t-104 257.5q0 152 104 256t255 104q152 0 256 -104t104 -256q0 -153 -104 -257.5t-256 -104.5zM426 2q136 0 228.5 95t92.5 233q0 137 -93 231.5t-228 94.5q-134 0 -227 -94.5t-93 -231.5q0 -138 93 -233t227 -95zM428 143q-75 0 -123 53.5 t-48 137.5q0 79 51 133.5t122 54.5q65 0 102 -44l11 43h35v-136h-31q-36 102 -114 102q-53 0 -83.5 -39t-30.5 -111q0 -76 31 -116.5t87 -40.5q48 0 76 30.5t35 83.5h36q-8 -72 -49.5 -111.5t-106.5 -39.5z" />
<glyph unicode="&#xaa;" horiz-adv-x="400" d="M351 642h57l-57 -211q-11 -35 -11 -58t16 -23q26 0 56 82l28 -9q-23 -65 -46.5 -90t-52.5 -25q-23 0 -37.5 15t-14.5 43q0 3 0.5 8t0.5 7l-5 2q-45 -75 -109 -75q-40 0 -64.5 30t-24.5 79q0 103 72 175q54 54 109 54q56 0 67 -62zM197 352q46 0 84 67.5t38 126.5 q0 64 -49 64q-47 0 -85 -63t-38 -124q0 -71 50 -71z" />
<glyph unicode="&#xab;" horiz-adv-x="492" d="M171 32l-111 157q-18 23 -18 36t38 44l186 148l25 -25l-169 -172l84 -168zM365 32l-112 157q-17 24 -17 36q0 14 37 44l187 148l25 -25l-169 -172l84 -168z" />
<glyph unicode="&#xad;" horiz-adv-x="364" d="M52 210l16 65h254l-17 -65h-253z" />
<glyph unicode="&#xae;" horiz-adv-x="517" d="M323 248q-94 0 -157.5 63.5t-63.5 158.5t63.5 157.5t157.5 62.5q95 0 158.5 -62.5t63.5 -157.5t-63.5 -158.5t-158.5 -63.5zM323 276q86 0 137.5 53.5t51.5 140.5q0 86 -51.5 139t-137.5 53q-85 0 -137 -53t-52 -139q0 -87 52 -140.5t137 -53.5zM292 459v-77h36v-23h-111 v23h36v181h-36v24h115q47 0 68 -17.5t21 -42.5q0 -20 -15.5 -35.5t-48.5 -19.5v-3q48 -8 53 -49l2 -23q1 -17 11 -17q8 0 16 18l15 -6q-12 -38 -41 -38q-40 0 -43 47l-1 22q-1 36 -40 36h-37zM292 481h36q49 0 49 43q0 39 -46 39h-39v-82z" />
<glyph unicode="&#xaf;" horiz-adv-x="321" d="M118 546l16 62h251l-16 -62h-251z" />
<glyph unicode="&#xb0;" horiz-adv-x="388" d="M247 394q49 0 80.5 42.5t31.5 99.5q0 41 -21.5 63.5t-58.5 22.5q-49 0 -80.5 -42.5t-31.5 -99.5q0 -41 21.5 -63.5t58.5 -22.5zM419 533q0 -74 -49.5 -129t-124.5 -55q-65 0 -102 39t-37 95q0 74 50 129t125 55q65 0 101.5 -39t36.5 -95z" />
<glyph unicode="&#xb1;" horiz-adv-x="539" d="M230 159l41 165h-159l10 44h160l41 163h48l-40 -163h159l-11 -44h-159l-41 -165h-49zM407 29h-371l11 46h371z" />
<glyph unicode="&#xb2;" horiz-adv-x="542" d="M199 541q35 -18 35 -59q0 -23 -15 -41.5t-43 -19.5q-27 0 -44 18.5t-17 48.5q0 59 61.5 107t152.5 48q89 0 142.5 -47t53.5 -120q0 -81 -55.5 -130.5t-151.5 -81.5q-63 -22 -106 -44t-66.5 -44.5t-34.5 -39.5t-20 -41l2 -2q43 23 85 23q40 0 90 -27.5t71 -27.5 q35 0 61.5 31t55.5 108l36 -7q-26 -111 -68 -159.5t-102 -48.5q-29 0 -55 13.5t-43 29t-38.5 29t-41.5 13.5q-18 0 -33 -6q7 -12 7 -26q0 -24 -12.5 -38.5t-33.5 -14.5q-23 0 -36.5 18.5t-13.5 50.5q0 69 63 131t174 111q94 43 139 86.5t45 102.5q0 52 -34 80.5t-88 28.5 q-84 0 -122 -53z" />
<glyph unicode="&#xb3;" horiz-adv-x="512" d="M97 88q11 -21 42.5 -38t77.5 -17q68 0 108.5 45t40.5 110q0 50 -35.5 80t-110.5 30h-18l12 49h21q99 0 146 47q41 40 41 104q0 47 -28.5 72t-80.5 25q-73 0 -106 -38q24 -19 24 -49q0 -25 -15.5 -42.5t-40.5 -17.5t-39.5 15.5t-14.5 40.5q0 57 61.5 98t139.5 41 q88 0 137 -42t49 -104q0 -70 -51.5 -117t-141.5 -59v-2q67 -14 102 -51.5t35 -88.5q0 -81 -64.5 -138t-162.5 -57q-85 0 -144.5 41.5t-59.5 103.5q0 32 19 54.5t47 22.5q24 0 38.5 -15.5t14.5 -36.5q0 -45 -43 -66z" />
<glyph unicode="&#xb4;" horiz-adv-x="238" d="M265 611l-92 -84h-40l81 126q27 41 41 55.5t32 14.5q15 0 25 -10.5t10 -25.5q0 -17 -11.5 -31t-45.5 -45z" />
<glyph unicode="&#xb6;" horiz-adv-x="636" d="M236 -104l68 274q-105 9 -157.5 57.5t-52.5 121.5q0 108 80 182.5t244 74.5h276l-12 -51h-93l-165 -659h-55l165 659h-78l-165 -659h-55z" />
<glyph unicode="&#xb7;" horiz-adv-x="214" d="M127 263q-21 0 -35.5 15.5t-14.5 39.5t16 43.5t40 19.5q22 0 36.5 -15.5t14.5 -39.5t-16 -43.5t-41 -19.5z" />
<glyph unicode="&#xb8;" horiz-adv-x="282" d="M-63 -166q41 -31 80 -31q23 0 38.5 12.5t15.5 34.5q0 27 -29 36q-19 6 -43 6q-10 0 -21 -1l-10 20l115 96h53l-92 -75v-3q38 -5 61 -24t23 -50q0 -39 -30 -65.5t-78 -26.5q-63 0 -107 41z" />
<glyph unicode="&#xb9;" horiz-adv-x="446" d="M-1 0l12 52h145l117 469q-36 -16 -92 -16q-36 0 -60 8l11 42h5q56 0 109 20q54 21 85 60h52l-145 -583h141l-10 -52h-370z" />
<glyph unicode="&#xba;" horiz-adv-x="381" d="M272 646q58 0 92 -37.5t34 -97.5q0 -82 -51 -142.5t-124 -60.5q-58 0 -92 37.5t-34 97.5q0 82 51 142.5t124 60.5zM339 532q0 82 -64 82q-36 0 -64.5 -33t-41.5 -76t-13 -83q0 -82 64 -82q54 0 86.5 63t32.5 129z" />
<glyph unicode="&#xbb;" horiz-adv-x="492" d="M320 416l111 -157q18 -23 18 -36t-38 -44l-186 -148l-25 25l169 172l-84 168zM126 416l112 -157q17 -24 17 -36q0 -14 -37 -44l-187 -148l-25 25l169 172l-84 168z" />
<glyph unicode="&#xbf;" horiz-adv-x="419" d="M134 409q52 77 130 77q44 0 72 -25t28 -66q0 -43 -32 -73t-102 -64q-78 -38 -110 -67t-32 -76q0 -36 24.5 -61t77.5 -25q59 0 93 32q-23 20 -23 48q0 26 16 44.5t41 18.5q23 0 38.5 -16t15.5 -42q0 -51 -53.5 -90t-133.5 -39q-87 0 -133.5 42.5t-46.5 101.5 q0 63 42.5 101.5t133.5 79.5q64 29 89 46.5t25 45.5q-1 18 -13 29t-31 11q-44 0 -88 -53zM319 678q22 0 36.5 -15.5t14.5 -39.5t-16.5 -43.5t-40.5 -19.5q-22 0 -36.5 15.5t-14.5 39.5t16.5 43.5t40.5 19.5z" />
<glyph unicode="&#xc0;" horiz-adv-x="664" d="M447 851l18 -114h-35l-40 81q-29 60 -29 77q0 16 10.5 27t25.5 11q23 0 33 -19.5t17 -62.5zM358 52h103l-20 183h-235l-109 -183h88l-13 -52h-226l13 52h70l374 605h73l70 -605h84l-12 -52h-273zM234 282h202l-29 284h-3z" />
<glyph unicode="&#xc1;" horiz-adv-x="664" d="M554 821l-92 -84h-40l81 126q27 41 41 55.5t32 14.5q15 0 25 -10.5t10 -25.5q0 -17 -11.5 -31t-45.5 -45zM358 52h103l-20 183h-235l-109 -183h88l-13 -52h-226l13 52h70l374 605h73l70 -605h84l-12 -52h-273zM234 282h202l-29 284h-3z" />
<glyph unicode="&#xc2;" horiz-adv-x="664" d="M323 738l154 181h37l63 -181h-37l-59 102l-116 -102h-42zM358 52h103l-20 183h-235l-109 -183h88l-13 -52h-226l13 52h70l374 605h73l70 -605h84l-12 -52h-273zM234 282h202l-29 284h-3z" />
<glyph unicode="&#xc3;" horiz-adv-x="664" d="M410 808q-17 0 -29 -15t-28 -50h-39q22 65 47.5 94.5t60.5 29.5q33 0 69.5 -30.5t50.5 -30.5q17 0 30 15.5t27 49.5h39q-21 -65 -46.5 -94.5t-61.5 -29.5q-32 0 -68.5 30.5t-51.5 30.5zM358 52h103l-20 183h-235l-109 -183h88l-13 -52h-226l13 52h70l374 605h73l70 -605 h84l-12 -52h-273zM234 282h202l-29 284h-3z" />
<glyph unicode="&#xc4;" horiz-adv-x="664" d="M436 825q0 -25 -16.5 -45t-40.5 -20q-19 0 -30.5 13t-11.5 35q0 25 16 44.5t40 19.5q19 0 31 -13t12 -34zM610 825q0 -25 -16.5 -45t-41.5 -20q-19 0 -30.5 13t-11.5 35q0 25 16 44.5t40 19.5q20 0 32 -13t12 -34zM358 52h103l-20 183h-235l-109 -183h88l-13 -52h-226 l13 52h70l374 605h73l70 -605h84l-12 -52h-273zM234 282h202l-29 284h-3z" />
<glyph unicode="&#xc5;" horiz-adv-x="664" d="M563 762q0 -39 -23.5 -70.5t-63.5 -40.5l70 -599h84l-12 -52h-273l13 52h103l-20 183h-235l-109 -183h88l-13 -52h-226l13 52h70l373 604q-46 23 -46 77q0 46 32 80.5t83 34.5q41 0 66.5 -23.5t25.5 -62.5zM234 282h202l-29 284h-3zM401 731q0 -24 13 -38t37 -14 q30 0 48.5 26.5t18.5 58.5q0 24 -13 38t-37 14q-30 0 -48.5 -26.5t-18.5 -58.5z" />
<glyph unicode="&#xc6;" horiz-adv-x="953" d="M298 52h110l48 193h-210l-158 -193h90l-12 -52h-239l12 52h76l455 549h-100l12 51h611l-51 -204h-39q2 33 2 58q0 52 -7 70q-11 25 -60 25h-209l-60 -243h86q45 0 62.5 16.5t44.5 83.5h42l-62 -249h-40q3 32 3 53q0 25 -5 34q-8 17 -51 17h-91l-65 -261h206q55 0 80 29 t75 143h41l-56 -224h-553zM284 292h183l78 312h-6z" />
<glyph unicode="&#xc7;" horiz-adv-x="659" d="M172 -166q41 -31 80 -31q23 0 38.5 12.5t15.5 34.5q0 27 -28 36q-20 6 -44 6q-10 0 -21 -1l-10 20l90 76q-110 9 -167 81.5t-57 181.5q0 166 106.5 292t255.5 126q121 0 178 -81l38 78h53l-60 -244h-46q-9 193 -166 193q-83 0 -146.5 -58.5t-93 -140t-29.5 -166.5 q0 -99 46 -153.5t128 -54.5q81 0 136 56t100 154l48 -20q-92 -231 -272 -245l-66 -54v-3q38 -5 61 -24t23 -50q0 -39 -30 -65.5t-78 -26.5q-63 0 -107 41z" />
<glyph unicode="&#xc8;" horiz-adv-x="645" d="M453 851l18 -114h-35l-40 81q-29 60 -29 77q0 16 10.5 27t25.5 11q23 0 33 -19.5t17 -62.5zM138 652h547l-50 -204h-40q2 33 2 58q0 52 -7 70q-11 25 -60 25h-209l-60 -243h86q45 0 62.5 16.5t45.5 83.5h41l-62 -249h-40q4 34 4 56q0 23 -4 31q-9 17 -53 17h-91l-65 -261 h206q55 0 80 29t75 143h41l-55 -224h-554l12 52h110l136 549h-111z" />
<glyph unicode="&#xc9;" horiz-adv-x="645" d="M560 821l-92 -84h-40l81 126q27 41 41 55.5t32 14.5q15 0 25 -10.5t10 -25.5q0 -17 -11.5 -31t-45.5 -45zM138 652h547l-50 -204h-40q2 33 2 58q0 52 -7 70q-11 25 -60 25h-209l-60 -243h86q45 0 62.5 16.5t45.5 83.5h41l-62 -249h-40q4 34 4 56q0 23 -4 31q-9 17 -53 17 h-91l-65 -261h206q55 0 80 29t75 143h41l-55 -224h-554l12 52h110l136 549h-111z" />
<glyph unicode="&#xca;" horiz-adv-x="645" d="M328 738l154 181h37l63 -181h-37l-59 102l-116 -102h-42zM138 652h547l-50 -204h-40q2 33 2 58q0 52 -7 70q-11 25 -60 25h-209l-60 -243h86q45 0 62.5 16.5t45.5 83.5h41l-62 -249h-40q4 34 4 56q0 23 -4 31q-9 17 -53 17h-91l-65 -261h206q55 0 80 29t75 143h41 l-55 -224h-554l12 52h110l136 549h-111z" />
<glyph unicode="&#xcb;" horiz-adv-x="645" d="M441 825q0 -25 -16.5 -45t-40.5 -20q-19 0 -30.5 13t-11.5 35q0 25 16 44.5t40 19.5q19 0 31 -13t12 -34zM615 825q0 -25 -16.5 -45t-41.5 -20q-19 0 -30.5 13t-11.5 35q0 25 16 44.5t40 19.5q20 0 32 -13t12 -34zM138 652h547l-50 -204h-40q2 33 2 58q0 52 -7 70 q-11 25 -60 25h-209l-60 -243h86q45 0 62.5 16.5t45.5 83.5h41l-62 -249h-40q4 34 4 56q0 23 -4 31q-9 17 -53 17h-91l-65 -261h206q55 0 80 29t75 143h41l-55 -224h-554l12 52h110l136 549h-111z" />
<glyph unicode="&#xcc;" horiz-adv-x="384" d="M307 851l18 -114h-35l-40 81q-29 60 -29 77q0 16 10.5 27t25.5 11q23 0 33 -19.5t17 -62.5zM-15 0l12 52h110l136 549h-111l12 51h306l-13 -51h-109l-137 -549h112l-12 -52h-306z" />
<glyph unicode="&#xcd;" horiz-adv-x="384" d="M415 821l-92 -84h-40l81 126q27 41 41 55.5t32 14.5q15 0 25 -10.5t10 -25.5q0 -17 -11.5 -31t-45.5 -45zM-15 0l12 52h110l136 549h-111l12 51h306l-13 -51h-109l-137 -549h112l-12 -52h-306z" />
<glyph unicode="&#xce;" horiz-adv-x="384" d="M183 738l154 181h37l63 -181h-37l-59 102l-116 -102h-42zM-15 0l12 52h110l136 549h-111l12 51h306l-13 -51h-109l-137 -549h112l-12 -52h-306z" />
<glyph unicode="&#xcf;" horiz-adv-x="384" d="M296 825q0 -25 -16.5 -45t-40.5 -20q-19 0 -30.5 13t-11.5 35q0 25 16 44.5t40 19.5q19 0 31 -13t12 -34zM470 825q0 -25 -16.5 -45t-41.5 -20q-19 0 -30.5 13t-11.5 35q0 25 16 44.5t40 19.5q20 0 32 -13t12 -34zM-15 0l12 52h110l136 549h-111l12 51h306l-13 -51h-109 l-137 -549h112l-12 -52h-306z" />
<glyph unicode="&#xd0;" horiz-adv-x="690" d="M-22 0l12 52h110l65 264h-110l14 51h109l58 234h-110l12 51h248q146 0 222 -68t76 -181q0 -76 -31 -152.5t-89 -132.5q-118 -118 -331 -118h-255zM184 52h48q167 0 248 81q51 51 81 129.5t30 158.5q0 180 -212 180h-58l-59 -234h141l-13 -51h-140z" />
<glyph unicode="&#xd1;" horiz-adv-x="751" d="M447 808q-17 0 -29 -15t-28 -50h-39q22 65 47.5 94.5t60.5 29.5q33 0 69.5 -30.5t50.5 -30.5q17 0 30 15.5t27 49.5h39q-21 -65 -46.5 -94.5t-61.5 -29.5q-32 0 -68.5 30.5t-51.5 30.5zM522 -16l-239 568h-5l-125 -500h97l-12 -52h-257l12 52h102l136 549h-103l12 51h190 l217 -509h5l113 458h-98l13 51h255l-13 -51h-98l-154 -617h-48z" />
<glyph unicode="&#xd2;" horiz-adv-x="696" d="M454 851l18 -114h-35l-40 81q-29 60 -29 77q0 16 10.5 27t25.5 11q23 0 33 -19.5t17 -62.5zM70 263q0 103 45.5 195.5t127 150.5t178.5 58q114 0 185.5 -77t71.5 -201q0 -103 -45.5 -196t-127 -151t-178.5 -58q-114 0 -185.5 77.5t-71.5 201.5zM417 615q-64 0 -115.5 -38 t-81.5 -96t-45.5 -120.5t-15.5 -119.5q0 -102 46.5 -153t125.5 -51q64 0 116 37.5t81.5 96t45 120.5t15.5 119q0 103 -46.5 154t-125.5 51z" />
<glyph unicode="&#xd3;" horiz-adv-x="696" d="M562 821l-92 -84h-40l81 126q27 41 41 55.5t32 14.5q15 0 25 -10.5t10 -25.5q0 -17 -11.5 -31t-45.5 -45zM70 263q0 103 45.5 195.5t127 150.5t178.5 58q114 0 185.5 -77t71.5 -201q0 -103 -45.5 -196t-127 -151t-178.5 -58q-114 0 -185.5 77.5t-71.5 201.5zM417 615 q-64 0 -115.5 -38t-81.5 -96t-45.5 -120.5t-15.5 -119.5q0 -102 46.5 -153t125.5 -51q64 0 116 37.5t81.5 96t45 120.5t15.5 119q0 103 -46.5 154t-125.5 51z" />
<glyph unicode="&#xd4;" horiz-adv-x="696" d="M330 738l154 181h37l63 -181h-37l-59 102l-116 -102h-42zM70 263q0 103 45.5 195.5t127 150.5t178.5 58q114 0 185.5 -77t71.5 -201q0 -103 -45.5 -196t-127 -151t-178.5 -58q-114 0 -185.5 77.5t-71.5 201.5zM417 615q-64 0 -115.5 -38t-81.5 -96t-45.5 -120.5 t-15.5 -119.5q0 -102 46.5 -153t125.5 -51q64 0 116 37.5t81.5 96t45 120.5t15.5 119q0 103 -46.5 154t-125.5 51z" />
<glyph unicode="&#xd5;" horiz-adv-x="696" d="M417 808q-17 0 -29 -15t-28 -50h-39q22 65 47.5 94.5t60.5 29.5q33 0 69.5 -30.5t50.5 -30.5q17 0 30 15.5t27 49.5h39q-21 -65 -46.5 -94.5t-61.5 -29.5q-32 0 -68.5 30.5t-51.5 30.5zM70 263q0 103 45.5 195.5t127 150.5t178.5 58q114 0 185.5 -77t71.5 -201 q0 -103 -45.5 -196t-127 -151t-178.5 -58q-114 0 -185.5 77.5t-71.5 201.5zM417 615q-64 0 -115.5 -38t-81.5 -96t-45.5 -120.5t-15.5 -119.5q0 -102 46.5 -153t125.5 -51q64 0 116 37.5t81.5 96t45 120.5t15.5 119q0 103 -46.5 154t-125.5 51z" />
<glyph unicode="&#xd6;" horiz-adv-x="696" d="M443 825q0 -25 -16.5 -45t-40.5 -20q-19 0 -30.5 13t-11.5 35q0 25 16 44.5t40 19.5q19 0 31 -13t12 -34zM617 825q0 -25 -16.5 -45t-41.5 -20q-19 0 -30.5 13t-11.5 35q0 25 16 44.5t40 19.5q20 0 32 -13t12 -34zM70 263q0 103 45.5 195.5t127 150.5t178.5 58 q114 0 185.5 -77t71.5 -201q0 -103 -45.5 -196t-127 -151t-178.5 -58q-114 0 -185.5 77.5t-71.5 201.5zM417 615q-64 0 -115.5 -38t-81.5 -96t-45.5 -120.5t-15.5 -119.5q0 -102 46.5 -153t125.5 -51q64 0 116 37.5t81.5 96t45 120.5t15.5 119q0 103 -46.5 154t-125.5 51z " />
<glyph unicode="&#xd7;" horiz-adv-x="512" d="M307 275l108 -149l-41 -32l-108 149l-178 -148l-30 38l180 148l-107 148l41 33l107 -149l179 148l29 -38z" />
<glyph unicode="&#xd8;" horiz-adv-x="696" d="M70 263q0 103 45.5 195.5t127 150.5t178.5 58q111 0 181 -72l97 102l36 -32l-103 -107q46 -73 46 -169q0 -103 -45.5 -196t-127 -151t-178.5 -58q-112 0 -182 73l-96 -102l-36 31l103 108q-46 69 -46 169zM417 615q-64 0 -115.5 -38t-81.5 -96t-45.5 -120.5t-15.5 -119.5 q0 -55 14 -95l382 401q-44 68 -138 68zM589 410q0 54 -14 94l-382 -400q44 -67 138 -67q64 0 116 37.5t81.5 96t45 120.5t15.5 119z" />
<glyph unicode="&#xd9;" horiz-adv-x="722" d="M472 851l18 -114h-35l-40 81q-29 60 -29 77q0 16 10.5 27t25.5 11q23 0 33 -19.5t17 -62.5zM336 -16q-108 0 -166.5 48t-58.5 124q0 38 13 93l87 352h-96l13 51h278l-12 -51h-98l-84 -339q-15 -59 -15 -101q0 -57 40 -88t113 -31q83 0 134 51q43 43 65 127l94 381h-99 l12 51h249l-13 -51h-90l-101 -405q-22 -87 -75 -140q-70 -72 -190 -72z" />
<glyph unicode="&#xda;" horiz-adv-x="722" d="M579 821l-92 -84h-40l81 126q27 41 41 55.5t32 14.5q15 0 25 -10.5t10 -25.5q0 -17 -11.5 -31t-45.5 -45zM336 -16q-108 0 -166.5 48t-58.5 124q0 38 13 93l87 352h-96l13 51h278l-12 -51h-98l-84 -339q-15 -59 -15 -101q0 -57 40 -88t113 -31q83 0 134 51q43 43 65 127 l94 381h-99l12 51h249l-13 -51h-90l-101 -405q-22 -87 -75 -140q-70 -72 -190 -72z" />
<glyph unicode="&#xdb;" horiz-adv-x="722" d="M348 738l154 181h37l63 -181h-37l-59 102l-116 -102h-42zM336 -16q-108 0 -166.5 48t-58.5 124q0 38 13 93l87 352h-96l13 51h278l-12 -51h-98l-84 -339q-15 -59 -15 -101q0 -57 40 -88t113 -31q83 0 134 51q43 43 65 127l94 381h-99l12 51h249l-13 -51h-90l-101 -405 q-22 -87 -75 -140q-70 -72 -190 -72z" />
<glyph unicode="&#xdc;" horiz-adv-x="722" d="M460 825q0 -25 -16.5 -45t-40.5 -20q-19 0 -30.5 13t-11.5 35q0 25 16 44.5t40 19.5q19 0 31 -13t12 -34zM634 825q0 -25 -16.5 -45t-41.5 -20q-19 0 -30.5 13t-11.5 35q0 25 16 44.5t40 19.5q20 0 32 -13t12 -34zM336 -16q-108 0 -166.5 48t-58.5 124q0 38 13 93l87 352 h-96l13 51h278l-12 -51h-98l-84 -339q-15 -59 -15 -101q0 -57 40 -88t113 -31q83 0 134 51q43 43 65 127l94 381h-99l12 51h249l-13 -51h-90l-101 -405q-22 -87 -75 -140q-70 -72 -190 -72z" />
<glyph unicode="&#xdd;" horiz-adv-x="638" d="M551 821l-92 -84h-40l81 126q27 41 41 55.5t32 14.5q15 0 25 -10.5t10 -25.5q0 -17 -11.5 -31t-45.5 -45zM364 327l221 274h-81l12 51h221l-12 -51h-75l-276 -332l-56 -217h103l-13 -52h-286l12 52h99l59 230l-96 319h-81l13 51h263l-13 -51h-91z" />
<glyph unicode="&#xde;" horiz-adv-x="598" d="M-22 0l12 52h110l136 549h-111l13 51h303l-13 -51h-107l-19 -75h71q118 0 172 -42t54 -114q0 -92 -76.5 -153t-224.5 -61h-87l-26 -104h108l-12 -52h-303zM364 476h-74l-67 -270h86q100 0 148 47.5t48 121.5q0 49 -31.5 75t-109.5 26z" />
<glyph unicode="&#xdf;" horiz-adv-x="542" d="M354 347q0 -18 12.5 -32.5t57.5 -51.5q40 -33 59.5 -62t19.5 -67q0 -61 -45.5 -102t-113.5 -41q-56 0 -95 23.5t-39 64.5q0 25 15.5 44t40.5 19q19 0 31 -12.5t12 -31.5q0 -28 -25 -48q20 -17 61 -17q40 0 63 21.5t23 55.5q0 42 -65 97l-46 41q-13 12 -25 32t-12 41 q0 34 18.5 57.5t69.5 61.5q45 34 64 63.5t19 69.5q0 36 -22.5 58t-58.5 22q-56 0 -88 -44t-50 -133l-85 -401q-50 -238 -174 -238q-33 0 -50.5 16t-17.5 39t14.5 39.5t36.5 16.5q19 0 29.5 -11.5t10.5 -27.5q0 -23 -13 -38q26 0 42.5 33t39.5 143l75 351h-99l12 44h95 q27 126 87.5 188.5t140.5 62.5q65 0 108 -33.5t43 -87.5q0 -83 -100 -143q-43 -26 -59.5 -44t-16.5 -38z" />
<glyph unicode="&#xe0;" d="M465 452l-79 -290q-15 -56 -15 -82q0 -30 24 -30q34 0 76 111l34 -11q-30 -88 -61.5 -123.5t-69.5 -35.5q-30 0 -49.5 21t-19.5 60q0 11 2 25l-7 3q-64 -109 -148 -109q-53 0 -86 41.5t-33 109.5q0 71 27 136t71 109q71 71 143 71q77 0 93 -87l22 81h76zM180 49 q41 0 81 47t62.5 108.5t22.5 109.5q0 40 -17 69.5t-52 29.5q-64 0 -114.5 -89.5t-50.5 -175.5q0 -48 18 -73.5t50 -25.5zM309 641l18 -114h-35l-40 81q-29 60 -29 77q0 16 10.5 27t25.5 11q23 0 33 -19.5t17 -62.5z" />
<glyph unicode="&#xe1;" d="M416 611l-92 -84h-40l81 126q27 41 41 55.5t32 14.5q15 0 25 -10.5t10 -25.5q0 -17 -11.5 -31t-45.5 -45zM465 452l-79 -290q-15 -56 -15 -82q0 -30 24 -30q34 0 76 111l34 -11q-30 -88 -61.5 -123.5t-69.5 -35.5q-30 0 -49.5 21t-19.5 60q0 11 2 25l-7 3 q-64 -109 -148 -109q-53 0 -86 41.5t-33 109.5q0 71 27 136t71 109q71 71 143 71q77 0 93 -87l22 81h76zM180 49q41 0 81 47t62.5 108.5t22.5 109.5q0 40 -17 69.5t-52 29.5q-64 0 -114.5 -89.5t-50.5 -175.5q0 -48 18 -73.5t50 -25.5z" />
<glyph unicode="&#xe2;" d="M184 528l154 181h37l63 -181h-37l-59 102l-116 -102h-42zM465 452l-79 -290q-15 -56 -15 -82q0 -30 24 -30q34 0 76 111l34 -11q-30 -88 -61.5 -123.5t-69.5 -35.5q-30 0 -49.5 21t-19.5 60q0 11 2 25l-7 3q-64 -109 -148 -109q-53 0 -86 41.5t-33 109.5q0 71 27 136 t71 109q71 71 143 71q77 0 93 -87l22 81h76zM180 49q41 0 81 47t62.5 108.5t22.5 109.5q0 40 -17 69.5t-52 29.5q-64 0 -114.5 -89.5t-50.5 -175.5q0 -48 18 -73.5t50 -25.5z" />
<glyph unicode="&#xe3;" d="M272 598q-17 0 -29 -15t-28 -50h-39q22 65 47.5 94.5t60.5 29.5q33 0 69.5 -30.5t50.5 -30.5q17 0 30 15.5t27 49.5h39q-21 -65 -46.5 -94.5t-61.5 -29.5q-32 0 -68.5 30.5t-51.5 30.5zM465 452l-79 -290q-15 -56 -15 -82q0 -30 24 -30q34 0 76 111l34 -11 q-30 -88 -61.5 -123.5t-69.5 -35.5q-30 0 -49.5 21t-19.5 60q0 11 2 25l-7 3q-64 -109 -148 -109q-53 0 -86 41.5t-33 109.5q0 71 27 136t71 109q71 71 143 71q77 0 93 -87l22 81h76zM180 49q41 0 81 47t62.5 108.5t22.5 109.5q0 40 -17 69.5t-52 29.5q-64 0 -114.5 -89.5 t-50.5 -175.5q0 -48 18 -73.5t50 -25.5z" />
<glyph unicode="&#xe4;" d="M297 615q0 -25 -16.5 -45t-40.5 -20q-19 0 -30.5 13t-11.5 35q0 25 16 44.5t40 19.5q19 0 31 -13t12 -34zM471 615q0 -25 -16.5 -45t-41.5 -20q-19 0 -30.5 13t-11.5 35q0 25 16 44.5t40 19.5q20 0 32 -13t12 -34zM465 452l-79 -290q-15 -56 -15 -82q0 -30 24 -30 q34 0 76 111l34 -11q-30 -88 -61.5 -123.5t-69.5 -35.5q-30 0 -49.5 21t-19.5 60q0 11 2 25l-7 3q-64 -109 -148 -109q-53 0 -86 41.5t-33 109.5q0 71 27 136t71 109q71 71 143 71q77 0 93 -87l22 81h76zM180 49q41 0 81 47t62.5 108.5t22.5 109.5q0 40 -17 69.5t-52 29.5 q-64 0 -114.5 -89.5t-50.5 -175.5q0 -48 18 -73.5t50 -25.5z" />
<glyph unicode="&#xe5;" d="M465 452l-79 -290q-15 -56 -15 -82q0 -30 24 -30q34 0 76 111l34 -11q-30 -88 -61.5 -123.5t-69.5 -35.5q-30 0 -49.5 21t-19.5 60q0 11 2 25l-7 3q-64 -109 -148 -109q-53 0 -86 41.5t-33 109.5q0 71 27 136t71 109q71 71 143 71q77 0 93 -87l22 81h76zM180 49 q41 0 81 47t62.5 108.5t22.5 109.5q0 40 -17 69.5t-52 29.5q-64 0 -114.5 -89.5t-50.5 -175.5q0 -48 18 -73.5t50 -25.5zM449 637q0 -46 -32.5 -81t-83.5 -35q-41 0 -66.5 24t-25.5 63q0 46 32 80.5t83 34.5q41 0 67 -23.5t26 -62.5zM286 606q0 -24 13.5 -38t36.5 -14 q30 0 48.5 26.5t18.5 58.5q0 24 -13 38t-37 14q-30 0 -48.5 -26.5t-18.5 -58.5z" />
<glyph unicode="&#xe6;" horiz-adv-x="687" d="M555 458q53 0 82.5 -26t29.5 -66q0 -69 -76 -117.5t-226 -64.5q-2 -10 -2 -29q0 -59 25.5 -88t68.5 -29q80 0 148 101l32 -20q-86 -128 -195 -128t-138 98q-68 -95 -174 -95q-56 0 -87.5 28t-31.5 74q0 74 80.5 115.5t223.5 47.5q18 62 18 80q0 36 -26.5 57.5t-70.5 21.5 q-35 0 -65 -14q16 -14 16 -40q0 -23 -14.5 -40t-42.5 -17q-19 0 -32 13t-13 35q0 43 44.5 72.5t118.5 29.5q52 0 89.5 -20.5t50.5 -57.5q76 79 167 79zM295 152q0 36 8 73q-208 -19 -208 -120q0 -27 17 -45t48 -18q71 0 136 84q-1 8 -1 26zM541 418q-57 0 -103.5 -60 t-65.5 -137q223 30 223 143q0 24 -14.5 39t-39.5 15z" />
<glyph unicode="&#xe7;" horiz-adv-x="433" d="M51 -166q41 -31 80 -31q23 0 38.5 12.5t15.5 34.5q0 27 -29 36q-19 6 -43 6q-10 0 -21 -1l-10 20l96 81q-67 5 -107 54t-40 124q0 108 78 198t178 90q54 0 90 -28t36 -71q0 -27 -15 -48.5t-39 -21.5q-20 0 -33 12.5t-13 31.5q0 34 33 61q-21 24 -61 24q-51 0 -92.5 -43.5 t-61.5 -99.5t-20 -106q0 -63 27 -95.5t70 -32.5q75 0 134 105l32 -19q-57 -109 -137 -130l-79 -65v-3q38 -5 61 -24t23 -50q0 -39 -30 -65.5t-78 -26.5q-63 0 -107 41z" />
<glyph unicode="&#xe8;" horiz-adv-x="435" d="M414 366q0 -69 -76 -117.5t-225 -64.5q-2 -10 -2 -29q0 -59 25.5 -88t68.5 -29q79 0 148 101l31 -20q-84 -128 -200 -128q-68 0 -110.5 45.5t-42.5 122.5q0 113 86 206t186 93q52 0 81.5 -26t29.5 -66zM288 418q-56 0 -102.5 -60t-65.5 -137q222 30 222 143 q0 24 -14.5 39t-39.5 15zM295 641l18 -114h-35l-40 81q-29 60 -29 77q0 16 10.5 27t25.5 11q23 0 33 -19.5t17 -62.5z" />
<glyph unicode="&#xe9;" horiz-adv-x="435" d="M402 611l-92 -84h-40l81 126q27 41 41 55.5t32 14.5q15 0 25 -10.5t10 -25.5q0 -17 -11.5 -31t-45.5 -45zM414 366q0 -69 -76 -117.5t-225 -64.5q-2 -10 -2 -29q0 -59 25.5 -88t68.5 -29q79 0 148 101l31 -20q-84 -128 -200 -128q-68 0 -110.5 45.5t-42.5 122.5 q0 113 86 206t186 93q52 0 81.5 -26t29.5 -66zM288 418q-56 0 -102.5 -60t-65.5 -137q222 30 222 143q0 24 -14.5 39t-39.5 15z" />
<glyph unicode="&#xea;" horiz-adv-x="435" d="M171 528l154 181h37l63 -181h-37l-59 102l-116 -102h-42zM414 366q0 -69 -76 -117.5t-225 -64.5q-2 -10 -2 -29q0 -59 25.5 -88t68.5 -29q79 0 148 101l31 -20q-84 -128 -200 -128q-68 0 -110.5 45.5t-42.5 122.5q0 113 86 206t186 93q52 0 81.5 -26t29.5 -66zM288 418 q-56 0 -102.5 -60t-65.5 -137q222 30 222 143q0 24 -14.5 39t-39.5 15z" />
<glyph unicode="&#xeb;" horiz-adv-x="435" d="M284 615q0 -25 -16.5 -45t-40.5 -20q-19 0 -30.5 13t-11.5 35q0 25 16 44.5t40 19.5q19 0 31 -13t12 -34zM458 615q0 -25 -16.5 -45t-41.5 -20q-19 0 -30.5 13t-11.5 35q0 25 16 44.5t40 19.5q20 0 32 -13t12 -34zM414 366q0 -69 -76 -117.5t-225 -64.5q-2 -10 -2 -29 q0 -59 25.5 -88t68.5 -29q79 0 148 101l31 -20q-84 -128 -200 -128q-68 0 -110.5 45.5t-42.5 122.5q0 113 86 206t186 93q52 0 81.5 -26t29.5 -66zM288 418q-56 0 -102.5 -60t-65.5 -137q222 30 222 143q0 24 -14.5 39t-39.5 15z" />
<glyph unicode="&#xec;" horiz-adv-x="318" d="M184 641l18 -114h-35l-40 81q-29 60 -29 77q0 16 10.5 27t25.5 11q23 0 33 -19.5t17 -62.5zM240 362q0 -44 -42 -149.5t-42 -136.5q0 -26 23 -26q34 0 77 111l34 -11q-54 -159 -134 -159q-34 0 -55 23q-20 21 -20 59q0 49 44 159q43 108 43 147q0 28 -19 28 q-22 0 -43 -28.5t-50 -84.5l-34 15q34 73 68 111t75 38q34 0 54.5 -25.5t20.5 -70.5z" />
<glyph unicode="&#xed;" horiz-adv-x="318" d="M290 611l-92 -84h-40l81 126q27 41 41 55.5t32 14.5q15 0 25 -10.5t10 -25.5q0 -17 -11.5 -31t-45.5 -45zM240 362q0 -44 -42 -149.5t-42 -136.5q0 -26 23 -26q34 0 77 111l34 -11q-54 -159 -134 -159q-34 0 -55 23q-20 21 -20 59q0 49 44 159q43 108 43 147q0 28 -19 28 q-22 0 -43 -28.5t-50 -84.5l-34 15q34 73 68 111t75 38q34 0 54.5 -25.5t20.5 -70.5z" />
<glyph unicode="&#xee;" horiz-adv-x="318" d="M60 528l154 181h37l63 -181h-37l-59 102l-116 -102h-42zM240 362q0 -44 -42 -149.5t-42 -136.5q0 -26 23 -26q34 0 77 111l34 -11q-54 -159 -134 -159q-34 0 -55 23q-20 21 -20 59q0 49 44 159q43 108 43 147q0 28 -19 28q-22 0 -43 -28.5t-50 -84.5l-34 15q34 73 68 111 t75 38q34 0 54.5 -25.5t20.5 -70.5z" />
<glyph unicode="&#xef;" horiz-adv-x="318" d="M172 615q0 -25 -16.5 -45t-40.5 -20q-19 0 -30.5 13t-11.5 35q0 25 16 44.5t40 19.5q19 0 31 -13t12 -34zM346 615q0 -25 -16.5 -45t-41.5 -20q-19 0 -30.5 13t-11.5 35q0 25 16 44.5t40 19.5q20 0 32 -13t12 -34zM240 362q0 -44 -42 -149.5t-42 -136.5q0 -26 23 -26 q34 0 77 111l34 -11q-54 -159 -134 -159q-34 0 -55 23q-20 21 -20 59q0 49 44 159q43 108 43 147q0 28 -19 28q-22 0 -43 -28.5t-50 -84.5l-34 15q34 73 68 111t75 38q34 0 54.5 -25.5t20.5 -70.5z" />
<glyph unicode="&#xf0;" horiz-adv-x="487" d="M501 609l-100 -35q53 -108 53 -236q0 -146 -70.5 -246.5t-183.5 -100.5q-77 0 -122 51t-45 134q0 113 72 195t163 82q86 0 115 -74q-5 92 -40 175l-122 -42l-13 39l118 41q-14 28 -41 73l54 13q23 -33 42 -66l106 37zM365 293q0 59 -24.5 87.5t-66.5 28.5 q-48 0 -86.5 -42.5t-57 -102.5t-18.5 -120q0 -56 23.5 -84t63.5 -28q50 0 89.5 44t58 102.5t18.5 114.5z" />
<glyph unicode="&#xf1;" horiz-adv-x="559" d="M298 598q-17 0 -29 -15t-28 -50h-39q22 65 47.5 94.5t60.5 29.5q33 0 69.5 -30.5t50.5 -30.5q17 0 30 15.5t27 49.5h39q-21 -65 -46.5 -94.5t-61.5 -29.5q-32 0 -68.5 30.5t-51.5 30.5zM410 75q0 -25 21 -25q34 0 74 111l35 -11q-30 -88 -62.5 -123.5t-68.5 -35.5 q-32 0 -52.5 23t-20.5 65q1 48 36 142.5t35 133.5q0 41 -35 41q-49 0 -112.5 -98t-118.5 -298h-81l84 315q10 37 11 58t-3.5 27.5t-15.5 6.5q-19 0 -38.5 -28t-47.5 -85l-34 15q32 74 64.5 110.5t72.5 36.5q63 0 63 -82q0 -49 -22 -117l7 -3q98 204 201 204q37 0 60 -27.5 t23 -72.5q0 -44 -37.5 -147t-37.5 -136z" />
<glyph unicode="&#xf2;" horiz-adv-x="473" d="M274 458q77 0 121.5 -51.5t44.5 -133.5q0 -113 -71.5 -197.5t-168.5 -84.5q-78 0 -122 51.5t-44 133.5q0 113 71.5 197.5t168.5 84.5zM361 306q0 56 -23.5 84t-63.5 28q-48 0 -86.5 -46.5t-57 -108t-18.5 -119.5q0 -56 23.5 -84t63.5 -28q48 0 86.5 46.5t57 108 t18.5 119.5zM296 641l18 -114h-35l-40 81q-29 60 -29 77q0 16 10.5 27t25.5 11q23 0 33 -19.5t17 -62.5z" />
<glyph unicode="&#xf3;" horiz-adv-x="473" d="M404 611l-92 -84h-40l81 126q27 41 41 55.5t32 14.5q15 0 25 -10.5t10 -25.5q0 -17 -11.5 -31t-45.5 -45zM274 458q77 0 121.5 -51.5t44.5 -133.5q0 -113 -71.5 -197.5t-168.5 -84.5q-78 0 -122 51.5t-44 133.5q0 113 71.5 197.5t168.5 84.5zM361 306q0 56 -23.5 84 t-63.5 28q-48 0 -86.5 -46.5t-57 -108t-18.5 -119.5q0 -56 23.5 -84t63.5 -28q48 0 86.5 46.5t57 108t18.5 119.5z" />
<glyph unicode="&#xf4;" horiz-adv-x="473" d="M172 528l154 181h37l63 -181h-37l-59 102l-116 -102h-42zM274 458q77 0 121.5 -51.5t44.5 -133.5q0 -113 -71.5 -197.5t-168.5 -84.5q-78 0 -122 51.5t-44 133.5q0 113 71.5 197.5t168.5 84.5zM361 306q0 56 -23.5 84t-63.5 28q-48 0 -86.5 -46.5t-57 -108t-18.5 -119.5 q0 -56 23.5 -84t63.5 -28q48 0 86.5 46.5t57 108t18.5 119.5z" />
<glyph unicode="&#xf5;" horiz-adv-x="473" d="M259 598q-17 0 -29 -15t-28 -50h-39q22 65 47.5 94.5t60.5 29.5q33 0 69.5 -30.5t50.5 -30.5q17 0 30 15.5t27 49.5h39q-21 -65 -46.5 -94.5t-61.5 -29.5q-32 0 -68.5 30.5t-51.5 30.5zM274 458q77 0 121.5 -51.5t44.5 -133.5q0 -113 -71.5 -197.5t-168.5 -84.5 q-78 0 -122 51.5t-44 133.5q0 113 71.5 197.5t168.5 84.5zM361 306q0 56 -23.5 84t-63.5 28q-48 0 -86.5 -46.5t-57 -108t-18.5 -119.5q0 -56 23.5 -84t63.5 -28q48 0 86.5 46.5t57 108t18.5 119.5z" />
<glyph unicode="&#xf6;" horiz-adv-x="473" d="M285 615q0 -25 -16.5 -45t-40.5 -20q-19 0 -30.5 13t-11.5 35q0 25 16 44.5t40 19.5q19 0 31 -13t12 -34zM459 615q0 -25 -16.5 -45t-41.5 -20q-19 0 -30.5 13t-11.5 35q0 25 16 44.5t40 19.5q20 0 32 -13t12 -34zM274 458q77 0 121.5 -51.5t44.5 -133.5 q0 -113 -71.5 -197.5t-168.5 -84.5q-78 0 -122 51.5t-44 133.5q0 113 71.5 197.5t168.5 84.5zM361 306q0 56 -23.5 84t-63.5 28q-48 0 -86.5 -46.5t-57 -108t-18.5 -119.5q0 -56 23.5 -84t63.5 -28q48 0 86.5 46.5t57 108t18.5 119.5z" />
<glyph unicode="&#xf7;" horiz-adv-x="512" d="M473 253h-417l12 49h416zM229 68q-21 0 -34.5 14.5t-13.5 37.5t15 42t39 19q21 0 34.5 -14.5t13.5 -38.5q0 -23 -15.5 -41.5t-38.5 -18.5zM305 375q-21 0 -34.5 14t-13.5 38q0 23 15.5 41.5t38.5 18.5q21 0 34.5 -14t13.5 -38q0 -23 -15 -41.5t-39 -18.5z" />
<glyph unicode="&#xf8;" horiz-adv-x="473" d="M21 -42l-29 28l70 77q-28 48 -28 113q0 113 71.5 197.5t168.5 84.5q67 0 111 -41l68 74l29 -28l-71 -78q29 -46 29 -112q0 -113 -71.5 -197.5t-168.5 -84.5q-69 0 -112 41zM362 316q0 6 -2 20l-236 -264q21 -40 76 -40q50 0 89 49t57 113q16 58 16 110v12zM111 133 q0 -4 0.5 -10t0.5 -9l236 263q-21 41 -74 41q-50 0 -89.5 -49t-57.5 -113q-16 -58 -16 -111v-12z" />
<glyph unicode="&#xf9;" horiz-adv-x="555" d="M414 -9q-70 0 -70 85q0 45 22 115l-7 3q-97 -203 -199 -203q-38 0 -60.5 27t-22.5 73q0 44 36.5 148t36.5 135q0 26 -19 26q-17 0 -34 -23.5t-46 -81.5l-34 15q35 76 66 112t72 36q32 0 51.5 -23t18.5 -65q0 -46 -35 -141t-35 -132q0 -43 35 -43q49 0 112 97.5t118 300.5 h81l-77 -290q-15 -57 -15 -82q0 -30 24 -30q20 0 37.5 27.5t38.5 83.5l34 -11q-53 -159 -129 -159zM315 641l18 -114h-35l-40 81q-29 60 -29 77q0 16 10.5 27t25.5 11q23 0 33 -19.5t17 -62.5z" />
<glyph unicode="&#xfa;" horiz-adv-x="555" d="M422 611l-92 -84h-40l81 126q27 41 41 55.5t32 14.5q15 0 25 -10.5t10 -25.5q0 -17 -11.5 -31t-45.5 -45zM414 -9q-70 0 -70 85q0 45 22 115l-7 3q-97 -203 -199 -203q-38 0 -60.5 27t-22.5 73q0 44 36.5 148t36.5 135q0 26 -19 26q-17 0 -34 -23.5t-46 -81.5l-34 15 q35 76 66 112t72 36q32 0 51.5 -23t18.5 -65q0 -46 -35 -141t-35 -132q0 -43 35 -43q49 0 112 97.5t118 300.5h81l-77 -290q-15 -57 -15 -82q0 -30 24 -30q20 0 37.5 27.5t38.5 83.5l34 -11q-53 -159 -129 -159z" />
<glyph unicode="&#xfb;" horiz-adv-x="555" d="M191 528l154 181h37l63 -181h-37l-59 102l-116 -102h-42zM414 -9q-70 0 -70 85q0 45 22 115l-7 3q-97 -203 -199 -203q-38 0 -60.5 27t-22.5 73q0 44 36.5 148t36.5 135q0 26 -19 26q-17 0 -34 -23.5t-46 -81.5l-34 15q35 76 66 112t72 36q32 0 51.5 -23t18.5 -65 q0 -46 -35 -141t-35 -132q0 -43 35 -43q49 0 112 97.5t118 300.5h81l-77 -290q-15 -57 -15 -82q0 -30 24 -30q20 0 37.5 27.5t38.5 83.5l34 -11q-53 -159 -129 -159z" />
<glyph unicode="&#xfc;" horiz-adv-x="555" d="M303 615q0 -25 -16.5 -45t-40.5 -20q-19 0 -30.5 13t-11.5 35q0 25 16 44.5t40 19.5q19 0 31 -13t12 -34zM477 615q0 -25 -16.5 -45t-41.5 -20q-19 0 -30.5 13t-11.5 35q0 25 16 44.5t40 19.5q20 0 32 -13t12 -34zM414 -9q-70 0 -70 85q0 45 22 115l-7 3 q-97 -203 -199 -203q-38 0 -60.5 27t-22.5 73q0 44 36.5 148t36.5 135q0 26 -19 26q-17 0 -34 -23.5t-46 -81.5l-34 15q35 76 66 112t72 36q32 0 51.5 -23t18.5 -65q0 -46 -35 -141t-35 -132q0 -43 35 -43q49 0 112 97.5t118 300.5h81l-77 -290q-15 -57 -15 -82 q0 -30 24 -30q20 0 37.5 27.5t38.5 83.5l34 -11q-53 -159 -129 -159z" />
<glyph unicode="&#xfd;" d="M428 611l-92 -84h-40l81 126q27 41 41 55.5t32 14.5q15 0 25 -10.5t10 -25.5q0 -17 -11.5 -31t-45.5 -45zM156 458q32 0 51.5 -23t18.5 -63q0 -47 -31.5 -130.5t-31.5 -114.5q0 -43 40 -43q54 0 115 86.5t107 281.5h76l-81 -344q-34 -143 -97.5 -207t-158.5 -64 q-52 0 -90.5 19.5t-38.5 61.5q0 23 16 42.5t40 19.5q22 0 34 -14q11 -12 11 -30q0 -28 -22 -45q20 -12 52 -12q69 0 114.5 60.5t75.5 196.5l8 38l-6 3q-90 -156 -183 -156q-41 0 -65.5 26.5t-24.5 71.5q0 39 33 131.5t33 123.5q0 25 -18 25q-19 0 -37.5 -26t-43.5 -79 l-34 16q34 75 66 111.5t72 36.5z" />
<glyph unicode="&#xfe;" horiz-adv-x="483" d="M305 402q-62 0 -116.5 -92.5t-54.5 -172.5q0 -40 19.5 -66.5t59.5 -26.5q45 0 82.5 46t56.5 105.5t19 111.5q0 95 -66 95zM272 687l-91 -326l7 -3q66 100 142 100q54 0 87 -41.5t33 -110.5q0 -120 -72 -213.5t-159 -93.5q-37 0 -65.5 18.5t-39.5 51.5l-42 -167h99 l-14 -52h-248l14 52h73l186 731h-93l14 54h169z" />
<glyph unicode="&#xff;" d="M309 615q0 -25 -16.5 -45t-40.5 -20q-19 0 -30.5 13t-11.5 35q0 25 16 44.5t40 19.5q19 0 31 -13t12 -34zM483 615q0 -25 -16.5 -45t-41.5 -20q-19 0 -30.5 13t-11.5 35q0 25 16 44.5t40 19.5q20 0 32 -13t12 -34zM156 458q32 0 51.5 -23t18.5 -63q0 -47 -31.5 -130.5 t-31.5 -114.5q0 -43 40 -43q54 0 115 86.5t107 281.5h76l-81 -344q-34 -143 -97.5 -207t-158.5 -64q-52 0 -90.5 19.5t-38.5 61.5q0 23 16 42.5t40 19.5q22 0 34 -14q11 -12 11 -30q0 -28 -22 -45q20 -12 52 -12q69 0 114.5 60.5t75.5 196.5l8 38l-6 3q-90 -156 -183 -156 q-41 0 -65.5 26.5t-24.5 71.5q0 39 33 131.5t33 123.5q0 25 -18 25q-19 0 -37.5 -26t-43.5 -79l-34 16q34 75 66 111.5t72 36.5z" />
<glyph unicode="&#x152;" horiz-adv-x="977" d="M513 652h498l-51 -204h-39q2 33 2 58q0 52 -7 70q-11 25 -60 25h-209l-60 -243h86q45 0 62.5 16.5t44.5 83.5h42l-62 -249h-40q3 32 3 53q0 25 -5 34q-8 17 -51 17h-91l-66 -261h207q55 0 80 29t75 143h41l-56 -224h-497q-146 0 -222 68.5t-76 181.5q0 76 31 152t89 133 q119 117 331 117zM562 601h-48q-166 0 -248 -82q-51 -51 -81 -129.5t-30 -157.5q0 -180 212 -180h58z" />
<glyph unicode="&#x153;" horiz-adv-x="744" d="M662 139l31 -20q-84 -128 -196 -128q-49 0 -84 24t-49 68q-65 -92 -166 -92q-76 0 -120 51.5t-44 133.5q0 113 71.5 197.5t168.5 84.5q111 0 147 -106q37 48 88 77t103 29t81.5 -26t29.5 -66q0 -69 -76 -117.5t-225 -64.5q-2 -10 -2 -29q0 -59 25.5 -88t68.5 -29 q79 0 148 101zM361 306q0 56 -23.5 84t-63.5 28q-48 0 -86.5 -46.5t-57 -108t-18.5 -119.5q0 -56 23.5 -84t63.5 -28q48 0 86.5 46.5t57 108t18.5 119.5zM597 418q-56 0 -102.5 -60t-65.5 -137q222 30 222 143q0 24 -14.5 39t-39.5 15z" />
<glyph unicode="&#x178;" horiz-adv-x="638" d="M432 825q0 -25 -16.5 -45t-40.5 -20q-19 0 -30.5 13t-11.5 35q0 25 16 44.5t40 19.5q19 0 31 -13t12 -34zM606 825q0 -25 -16.5 -45t-41.5 -20q-19 0 -30.5 13t-11.5 35q0 25 16 44.5t40 19.5q20 0 32 -13t12 -34zM364 327l221 274h-81l12 51h221l-12 -51h-75l-276 -332 l-56 -217h103l-13 -52h-286l12 52h99l59 230l-96 319h-81l13 51h263l-13 -51h-91z" />
<glyph unicode="&#x2c6;" horiz-adv-x="299" d="M102 528l154 181h37l63 -181h-37l-59 102l-116 -102h-42z" />
<glyph unicode="&#x2dc;" horiz-adv-x="331" d="M195 598q-17 0 -29 -15t-28 -50h-39q22 65 47.5 94.5t60.5 29.5q33 0 69.5 -30.5t50.5 -30.5q17 0 30 15.5t27 49.5h39q-21 -65 -46.5 -94.5t-61.5 -29.5q-32 0 -68.5 30.5t-51.5 30.5z" />
<glyph unicode="&#x2000;" horiz-adv-x="466" />
<glyph unicode="&#x2001;" horiz-adv-x="933" />
<glyph unicode="&#x2002;" horiz-adv-x="466" />
<glyph unicode="&#x2003;" horiz-adv-x="933" />
<glyph unicode="&#x2004;" horiz-adv-x="311" />
<glyph unicode="&#x2005;" horiz-adv-x="233" />
<glyph unicode="&#x2006;" horiz-adv-x="155" />
<glyph unicode="&#x2007;" horiz-adv-x="155" />
<glyph unicode="&#x2008;" horiz-adv-x="116" />
<glyph unicode="&#x2009;" horiz-adv-x="186" />
<glyph unicode="&#x200a;" horiz-adv-x="51" />
<glyph unicode="&#x2010;" horiz-adv-x="364" d="M52 210l16 65h254l-17 -65h-253z" />
<glyph unicode="&#x2011;" horiz-adv-x="364" d="M52 210l16 65h254l-17 -65h-253z" />
<glyph unicode="&#x2013;" horiz-adv-x="540" d="M52 211l14 57h430l-14 -57h-430z" />
<glyph unicode="&#x2014;" horiz-adv-x="790" d="M52 211l14 57h680l-14 -57h-680z" />
<glyph unicode="&#x2018;" horiz-adv-x="214" d="M282 671l9 -33q-104 -37 -125 -98l3 -3q8 5 17 5q18 0 29.5 -11.5t11.5 -33.5q0 -24 -16 -43.5t-41 -19.5q-29 0 -44 19t-15 48q0 50 41 96.5t130 73.5z" />
<glyph unicode="&#x2019;" horiz-adv-x="214" d="M93 431l-10 32q104 37 125 98l-3 3q-8 -5 -17 -5q-18 0 -29.5 12t-11.5 33q0 24 16 43.5t42 19.5q28 0 43 -19t15 -48q0 -50 -41 -96t-129 -73z" />
<glyph unicode="&#x201a;" horiz-adv-x="214" d="M-49 -136l-10 32q104 37 125 98l-3 3q-8 -5 -17 -5q-18 0 -29.5 12t-11.5 33q0 24 16 43.5t42 19.5q28 0 43 -19t15 -48q0 -50 -41 -96t-129 -73z" />
<glyph unicode="&#x201c;" horiz-adv-x="390" d="M458 671l9 -33q-104 -37 -125 -98l3 -3q8 5 17 5q18 0 29.5 -11.5t11.5 -33.5q0 -24 -16 -43.5t-41 -19.5q-29 0 -44 19t-15 48q0 50 41 96.5t130 73.5zM282 671l9 -33q-104 -37 -125 -98l3 -3q8 5 17 5q18 0 29.5 -11.5t11.5 -33.5q0 -24 -16 -43.5t-41 -19.5 q-29 0 -44 19t-15 48q0 50 41 96.5t130 73.5z" />
<glyph unicode="&#x201d;" horiz-adv-x="390" d="M93 431l-10 32q104 37 125 98l-3 3q-8 -5 -17 -5q-18 0 -29.5 12t-11.5 33q0 24 16 43.5t42 19.5q28 0 43 -19t15 -48q0 -50 -41 -96t-129 -73zM269 431l-10 32q104 37 125 98l-3 3q-8 -5 -17 -5q-17 0 -29 12t-12 33q0 24 16.5 43.5t41.5 19.5q28 0 43 -19t15 -48 q0 -50 -41 -96t-129 -73z" />
<glyph unicode="&#x201e;" horiz-adv-x="390" d="M-49 -136l-10 32q104 37 125 98l-3 3q-8 -5 -17 -5q-18 0 -29.5 12t-11.5 33q0 24 16 43.5t42 19.5q28 0 43 -19t15 -48q0 -50 -41 -96t-129 -73zM127 -136l-10 32q104 37 125 98l-3 3q-8 -5 -17 -5q-17 0 -29 12t-12 33q0 24 16.5 43.5t41.5 19.5q28 0 43 -19t15 -48 q0 -50 -41 -96t-129 -73z" />
<glyph unicode="&#x2022;" horiz-adv-x="455" d="M241 193q-46 0 -76.5 30.5t-30.5 78.5q0 55 39 95.5t92 40.5q46 0 76.5 -30.5t30.5 -78.5q0 -55 -39 -95.5t-92 -40.5z" />
<glyph unicode="&#x2026;" horiz-adv-x="633" d="M479 -15q-21 0 -35.5 15.5t-14.5 39.5t16 43.5t40 19.5q22 0 36.5 -15.5t14.5 -39.5t-16 -43.5t-41 -19.5zM270 -15q-21 0 -35.5 15.5t-14.5 39.5t16 43.5t40 19.5q22 0 36.5 -15.5t14.5 -39.5t-16 -43.5t-41 -19.5zM61 -15q-21 0 -35.5 15.5t-14.5 39.5t16 43.5t40 19.5 q22 0 36.5 -15.5t14.5 -39.5t-16 -43.5t-41 -19.5z" />
<glyph unicode="&#x202f;" horiz-adv-x="186" />
<glyph unicode="&#x2039;" horiz-adv-x="298" d="M171 32l-111 157q-18 23 -18 36t38 44l186 148l25 -25l-169 -172l84 -168z" />
<glyph unicode="&#x203a;" horiz-adv-x="298" d="M126 416l111 -157q18 -23 18 -36t-38 -44l-186 -148l-25 25l169 172l-84 168z" />
<glyph unicode="&#x205f;" horiz-adv-x="233" />
<glyph unicode="&#x20ac;" horiz-adv-x="640" d="M437 351h-206q-11 -44 -14 -84h200l-11 -47h-190q4 -84 43 -129t106 -45q113 0 175 142l44 -16q-30 -83 -92 -135.5t-145 -52.5q-99 0 -156.5 63.5t-59.5 172.5h-96l11 47h86q4 43 15 84h-81l11 47h85q42 109 126 177t182 68q82 0 132 -41.5t50 -98.5q0 -33 -19 -57 t-48 -24q-24 0 -39 14.5t-15 37.5q0 46 46 70q-33 49 -105 49q-80 0 -138 -54.5t-89 -140.5h204z" />
<glyph unicode="&#x2122;" horiz-adv-x="813" d="M398 358l7 29h45l58 237h-44l8 28h123l20 -226h4l134 226h127l-8 -28h-45l-59 -237h45l-7 -29h-132l7 29h35l57 225h-9l-155 -254h-34l-25 254h-11l-55 -225h37l-7 -29h-116zM134 358l7 29h57l60 238h-33q-26 0 -38 -13.5t-38 -68.5h-24l28 109h277l-28 -109h-22v25 q0 32 -4 43q-6 14 -32 14h-34l-60 -238h57l-8 -29h-165z" />
</font>
</defs>
</svg>
